{"glyphs":{"0":{"ha":997,"x_min":49,"x_max":899,"o":"m 340 811 l 340 953 l 440 953 l 440 894 l 390 894 l 390 911 l 424 911 l 424 936 l 357 936 l 357 828 l 465 828 l 465 853 l 390 853 l 390 869 l 482 869 l 482 811 l 340 811 m 549 778 l 549 869 l 632 869 l 632 936 l 524 936 l 524 894 l 465 894 l 465 944 l 482 944 l 482 911 l 507 911 l 507 953 l 649 953 l 649 853 l 565 853 l 565 778 l 549 778 m 215 853 l 215 903 l 232 903 l 232 869 l 299 869 l 299 944 l 315 944 l 315 853 l 215 853 m 557 894 l 557 911 l 599 911 l 599 894 l 557 894 m 674 853 l 674 903 l 690 903 l 690 869 l 715 869 l 715 903 l 732 903 l 732 853 l 674 853 m 715 311 l 715 361 l 732 361 l 732 328 l 757 328 l 757 394 l 632 394 l 632 436 l 549 436 l 549 536 l 632 536 l 632 619 l 674 619 l 674 661 l 774 661 l 774 561 l 732 561 l 732 536 l 840 536 l 840 561 l 799 561 l 799 619 l 882 619 l 882 644 l 799 644 l 799 786 l 840 786 l 840 811 l 799 811 l 799 853 l 774 853 l 774 686 l 715 686 l 715 728 l 690 728 l 690 686 l 632 686 l 632 728 l 565 728 l 565 686 l 382 686 l 382 769 l 299 769 l 299 811 l 232 811 l 232 786 l 274 786 l 274 728 l 232 728 l 232 686 l 132 686 l 132 744 l 174 744 l 174 769 l 107 769 l 107 728 l 65 728 l 65 703 l 99 703 l 99 686 l 49 686 l 49 744 l 90 744 l 90 786 l 190 786 l 190 728 l 149 728 l 149 703 l 215 703 l 215 744 l 257 744 l 257 769 l 215 769 l 215 828 l 315 828 l 315 786 l 399 786 l 399 703 l 549 703 l 549 744 l 649 744 l 649 703 l 674 703 l 674 744 l 732 744 l 732 703 l 757 703 l 757 869 l 815 869 l 815 828 l 857 828 l 857 769 l 815 769 l 815 661 l 899 661 l 899 603 l 815 603 l 815 578 l 857 578 l 857 519 l 715 519 l 715 578 l 757 578 l 757 644 l 690 644 l 690 603 l 649 603 l 649 519 l 565 519 l 565 453 l 649 453 l 649 411 l 774 411 l 774 311 l 715 311 m 507 819 l 507 861 l 524 861 l 524 819 l 507 819 m 140 811 l 140 828 l 174 828 l 174 861 l 190 861 l 190 811 l 140 811 m 599 769 l 599 786 l 674 786 l 674 811 l 599 811 l 599 828 l 690 828 l 690 769 l 599 769 m 715 778 l 715 819 l 732 819 l 732 778 l 715 778 m 474 728 l 474 744 l 507 744 l 507 769 l 440 769 l 440 736 l 424 736 l 424 786 l 524 786 l 524 728 l 474 728 m 257 311 l 257 369 l 299 369 l 299 394 l 215 394 l 215 453 l 299 453 l 299 486 l 315 486 l 315 436 l 232 436 l 232 411 l 315 411 l 315 353 l 274 353 l 274 328 l 340 328 l 340 561 l 315 561 l 315 519 l 257 519 l 257 561 l 215 561 l 215 619 l 382 619 l 382 644 l 340 644 l 340 728 l 315 728 l 315 686 l 274 686 l 274 661 l 307 661 l 307 644 l 257 644 l 257 703 l 299 703 l 299 744 l 357 744 l 357 661 l 399 661 l 399 603 l 232 603 l 232 578 l 274 578 l 274 536 l 299 536 l 299 578 l 357 578 l 357 311 l 257 311 m 840 686 l 840 744 l 890 744 l 890 728 l 857 728 l 857 703 l 890 703 l 890 686 l 840 686 m 549 561 l 549 653 l 565 653 l 565 578 l 590 578 l 590 694 l 607 694 l 607 561 l 549 561 m 174 611 l 174 661 l 224 661 l 224 644 l 190 644 l 190 611 l 174 611 m 49 228 l 49 361 l 65 361 l 65 244 l 174 244 l 174 328 l 215 328 l 215 353 l 90 353 l 90 394 l 49 394 l 49 453 l 174 453 l 174 561 l 132 561 l 132 603 l 49 603 l 49 661 l 140 661 l 140 644 l 65 644 l 65 619 l 149 619 l 149 578 l 190 578 l 190 436 l 65 436 l 65 411 l 107 411 l 107 369 l 232 369 l 232 311 l 190 311 l 190 228 l 49 228 m 90 486 l 90 519 l 49 519 l 49 578 l 99 578 l 99 561 l 65 561 l 65 536 l 107 536 l 107 486 l 90 486 m 799 394 l 799 478 l 774 478 l 774 436 l 674 436 l 674 569 l 690 569 l 690 453 l 757 453 l 757 494 l 815 494 l 815 411 l 882 411 l 882 436 l 840 436 l 840 494 l 882 494 l 882 528 l 899 528 l 899 478 l 857 478 l 857 453 l 899 453 l 899 394 l 799 394 m 507 -22 l 507 19 l 465 19 l 465 78 l 507 78 l 507 103 l 382 103 l 382 161 l 424 161 l 424 228 l 399 228 l 399 186 l 340 186 l 340 286 l 382 286 l 382 569 l 399 569 l 399 269 l 357 269 l 357 203 l 382 203 l 382 244 l 440 244 l 440 144 l 399 144 l 399 119 l 524 119 l 524 61 l 482 61 l 482 36 l 524 36 l 524 -6 l 549 -6 l 549 144 l 507 144 l 507 203 l 607 203 l 607 161 l 632 161 l 632 311 l 607 311 l 607 269 l 549 269 l 549 411 l 607 411 l 607 369 l 682 369 l 682 353 l 590 353 l 590 394 l 565 394 l 565 286 l 590 286 l 590 328 l 649 328 l 649 144 l 590 144 l 590 186 l 524 186 l 524 161 l 565 161 l 565 -22 l 507 -22 m 132 486 l 132 528 l 149 528 l 149 486 l 132 486 m 599 478 l 599 494 l 640 494 l 640 478 l 599 478 m 224 478 l 224 494 l 265 494 l 265 478 l 224 478 m 140 394 l 140 411 l 182 411 l 182 394 l 140 394 m 674 236 l 674 286 l 799 286 l 799 369 l 890 369 l 890 353 l 815 353 l 815 269 l 690 269 l 690 236 l 674 236 m 99 269 l 99 286 l 132 286 l 132 311 l 99 311 l 99 328 l 149 328 l 149 269 l 99 269 m 849 311 l 849 328 l 890 328 l 890 311 l 849 311 m 215 236 l 215 286 l 307 286 l 307 269 l 232 269 l 232 236 l 215 236 m 632 61 l 632 103 l 599 103 l 599 119 l 649 119 l 649 78 l 715 78 l 715 103 l 674 103 l 674 203 l 715 203 l 715 244 l 840 244 l 840 286 l 899 286 l 899 186 l 857 186 l 857 144 l 799 144 l 799 186 l 774 186 l 774 78 l 799 78 l 799 111 l 815 111 l 815 61 l 757 61 l 757 203 l 815 203 l 815 161 l 840 161 l 840 203 l 882 203 l 882 269 l 857 269 l 857 228 l 732 228 l 732 186 l 690 186 l 690 119 l 732 119 l 732 61 l 632 61 m 299 19 l 299 103 l 215 103 l 215 186 l 149 186 l 149 144 l 90 144 l 90 194 l 107 194 l 107 161 l 132 161 l 132 203 l 232 203 l 232 119 l 315 119 l 315 36 l 340 36 l 340 144 l 299 144 l 299 228 l 274 228 l 274 153 l 257 153 l 257 244 l 315 244 l 315 161 l 357 161 l 357 19 l 299 19 m 465 153 l 465 244 l 599 244 l 599 228 l 482 228 l 482 153 l 465 153 m 140 103 l 140 119 l 182 119 l 182 103 l 140 103 m 224 19 l 224 36 l 257 36 l 257 61 l 224 61 l 224 78 l 274 78 l 274 19 l 224 19 m 390 61 l 390 78 l 432 78 l 432 61 l 390 61 m 590 19 l 590 69 l 607 69 l 607 36 l 724 36 l 724 19 l 590 19 m 307 -22 l 307 -6 l 382 -6 l 382 36 l 440 36 l 440 -6 l 474 -6 l 474 -22 l 424 -22 l 424 19 l 399 19 l 399 -22 l 307 -22 m 599 -22 l 599 -6 l 640 -6 l 640 -22 l 599 -22 z "},"1":{"ha":774,"x_min":4,"x_max":688,"o":"m 463 792 l 463 842 l 504 842 l 504 950 l 438 950 l 438 925 l 471 925 l 471 908 l 421 908 l 421 967 l 521 967 l 521 825 l 479 825 l 479 792 l 463 792 m 629 658 l 629 825 l 604 825 l 604 742 l 504 742 l 504 792 l 521 792 l 521 758 l 588 758 l 588 842 l 646 842 l 646 675 l 671 675 l 671 867 l 588 867 l 588 908 l 546 908 l 546 967 l 646 967 l 646 925 l 679 925 l 679 908 l 629 908 l 629 950 l 563 950 l 563 925 l 604 925 l 604 883 l 688 883 l 688 658 l 629 658 m 338 408 l 338 508 l 379 508 l 379 533 l 338 533 l 338 592 l 438 592 l 438 550 l 463 550 l 463 592 l 521 592 l 521 550 l 546 550 l 546 592 l 629 592 l 629 617 l 504 617 l 504 700 l 463 700 l 463 742 l 421 742 l 421 783 l 396 783 l 396 742 l 313 742 l 313 700 l 129 700 l 129 800 l 254 800 l 254 842 l 338 842 l 338 925 l 396 925 l 396 875 l 379 875 l 379 908 l 354 908 l 354 825 l 271 825 l 271 783 l 146 783 l 146 717 l 296 717 l 296 758 l 379 758 l 379 800 l 438 800 l 438 758 l 479 758 l 479 717 l 521 717 l 521 633 l 646 633 l 646 575 l 563 575 l 563 533 l 504 533 l 504 575 l 479 575 l 479 533 l 421 533 l 421 575 l 354 575 l 354 550 l 396 550 l 396 492 l 354 492 l 354 425 l 379 425 l 379 467 l 463 467 l 463 492 l 429 492 l 429 508 l 479 508 l 479 450 l 396 450 l 396 408 l 338 408 m 263 867 l 263 883 l 296 883 l 296 917 l 313 917 l 313 867 l 263 867 m 429 867 l 429 883 l 471 883 l 471 867 l 429 867 m 546 792 l 546 875 l 563 875 l 563 792 l 546 792 m 388 825 l 388 842 l 429 842 l 429 825 l 388 825 m 304 783 l 304 800 l 346 800 l 346 783 l 304 783 m 179 742 l 179 758 l 221 758 l 221 742 l 179 742 m 54 658 l 54 675 l 88 675 l 88 700 l 54 700 l 54 717 l 104 717 l 104 658 l 54 658 m 388 700 l 388 717 l 429 717 l 429 700 l 388 700 m 546 658 l 546 708 l 563 708 l 563 675 l 588 675 l 588 708 l 604 708 l 604 658 l 546 658 m 296 583 l 296 633 l 338 633 l 338 675 l 438 675 l 438 617 l 388 617 l 388 633 l 421 633 l 421 658 l 354 658 l 354 617 l 313 617 l 313 583 l 296 583 m 46 533 l 46 633 l 104 633 l 104 592 l 129 592 l 129 675 l 188 675 l 188 592 l 254 592 l 254 675 l 304 675 l 304 658 l 271 658 l 271 575 l 171 575 l 171 658 l 146 658 l 146 575 l 88 575 l 88 617 l 63 617 l 63 550 l 179 550 l 179 533 l 46 533 m 463 625 l 463 667 l 479 667 l 479 625 l 463 625 m 213 625 l 213 667 l 229 667 l 229 625 l 213 625 m 4 625 l 4 667 l 21 667 l 21 625 l 4 625 m 671 583 l 671 625 l 688 625 l 688 583 l 671 583 m 96 492 l 96 508 l 213 508 l 213 550 l 263 550 l 263 533 l 229 533 l 229 492 l 96 492 m 546 -8 l 546 175 l 588 175 l 588 217 l 646 217 l 646 175 l 671 175 l 671 325 l 646 325 l 646 283 l 604 283 l 604 242 l 546 242 l 546 283 l 504 283 l 504 342 l 546 342 l 546 367 l 504 367 l 504 467 l 546 467 l 546 508 l 604 508 l 604 467 l 671 467 l 671 533 l 596 533 l 596 550 l 688 550 l 688 450 l 588 450 l 588 492 l 563 492 l 563 450 l 521 450 l 521 383 l 563 383 l 563 325 l 521 325 l 521 300 l 563 300 l 563 258 l 588 258 l 588 300 l 629 300 l 629 342 l 688 342 l 688 158 l 629 158 l 629 200 l 604 200 l 604 158 l 563 158 l 563 8 l 629 8 l 629 33 l 588 33 l 588 133 l 688 133 l 688 83 l 671 83 l 671 117 l 604 117 l 604 50 l 646 50 l 646 -8 l 546 -8 m 138 450 l 138 467 l 179 467 l 179 450 l 138 450 m 629 375 l 629 425 l 688 425 l 688 375 l 671 375 l 671 408 l 646 408 l 646 375 l 629 375 m 588 333 l 588 408 l 554 408 l 554 425 l 604 425 l 604 333 l 588 333 m 338 117 l 338 217 l 379 217 l 379 242 l 338 242 l 338 383 l 463 383 l 463 408 l 429 408 l 429 425 l 479 425 l 479 367 l 354 367 l 354 258 l 396 258 l 396 200 l 354 200 l 354 133 l 379 133 l 379 175 l 421 175 l 421 283 l 379 283 l 379 342 l 429 342 l 429 325 l 396 325 l 396 300 l 438 300 l 438 158 l 396 158 l 396 117 l 338 117 m 463 292 l 463 333 l 479 333 l 479 292 l 463 292 m 471 242 l 471 258 l 513 258 l 513 242 l 471 242 m 471 -8 l 471 8 l 504 8 l 504 217 l 554 217 l 554 200 l 521 200 l 521 -8 l 471 -8 m 463 167 l 463 208 l 479 208 l 479 167 l 463 167 m 429 75 l 429 92 l 463 92 l 463 117 l 429 117 l 429 133 l 479 133 l 479 75 l 429 75 m 338 -8 l 338 92 l 396 92 l 396 42 l 379 42 l 379 75 l 354 75 l 354 8 l 421 8 l 421 50 l 471 50 l 471 33 l 438 33 l 438 -8 l 338 -8 m 671 0 l 671 42 l 688 42 l 688 0 l 671 0 z "},"2":{"ha":978,"x_min":40,"x_max":890,"o":"m 290 867 l 290 925 l 332 925 l 332 967 l 432 967 l 432 875 l 415 875 l 415 950 l 349 950 l 349 908 l 307 908 l 307 883 l 374 883 l 374 917 l 390 917 l 390 867 l 290 867 m 465 867 l 465 883 l 499 883 l 499 908 l 457 908 l 457 967 l 599 967 l 599 908 l 557 908 l 557 883 l 665 883 l 665 908 l 624 908 l 624 958 l 640 958 l 640 925 l 682 925 l 682 867 l 540 867 l 540 925 l 582 925 l 582 950 l 474 950 l 474 925 l 515 925 l 515 867 l 465 867 m 215 908 l 215 925 l 257 925 l 257 908 l 215 908 m 707 792 l 707 917 l 724 917 l 724 792 l 707 792 m 540 658 l 540 700 l 499 700 l 499 742 l 474 742 l 474 700 l 332 700 l 332 758 l 424 758 l 424 742 l 349 742 l 349 717 l 457 717 l 457 758 l 515 758 l 515 717 l 557 717 l 557 675 l 582 675 l 582 742 l 540 742 l 540 783 l 499 783 l 499 825 l 474 825 l 474 783 l 415 783 l 415 825 l 249 825 l 249 867 l 182 867 l 182 842 l 224 842 l 224 800 l 382 800 l 382 783 l 207 783 l 207 825 l 165 825 l 165 883 l 265 883 l 265 842 l 432 842 l 432 800 l 457 800 l 457 842 l 515 842 l 515 800 l 557 800 l 557 758 l 599 758 l 599 658 l 540 658 m 674 700 l 674 717 l 749 717 l 749 800 l 807 800 l 807 758 l 832 758 l 832 825 l 749 825 l 749 883 l 799 883 l 799 867 l 765 867 l 765 842 l 849 842 l 849 742 l 790 742 l 790 783 l 765 783 l 765 700 l 674 700 m 624 667 l 624 758 l 665 758 l 665 825 l 549 825 l 549 842 l 682 842 l 682 742 l 640 742 l 640 667 l 624 667 m 124 658 l 124 700 l 90 700 l 90 717 l 140 717 l 140 675 l 165 675 l 165 783 l 124 783 l 124 833 l 140 833 l 140 800 l 182 800 l 182 658 l 124 658 m 590 783 l 590 800 l 632 800 l 632 783 l 590 783 m 82 742 l 82 792 l 99 792 l 99 758 l 132 758 l 132 742 l 82 742 m 257 742 l 257 758 l 299 758 l 299 742 l 257 742 m 207 708 l 207 750 l 224 750 l 224 708 l 207 708 m 207 617 l 207 675 l 290 675 l 290 700 l 257 700 l 257 717 l 307 717 l 307 658 l 224 658 l 224 633 l 332 633 l 332 675 l 390 675 l 390 625 l 374 625 l 374 658 l 349 658 l 349 617 l 207 617 m 799 700 l 799 717 l 840 717 l 840 700 l 799 700 m 82 617 l 82 658 l 57 658 l 57 625 l 40 625 l 40 675 l 99 675 l 99 633 l 174 633 l 174 617 l 82 617 m 582 492 l 582 533 l 540 533 l 540 592 l 582 592 l 582 633 l 665 633 l 665 667 l 682 667 l 682 617 l 599 617 l 599 575 l 557 575 l 557 550 l 599 550 l 599 508 l 832 508 l 832 575 l 807 575 l 807 533 l 624 533 l 624 592 l 707 592 l 707 675 l 765 675 l 765 633 l 790 633 l 790 675 l 840 675 l 840 658 l 807 658 l 807 617 l 749 617 l 749 658 l 724 658 l 724 575 l 640 575 l 640 550 l 790 550 l 790 592 l 849 592 l 849 492 l 582 492 m 840 617 l 840 633 l 874 633 l 874 667 l 890 667 l 890 617 l 840 617 m 424 492 l 424 508 l 457 508 l 457 550 l 499 550 l 499 633 l 549 633 l 549 617 l 515 617 l 515 533 l 474 533 l 474 492 l 424 492 m 82 -8 l 82 33 l 40 33 l 40 92 l 90 92 l 90 75 l 57 75 l 57 50 l 99 50 l 99 8 l 124 8 l 124 133 l 165 133 l 165 175 l 307 175 l 307 117 l 265 117 l 265 50 l 290 50 l 290 92 l 332 92 l 332 133 l 374 133 l 374 175 l 499 175 l 499 258 l 540 258 l 540 325 l 457 325 l 457 383 l 499 383 l 499 408 l 457 408 l 457 467 l 499 467 l 499 508 l 557 508 l 557 467 l 640 467 l 640 425 l 682 425 l 682 325 l 624 325 l 624 367 l 599 367 l 599 258 l 640 258 l 640 200 l 557 200 l 557 33 l 349 33 l 349 -8 l 165 -8 l 165 50 l 207 50 l 207 125 l 224 125 l 224 33 l 182 33 l 182 8 l 332 8 l 332 50 l 540 50 l 540 217 l 624 217 l 624 242 l 582 242 l 582 383 l 640 383 l 640 342 l 665 342 l 665 408 l 624 408 l 624 450 l 540 450 l 540 492 l 515 492 l 515 450 l 474 450 l 474 425 l 515 425 l 515 367 l 474 367 l 474 342 l 557 342 l 557 242 l 515 242 l 515 158 l 390 158 l 390 117 l 349 117 l 349 75 l 307 75 l 307 33 l 249 33 l 249 133 l 290 133 l 290 158 l 182 158 l 182 117 l 140 117 l 140 -8 l 82 -8 m 215 325 l 215 342 l 249 342 l 249 383 l 290 383 l 290 425 l 415 425 l 415 450 l 382 450 l 382 467 l 432 467 l 432 408 l 307 408 l 307 367 l 265 367 l 265 325 l 215 325 m 707 375 l 707 467 l 765 467 l 765 417 l 749 417 l 749 450 l 724 450 l 724 375 l 707 375 m 540 375 l 540 425 l 590 425 l 590 408 l 557 408 l 557 375 l 540 375 m 299 325 l 299 342 l 332 342 l 332 383 l 390 383 l 390 342 l 415 342 l 415 375 l 432 375 l 432 325 l 374 325 l 374 367 l 349 367 l 349 325 l 299 325 m 40 117 l 40 217 l 82 217 l 82 258 l 165 258 l 165 300 l 224 300 l 224 217 l 290 217 l 290 258 l 349 258 l 349 217 l 374 217 l 374 258 l 432 258 l 432 217 l 457 217 l 457 283 l 265 283 l 265 250 l 249 250 l 249 300 l 474 300 l 474 200 l 415 200 l 415 242 l 390 242 l 390 200 l 332 200 l 332 242 l 307 242 l 307 200 l 207 200 l 207 283 l 182 283 l 182 242 l 99 242 l 99 200 l 57 200 l 57 133 l 82 133 l 82 175 l 124 175 l 124 217 l 174 217 l 174 200 l 140 200 l 140 158 l 99 158 l 99 117 l 40 117 m 707 200 l 707 242 l 674 242 l 674 258 l 724 258 l 724 217 l 749 217 l 749 258 l 807 258 l 807 217 l 874 217 l 874 242 l 840 242 l 840 258 l 890 258 l 890 200 l 790 200 l 790 242 l 765 242 l 765 200 l 707 200 m 632 117 l 632 133 l 665 133 l 665 208 l 682 208 l 682 117 l 632 117 m 840 -8 l 840 8 l 874 8 l 874 33 l 832 33 l 832 117 l 790 117 l 790 158 l 724 158 l 724 133 l 757 133 l 757 117 l 707 117 l 707 175 l 807 175 l 807 133 l 849 133 l 849 50 l 890 50 l 890 -8 l 840 -8 m 874 83 l 874 158 l 840 158 l 840 175 l 890 175 l 890 83 l 874 83 m 582 125 l 582 167 l 599 167 l 599 125 l 582 125 m 382 75 l 382 92 l 415 92 l 415 133 l 515 133 l 515 75 l 465 75 l 465 92 l 499 92 l 499 117 l 432 117 l 432 75 l 382 75 m 590 -8 l 590 8 l 624 8 l 624 33 l 582 33 l 582 92 l 682 92 l 682 50 l 707 50 l 707 92 l 765 92 l 765 50 l 807 50 l 807 -8 l 674 -8 l 674 8 l 790 8 l 790 33 l 749 33 l 749 75 l 724 75 l 724 33 l 665 33 l 665 75 l 599 75 l 599 50 l 640 50 l 640 -8 l 590 -8 m 382 -8 l 382 8 l 424 8 l 424 -8 l 382 -8 m 507 -8 l 507 8 l 549 8 l 549 -8 l 507 -8 z "},"3":{"ha":985,"x_min":24,"x_max":915,"o":"m 65 778 l 65 953 l 207 953 l 207 903 l 190 903 l 190 936 l 82 936 l 82 778 l 65 778 m 107 778 l 107 869 l 165 869 l 165 828 l 232 828 l 232 953 l 290 953 l 290 903 l 274 903 l 274 936 l 249 936 l 249 811 l 149 811 l 149 853 l 124 853 l 124 778 l 107 778 m 315 769 l 315 811 l 274 811 l 274 869 l 315 869 l 315 953 l 374 953 l 374 911 l 415 911 l 415 869 l 457 869 l 457 828 l 499 828 l 499 786 l 524 786 l 524 853 l 482 853 l 482 911 l 565 911 l 565 953 l 824 953 l 824 936 l 582 936 l 582 894 l 499 894 l 499 869 l 540 869 l 540 769 l 482 769 l 482 811 l 440 811 l 440 853 l 399 853 l 399 894 l 357 894 l 357 936 l 332 936 l 332 853 l 290 853 l 290 828 l 332 828 l 332 786 l 399 786 l 399 811 l 357 811 l 357 861 l 374 861 l 374 828 l 415 828 l 415 769 l 315 769 m 440 903 l 440 936 l 407 936 l 407 953 l 457 953 l 457 903 l 440 903 m 490 936 l 490 953 l 532 953 l 532 936 l 490 936 m 115 894 l 115 911 l 157 911 l 157 894 l 115 894 m 565 778 l 565 828 l 649 828 l 649 894 l 624 894 l 624 853 l 574 853 l 574 869 l 607 869 l 607 911 l 665 911 l 665 811 l 582 811 l 582 778 l 565 778 m 815 861 l 815 894 l 699 894 l 699 911 l 832 911 l 832 861 l 815 861 m 824 811 l 824 828 l 857 828 l 857 903 l 874 903 l 874 811 l 824 811 m 699 644 l 699 661 l 774 661 l 774 703 l 815 703 l 815 744 l 857 744 l 857 769 l 774 769 l 774 853 l 707 853 l 707 786 l 749 786 l 749 728 l 665 728 l 665 703 l 740 703 l 740 686 l 649 686 l 649 744 l 732 744 l 732 769 l 690 769 l 690 869 l 790 869 l 790 786 l 874 786 l 874 728 l 832 728 l 832 686 l 790 686 l 790 644 l 699 644 m 107 686 l 107 728 l 82 728 l 82 694 l 65 694 l 65 744 l 124 744 l 124 703 l 149 703 l 149 786 l 290 786 l 290 744 l 332 744 l 332 686 l 232 686 l 232 736 l 249 736 l 249 703 l 315 703 l 315 728 l 274 728 l 274 769 l 165 769 l 165 686 l 107 686 m 615 769 l 615 786 l 657 786 l 657 769 l 615 769 m 440 603 l 440 644 l 399 644 l 399 703 l 482 703 l 482 728 l 374 728 l 374 694 l 357 694 l 357 744 l 499 744 l 499 686 l 415 686 l 415 661 l 457 661 l 457 619 l 490 619 l 490 603 l 440 603 m 732 103 l 732 203 l 774 203 l 774 244 l 832 244 l 832 203 l 899 203 l 899 269 l 857 269 l 857 311 l 815 311 l 815 353 l 732 353 l 732 411 l 774 411 l 774 478 l 749 478 l 749 436 l 690 436 l 690 519 l 649 519 l 649 561 l 607 561 l 607 619 l 649 619 l 649 644 l 607 644 l 607 728 l 532 728 l 532 744 l 624 744 l 624 661 l 665 661 l 665 603 l 624 603 l 624 578 l 665 578 l 665 536 l 707 536 l 707 453 l 732 453 l 732 494 l 790 494 l 790 394 l 749 394 l 749 369 l 832 369 l 832 328 l 874 328 l 874 286 l 915 286 l 915 186 l 815 186 l 815 228 l 790 228 l 790 186 l 749 186 l 749 119 l 774 119 l 774 161 l 865 161 l 865 144 l 790 144 l 790 103 l 732 103 m 190 694 l 190 736 l 207 736 l 207 694 l 190 694 m 690 236 l 690 394 l 665 394 l 665 353 l 607 353 l 607 436 l 565 436 l 565 686 l 540 686 l 540 644 l 490 644 l 490 661 l 524 661 l 524 703 l 582 703 l 582 453 l 624 453 l 624 369 l 649 369 l 649 411 l 707 411 l 707 236 l 690 236 m 357 569 l 357 619 l 407 619 l 407 603 l 374 603 l 374 569 l 357 569 m 690 569 l 690 611 l 707 611 l 707 569 l 690 569 m 482 519 l 482 578 l 524 578 l 524 611 l 540 611 l 540 561 l 499 561 l 499 536 l 532 536 l 532 519 l 482 519 m 357 353 l 357 494 l 399 494 l 399 578 l 457 578 l 457 411 l 524 411 l 524 478 l 499 478 l 499 444 l 482 444 l 482 494 l 540 494 l 540 394 l 440 394 l 440 561 l 415 561 l 415 478 l 374 478 l 374 369 l 399 369 l 399 444 l 415 444 l 415 353 l 357 353 m 315 444 l 315 478 l 274 478 l 274 578 l 332 578 l 332 536 l 365 536 l 365 519 l 315 519 l 315 561 l 290 561 l 290 494 l 332 494 l 332 444 l 315 444 m 740 519 l 740 536 l 782 536 l 782 519 l 740 519 m 649 444 l 649 478 l 615 478 l 615 494 l 665 494 l 665 444 l 649 444 m 815 403 l 815 453 l 865 453 l 865 436 l 832 436 l 832 403 l 815 403 m 274 403 l 274 444 l 290 444 l 290 403 l 274 403 m 899 319 l 899 353 l 857 353 l 857 411 l 907 411 l 907 394 l 874 394 l 874 369 l 915 369 l 915 319 l 899 319 m 315 361 l 315 403 l 332 403 l 332 361 l 315 361 m 490 353 l 490 369 l 565 369 l 565 403 l 582 403 l 582 353 l 490 353 m 274 61 l 274 119 l 324 119 l 324 103 l 290 103 l 290 78 l 357 78 l 357 119 l 457 119 l 457 78 l 482 78 l 482 144 l 440 144 l 440 203 l 540 203 l 540 119 l 565 119 l 565 203 l 607 203 l 607 244 l 649 244 l 649 269 l 607 269 l 607 311 l 582 311 l 582 228 l 374 228 l 374 186 l 332 186 l 332 161 l 399 161 l 399 194 l 415 194 l 415 144 l 315 144 l 315 203 l 357 203 l 357 244 l 565 244 l 565 328 l 624 328 l 624 286 l 665 286 l 665 228 l 624 228 l 624 186 l 582 186 l 582 103 l 524 103 l 524 186 l 457 186 l 457 161 l 499 161 l 499 61 l 440 61 l 440 103 l 374 103 l 374 61 l 274 61 m 740 311 l 740 328 l 782 328 l 782 311 l 740 311 m 732 236 l 732 286 l 824 286 l 824 269 l 749 269 l 749 236 l 732 236 m 240 269 l 240 286 l 365 286 l 365 269 l 240 269 m 24 186 l 24 244 l 65 244 l 65 269 l 32 269 l 32 286 l 82 286 l 82 228 l 40 228 l 40 203 l 107 203 l 107 244 l 149 244 l 149 269 l 115 269 l 115 286 l 165 286 l 165 228 l 124 228 l 124 186 l 24 186 m 274 153 l 274 228 l 190 228 l 190 278 l 207 278 l 207 244 l 290 244 l 290 153 l 274 153 m 157 186 l 157 203 l 240 203 l 240 186 l 157 186 m 565 -22 l 565 19 l 524 19 l 524 78 l 607 78 l 607 161 l 665 161 l 665 119 l 690 119 l 690 186 l 657 186 l 657 203 l 707 203 l 707 103 l 649 103 l 649 144 l 624 144 l 624 61 l 540 61 l 540 36 l 582 36 l 582 -6 l 649 -6 l 649 36 l 732 36 l 732 78 l 824 78 l 824 61 l 749 61 l 749 19 l 665 19 l 665 -22 l 565 -22 m 190 19 l 190 78 l 232 78 l 232 144 l 124 144 l 124 69 l 107 69 l 107 161 l 249 161 l 249 61 l 207 61 l 207 36 l 240 36 l 240 19 l 190 19 m 65 111 l 65 153 l 82 153 l 82 111 l 65 111 m 149 69 l 149 119 l 199 119 l 199 103 l 165 103 l 165 69 l 149 69 m 657 61 l 657 78 l 699 78 l 699 61 l 657 61 m 324 -22 l 324 -6 l 399 -6 l 399 19 l 290 19 l 290 -14 l 274 -14 l 274 36 l 415 36 l 415 -22 l 324 -22 m 440 -14 l 440 36 l 490 36 l 490 19 l 457 19 l 457 -14 l 440 -14 m 490 -22 l 490 -6 l 532 -6 l 532 -22 l 490 -22 z "},"4":{"ha":1021,"x_min":28,"x_max":961,"o":"m 528 325 l 528 383 l 578 383 l 578 367 l 544 367 l 544 342 l 611 342 l 611 408 l 528 408 l 528 508 l 628 508 l 628 467 l 653 467 l 653 508 l 711 508 l 711 467 l 778 467 l 778 783 l 694 783 l 694 825 l 653 825 l 653 867 l 628 867 l 628 800 l 669 800 l 669 758 l 753 758 l 753 700 l 711 700 l 711 617 l 628 617 l 628 533 l 528 533 l 528 575 l 403 575 l 403 633 l 486 633 l 486 658 l 444 658 l 444 717 l 486 717 l 486 742 l 403 742 l 403 800 l 444 800 l 444 925 l 544 925 l 544 883 l 569 883 l 569 967 l 628 967 l 628 925 l 653 925 l 653 967 l 744 967 l 744 950 l 669 950 l 669 908 l 611 908 l 611 950 l 586 950 l 586 867 l 528 867 l 528 908 l 461 908 l 461 783 l 419 783 l 419 758 l 503 758 l 503 700 l 461 700 l 461 675 l 503 675 l 503 617 l 419 617 l 419 592 l 544 592 l 544 550 l 611 550 l 611 633 l 694 633 l 694 717 l 736 717 l 736 742 l 653 742 l 653 783 l 611 783 l 611 883 l 669 883 l 669 842 l 711 842 l 711 800 l 794 800 l 794 450 l 694 450 l 694 492 l 669 492 l 669 450 l 611 450 l 611 492 l 544 492 l 544 425 l 628 425 l 628 325 l 528 325 m 494 950 l 494 967 l 536 967 l 536 950 l 494 950 m 744 908 l 744 925 l 786 925 l 786 908 l 744 908 m 744 825 l 744 842 l 778 842 l 778 867 l 694 867 l 694 917 l 711 917 l 711 883 l 794 883 l 794 825 l 744 825 m 361 833 l 361 883 l 419 883 l 419 833 l 403 833 l 403 867 l 378 867 l 378 833 l 361 833 m 486 825 l 486 875 l 503 875 l 503 842 l 578 842 l 578 825 l 486 825 m 328 242 l 328 258 l 403 258 l 403 325 l 361 325 l 361 367 l 336 367 l 336 325 l 253 325 l 253 283 l 194 283 l 194 325 l 153 325 l 153 383 l 278 383 l 278 467 l 361 467 l 361 575 l 319 575 l 319 617 l 278 617 l 278 675 l 319 675 l 319 717 l 361 717 l 361 783 l 336 783 l 336 742 l 294 742 l 294 700 l 253 700 l 253 617 l 211 617 l 211 592 l 253 592 l 253 508 l 319 508 l 319 533 l 278 533 l 278 583 l 294 583 l 294 550 l 336 550 l 336 492 l 236 492 l 236 575 l 194 575 l 194 633 l 236 633 l 236 717 l 278 717 l 278 758 l 319 758 l 319 800 l 378 800 l 378 700 l 336 700 l 336 658 l 294 658 l 294 633 l 336 633 l 336 592 l 378 592 l 378 450 l 294 450 l 294 367 l 169 367 l 169 342 l 211 342 l 211 300 l 236 300 l 236 342 l 319 342 l 319 383 l 378 383 l 378 342 l 419 342 l 419 242 l 328 242 m 528 617 l 528 758 l 569 758 l 569 783 l 494 783 l 494 800 l 586 800 l 586 742 l 544 742 l 544 633 l 569 633 l 569 675 l 653 675 l 653 700 l 578 700 l 578 717 l 669 717 l 669 658 l 586 658 l 586 617 l 528 617 m 361 625 l 361 675 l 411 675 l 411 658 l 378 658 l 378 625 l 361 625 m 736 625 l 736 667 l 753 667 l 753 625 l 736 625 m 653 533 l 653 592 l 703 592 l 703 575 l 669 575 l 669 550 l 703 550 l 703 533 l 653 533 m 111 458 l 111 508 l 153 508 l 153 583 l 169 583 l 169 492 l 128 492 l 128 458 l 111 458 m 736 500 l 736 583 l 753 583 l 753 500 l 736 500 m 453 367 l 453 383 l 486 383 l 486 542 l 503 542 l 503 367 l 453 367 m 403 500 l 403 542 l 419 542 l 419 500 l 403 500 m 194 500 l 194 542 l 211 542 l 211 500 l 194 500 m 28 367 l 28 417 l 44 417 l 44 383 l 111 383 l 111 425 l 153 425 l 153 467 l 203 467 l 203 450 l 169 450 l 169 408 l 128 408 l 128 367 l 28 367 m 69 417 l 69 458 l 86 458 l 86 417 l 69 417 m 203 408 l 203 425 l 236 425 l 236 458 l 253 458 l 253 408 l 203 408 m 486 -8 l 486 175 l 569 175 l 569 217 l 694 217 l 694 258 l 753 258 l 753 8 l 778 8 l 778 175 l 944 175 l 944 200 l 861 200 l 861 242 l 819 242 l 819 325 l 694 325 l 694 383 l 736 383 l 736 425 l 836 425 l 836 383 l 861 383 l 861 425 l 961 425 l 961 367 l 919 367 l 919 325 l 878 325 l 878 292 l 861 292 l 861 342 l 903 342 l 903 383 l 944 383 l 944 408 l 878 408 l 878 367 l 819 367 l 819 408 l 753 408 l 753 367 l 711 367 l 711 342 l 836 342 l 836 258 l 878 258 l 878 217 l 961 217 l 961 158 l 794 158 l 794 -8 l 736 -8 l 736 242 l 711 242 l 711 200 l 586 200 l 586 158 l 503 158 l 503 8 l 569 8 l 569 33 l 528 33 l 528 92 l 569 92 l 569 117 l 536 117 l 536 133 l 586 133 l 586 75 l 544 75 l 544 50 l 586 50 l 586 -8 l 486 -8 m 661 408 l 661 425 l 703 425 l 703 408 l 661 408 m 653 333 l 653 375 l 669 375 l 669 333 l 653 333 m 28 158 l 28 217 l 119 217 l 119 200 l 44 200 l 44 175 l 153 175 l 153 242 l 69 242 l 69 325 l 44 325 l 44 250 l 28 250 l 28 342 l 86 342 l 86 258 l 169 258 l 169 158 l 28 158 m 194 158 l 194 258 l 244 258 l 244 242 l 211 242 l 211 175 l 319 175 l 319 217 l 419 217 l 419 175 l 444 175 l 444 258 l 486 258 l 486 325 l 461 325 l 461 292 l 444 292 l 444 342 l 503 342 l 503 242 l 461 242 l 461 158 l 403 158 l 403 200 l 336 200 l 336 158 l 194 158 m 111 283 l 111 333 l 128 333 l 128 300 l 161 300 l 161 283 l 111 283 m 911 242 l 911 258 l 944 258 l 944 283 l 911 283 l 911 300 l 961 300 l 961 242 l 911 242 m 328 283 l 328 300 l 369 300 l 369 283 l 328 283 m 494 200 l 494 217 l 528 217 l 528 300 l 586 300 l 586 250 l 569 250 l 569 283 l 544 283 l 544 200 l 494 200 m 778 200 l 778 283 l 669 283 l 669 242 l 611 242 l 611 292 l 628 292 l 628 258 l 653 258 l 653 300 l 794 300 l 794 217 l 828 217 l 828 200 l 778 200 m 244 200 l 244 217 l 278 217 l 278 292 l 294 292 l 294 200 l 244 200 m 611 117 l 611 175 l 703 175 l 703 158 l 628 158 l 628 133 l 703 133 l 703 117 l 611 117 m 611 -8 l 611 50 l 661 50 l 661 33 l 628 33 l 628 8 l 694 8 l 694 75 l 661 75 l 661 92 l 711 92 l 711 -8 l 611 -8 z "},"5":{"ha":958,"x_min":24,"x_max":915,"o":"m 115 683 l 115 700 l 149 700 l 149 783 l 190 783 l 190 850 l 165 850 l 165 808 l 107 808 l 107 908 l 190 908 l 190 933 l 157 933 l 157 950 l 207 950 l 207 892 l 124 892 l 124 825 l 149 825 l 149 867 l 207 867 l 207 767 l 165 767 l 165 683 l 115 683 m 315 642 l 315 683 l 232 683 l 232 867 l 315 867 l 315 908 l 399 908 l 399 950 l 499 950 l 499 892 l 449 892 l 449 908 l 482 908 l 482 933 l 415 933 l 415 892 l 332 892 l 332 850 l 249 850 l 249 700 l 332 700 l 332 658 l 357 658 l 357 725 l 274 725 l 274 783 l 440 783 l 440 867 l 524 867 l 524 950 l 665 950 l 665 850 l 607 850 l 607 892 l 582 892 l 582 858 l 565 858 l 565 908 l 624 908 l 624 867 l 649 867 l 649 933 l 540 933 l 540 850 l 457 850 l 457 767 l 290 767 l 290 742 l 374 742 l 374 642 l 315 642 m 240 933 l 240 950 l 365 950 l 365 933 l 240 933 m 565 725 l 565 783 l 699 783 l 699 767 l 582 767 l 582 742 l 732 742 l 732 825 l 774 825 l 774 867 l 815 867 l 815 892 l 774 892 l 774 933 l 749 933 l 749 850 l 707 850 l 707 808 l 490 808 l 490 825 l 690 825 l 690 867 l 732 867 l 732 950 l 790 950 l 790 908 l 832 908 l 832 850 l 790 850 l 790 808 l 749 808 l 749 725 l 565 725 m 690 900 l 690 942 l 707 942 l 707 900 l 690 900 m 240 892 l 240 908 l 282 908 l 282 892 l 240 892 m 357 808 l 357 858 l 374 858 l 374 825 l 399 825 l 399 858 l 415 858 l 415 808 l 357 808 m 282 808 l 282 825 l 324 825 l 324 808 l 282 808 m 449 683 l 449 700 l 815 700 l 815 725 l 774 725 l 774 783 l 815 783 l 815 817 l 832 817 l 832 767 l 790 767 l 790 742 l 832 742 l 832 683 l 449 683 m 490 725 l 490 742 l 524 742 l 524 767 l 490 767 l 490 783 l 540 783 l 540 725 l 490 725 m 107 733 l 107 775 l 124 775 l 124 733 l 107 733 m 407 725 l 407 742 l 449 742 l 449 725 l 407 725 m 190 558 l 190 692 l 207 692 l 207 575 l 274 575 l 274 642 l 249 642 l 249 608 l 232 608 l 232 658 l 290 658 l 290 558 l 190 558 m 65 517 l 65 575 l 107 575 l 107 650 l 124 650 l 124 558 l 82 558 l 82 533 l 149 533 l 149 650 l 165 650 l 165 517 l 65 517 m 324 600 l 324 617 l 365 617 l 365 600 l 324 600 m 440 517 l 440 600 l 415 600 l 415 567 l 399 567 l 399 617 l 457 617 l 457 533 l 482 533 l 482 575 l 565 575 l 565 600 l 490 600 l 490 617 l 582 617 l 582 558 l 499 558 l 499 517 l 440 517 m 732 483 l 732 558 l 607 558 l 607 617 l 699 617 l 699 600 l 624 600 l 624 575 l 749 575 l 749 483 l 732 483 m 107 392 l 107 492 l 190 492 l 190 525 l 207 525 l 207 475 l 124 475 l 124 408 l 190 408 l 190 450 l 274 450 l 274 533 l 315 533 l 315 575 l 374 575 l 374 533 l 415 533 l 415 475 l 374 475 l 374 392 l 315 392 l 315 483 l 332 483 l 332 408 l 357 408 l 357 492 l 399 492 l 399 517 l 357 517 l 357 558 l 332 558 l 332 517 l 290 517 l 290 433 l 207 433 l 207 392 l 107 392 m 524 475 l 524 525 l 540 525 l 540 492 l 565 492 l 565 533 l 615 533 l 615 517 l 582 517 l 582 475 l 524 475 m 657 517 l 657 533 l 699 533 l 699 517 l 657 517 m 774 475 l 774 525 l 790 525 l 790 492 l 815 492 l 815 525 l 832 525 l 832 475 l 774 475 m 232 483 l 232 525 l 249 525 l 249 483 l 232 483 m 449 475 l 449 492 l 490 492 l 490 475 l 449 475 m 649 308 l 649 492 l 707 492 l 707 358 l 690 358 l 690 475 l 665 475 l 665 325 l 865 325 l 865 308 l 649 308 m 65 400 l 65 483 l 82 483 l 82 400 l 65 400 m 440 392 l 440 433 l 415 433 l 415 400 l 399 400 l 399 450 l 457 450 l 457 408 l 524 408 l 524 433 l 490 433 l 490 450 l 540 450 l 540 392 l 440 392 m 574 308 l 574 325 l 607 325 l 607 433 l 582 433 l 582 350 l 532 350 l 532 367 l 565 367 l 565 450 l 624 450 l 624 308 l 574 308 m 732 358 l 732 408 l 815 408 l 815 433 l 740 433 l 740 450 l 832 450 l 832 392 l 749 392 l 749 358 l 732 358 m 857 400 l 857 442 l 874 442 l 874 400 l 857 400 m 240 392 l 240 408 l 282 408 l 282 392 l 240 392 m 649 142 l 649 242 l 732 242 l 732 283 l 832 283 l 832 225 l 782 225 l 782 242 l 815 242 l 815 267 l 749 267 l 749 225 l 665 225 l 665 158 l 690 158 l 690 200 l 857 200 l 857 283 l 899 283 l 899 350 l 782 350 l 782 367 l 915 367 l 915 267 l 874 267 l 874 183 l 707 183 l 707 142 l 649 142 m 399 142 l 399 183 l 315 183 l 315 283 l 374 283 l 374 242 l 457 242 l 457 200 l 607 200 l 607 267 l 582 267 l 582 225 l 490 225 l 490 242 l 565 242 l 565 283 l 624 283 l 624 183 l 440 183 l 440 225 l 357 225 l 357 267 l 332 267 l 332 200 l 415 200 l 415 158 l 532 158 l 532 142 l 399 142 m 65 225 l 65 275 l 82 275 l 82 242 l 107 242 l 107 283 l 199 283 l 199 267 l 124 267 l 124 225 l 65 225 m 274 108 l 274 267 l 249 267 l 249 225 l 207 225 l 207 183 l 165 183 l 165 158 l 232 158 l 232 192 l 249 192 l 249 142 l 149 142 l 149 200 l 190 200 l 190 242 l 232 242 l 232 283 l 290 283 l 290 108 l 274 108 m 657 267 l 657 283 l 699 283 l 699 267 l 657 267 m 24 183 l 24 275 l 40 275 l 40 200 l 74 200 l 74 183 l 24 183 m 107 150 l 107 192 l 124 192 l 124 150 l 107 150 m 399 25 l 399 100 l 357 100 l 357 142 l 324 142 l 324 158 l 374 158 l 374 117 l 415 117 l 415 25 l 399 25 m 565 58 l 565 158 l 624 158 l 624 117 l 657 117 l 657 100 l 607 100 l 607 142 l 582 142 l 582 75 l 615 75 l 615 58 l 565 58 m 774 108 l 774 158 l 832 158 l 832 108 l 815 108 l 815 142 l 790 142 l 790 108 l 774 108 m 115 58 l 115 75 l 149 75 l 149 100 l 65 100 l 65 150 l 82 150 l 82 117 l 165 117 l 165 58 l 115 58 m 274 -17 l 274 17 l 232 17 l 232 100 l 199 100 l 199 117 l 249 117 l 249 33 l 290 33 l 290 -17 l 274 -17 m 315 -25 l 315 33 l 357 33 l 357 58 l 315 58 l 315 108 l 332 108 l 332 75 l 374 75 l 374 17 l 332 17 l 332 -8 l 440 -8 l 440 33 l 649 33 l 649 75 l 690 75 l 690 117 l 749 117 l 749 17 l 699 17 l 699 33 l 732 33 l 732 100 l 707 100 l 707 58 l 665 58 l 665 17 l 457 17 l 457 -25 l 315 -25 m 482 67 l 482 117 l 540 117 l 540 67 l 524 67 l 524 100 l 499 100 l 499 67 l 482 67 m 440 67 l 440 108 l 457 108 l 457 67 l 440 67 m 157 17 l 157 33 l 190 33 l 190 67 l 207 67 l 207 17 l 157 17 m 490 -25 l 490 -8 l 615 -8 l 615 -25 l 490 -25 z "},"6":{"ha":961,"x_min":19,"x_max":911,"o":"m 478 903 l 478 953 l 569 953 l 569 936 l 494 936 l 494 903 l 478 903 m 603 853 l 603 953 l 703 953 l 703 903 l 686 903 l 686 936 l 619 936 l 619 869 l 644 869 l 644 903 l 661 903 l 661 853 l 603 853 m 394 853 l 394 911 l 436 911 l 436 944 l 453 944 l 453 894 l 411 894 l 411 869 l 444 869 l 444 853 l 394 853 m 436 478 l 436 561 l 394 561 l 394 603 l 353 603 l 353 661 l 436 661 l 436 703 l 561 703 l 561 786 l 603 786 l 603 811 l 561 811 l 561 894 l 536 894 l 536 853 l 494 853 l 494 811 l 453 811 l 453 744 l 519 744 l 519 819 l 536 819 l 536 728 l 436 728 l 436 828 l 478 828 l 478 869 l 519 869 l 519 911 l 578 911 l 578 828 l 619 828 l 619 769 l 578 769 l 578 686 l 453 686 l 453 644 l 369 644 l 369 619 l 411 619 l 411 578 l 453 578 l 453 494 l 486 494 l 486 478 l 436 478 m 311 769 l 311 828 l 353 828 l 353 853 l 319 853 l 319 869 l 369 869 l 369 811 l 328 811 l 328 786 l 394 786 l 394 819 l 411 819 l 411 769 l 311 769 m 236 728 l 236 744 l 269 744 l 269 819 l 286 819 l 286 728 l 236 728 m 353 361 l 353 394 l 228 394 l 228 494 l 286 494 l 286 453 l 311 453 l 311 494 l 394 494 l 394 519 l 353 519 l 353 561 l 311 561 l 311 603 l 286 603 l 286 561 l 244 561 l 244 519 l 186 519 l 186 561 l 144 561 l 144 619 l 186 619 l 186 703 l 286 703 l 286 661 l 311 661 l 311 703 l 353 703 l 353 728 l 319 728 l 319 744 l 369 744 l 369 686 l 328 686 l 328 644 l 269 644 l 269 686 l 203 686 l 203 603 l 161 603 l 161 578 l 203 578 l 203 536 l 228 536 l 228 578 l 269 578 l 269 619 l 328 619 l 328 578 l 369 578 l 369 536 l 411 536 l 411 478 l 328 478 l 328 436 l 269 436 l 269 478 l 244 478 l 244 411 l 369 411 l 369 361 l 353 361 m 394 694 l 394 736 l 411 736 l 411 694 l 394 694 m 444 603 l 444 619 l 478 619 l 478 661 l 528 661 l 528 644 l 494 644 l 494 603 l 444 603 m 603 436 l 603 619 l 644 619 l 644 644 l 578 644 l 578 603 l 536 603 l 536 561 l 494 561 l 494 536 l 536 536 l 536 494 l 569 494 l 569 478 l 519 478 l 519 519 l 478 519 l 478 578 l 519 578 l 519 619 l 561 619 l 561 661 l 661 661 l 661 603 l 619 603 l 619 453 l 644 453 l 644 536 l 703 536 l 703 494 l 728 494 l 728 603 l 703 603 l 703 561 l 653 561 l 653 578 l 686 578 l 686 619 l 744 619 l 744 478 l 686 478 l 686 519 l 661 519 l 661 436 l 603 436 m 228 611 l 228 653 l 244 653 l 244 611 l 228 611 m 561 528 l 561 569 l 578 569 l 578 528 l 561 528 m 61 444 l 61 536 l 103 536 l 103 569 l 119 569 l 119 519 l 78 519 l 78 444 l 61 444 m 278 519 l 278 536 l 319 536 l 319 519 l 278 519 m 686 394 l 686 453 l 736 453 l 736 436 l 703 436 l 703 411 l 853 411 l 853 478 l 828 478 l 828 436 l 769 436 l 769 528 l 786 528 l 786 453 l 811 453 l 811 494 l 869 494 l 869 394 l 686 394 m 311 269 l 311 353 l 286 353 l 286 311 l 228 311 l 228 353 l 144 353 l 144 411 l 186 411 l 186 478 l 119 478 l 119 453 l 153 453 l 153 436 l 103 436 l 103 494 l 203 494 l 203 394 l 161 394 l 161 369 l 244 369 l 244 328 l 269 328 l 269 369 l 328 369 l 328 286 l 353 286 l 353 319 l 369 319 l 369 269 l 311 269 m 269 -22 l 269 19 l 228 19 l 228 78 l 269 78 l 269 161 l 328 161 l 328 119 l 369 119 l 369 61 l 328 61 l 328 36 l 369 36 l 369 -6 l 478 -6 l 478 19 l 436 19 l 436 61 l 394 61 l 394 119 l 494 119 l 494 78 l 578 78 l 578 -6 l 603 -6 l 603 36 l 686 36 l 686 186 l 644 186 l 644 228 l 603 228 l 603 286 l 644 286 l 644 311 l 561 311 l 561 436 l 411 436 l 411 403 l 394 403 l 394 453 l 578 453 l 578 328 l 661 328 l 661 269 l 619 269 l 619 244 l 661 244 l 661 203 l 703 203 l 703 19 l 619 19 l 619 -22 l 561 -22 l 561 61 l 478 61 l 478 103 l 411 103 l 411 78 l 453 78 l 453 36 l 494 36 l 494 -22 l 353 -22 l 353 19 l 311 19 l 311 78 l 353 78 l 353 103 l 311 103 l 311 144 l 286 144 l 286 61 l 244 61 l 244 36 l 286 36 l 286 -6 l 319 -6 l 319 -22 l 269 -22 m 686 269 l 686 328 l 728 328 l 728 353 l 644 353 l 644 394 l 619 394 l 619 361 l 603 361 l 603 411 l 661 411 l 661 369 l 744 369 l 744 311 l 703 311 l 703 286 l 853 286 l 853 311 l 819 311 l 819 328 l 869 328 l 869 269 l 686 269 m 103 186 l 103 228 l 19 228 l 19 286 l 61 286 l 61 353 l 36 353 l 36 319 l 19 319 l 19 369 l 78 369 l 78 269 l 36 269 l 36 244 l 119 244 l 119 203 l 186 203 l 186 228 l 144 228 l 144 286 l 186 286 l 186 311 l 103 311 l 103 394 l 28 394 l 28 411 l 119 411 l 119 328 l 203 328 l 203 269 l 161 269 l 161 244 l 203 244 l 203 186 l 103 186 m 861 228 l 861 244 l 894 244 l 894 353 l 778 353 l 778 369 l 911 369 l 911 228 l 861 228 m 228 111 l 228 244 l 269 244 l 269 278 l 286 278 l 286 228 l 244 228 l 244 111 l 228 111 m 486 144 l 486 161 l 519 161 l 519 186 l 478 186 l 478 244 l 561 244 l 561 278 l 578 278 l 578 228 l 494 228 l 494 203 l 536 203 l 536 144 l 486 144 m 361 144 l 361 161 l 394 161 l 394 203 l 436 203 l 436 228 l 369 228 l 369 194 l 353 194 l 353 244 l 453 244 l 453 186 l 411 186 l 411 144 l 361 144 m 736 103 l 736 119 l 769 119 l 769 144 l 728 144 l 728 228 l 694 228 l 694 244 l 744 244 l 744 161 l 786 161 l 786 103 l 736 103 m 811 111 l 811 161 l 853 161 l 853 186 l 811 186 l 811 228 l 786 228 l 786 194 l 769 194 l 769 244 l 828 244 l 828 203 l 869 203 l 869 144 l 828 144 l 828 111 l 811 111 m 278 186 l 278 203 l 311 203 l 311 236 l 328 236 l 328 186 l 278 186 m 28 186 l 28 203 l 69 203 l 69 186 l 28 186 m 611 61 l 611 78 l 644 78 l 644 103 l 603 103 l 603 186 l 569 186 l 569 203 l 619 203 l 619 119 l 661 119 l 661 61 l 611 61 m 103 111 l 103 144 l 69 144 l 69 161 l 119 161 l 119 111 l 103 111 m 153 144 l 153 161 l 194 161 l 194 144 l 153 144 m 561 111 l 561 153 l 578 153 l 578 111 l 561 111 m 186 28 l 186 103 l 161 103 l 161 69 l 144 69 l 144 119 l 203 119 l 203 28 l 186 28 m 728 28 l 728 78 l 778 78 l 778 61 l 744 61 l 744 28 l 728 28 m 519 -14 l 519 28 l 536 28 l 536 -14 l 519 -14 z "},"7":{"ha":868,"x_min":31,"x_max":797,"o":"m 31 875 l 31 925 l 114 925 l 114 950 l 81 950 l 81 967 l 131 967 l 131 908 l 47 908 l 47 875 l 31 875 m 281 658 l 281 700 l 256 700 l 256 667 l 239 667 l 239 717 l 297 717 l 297 675 l 531 675 l 531 700 l 489 700 l 489 742 l 447 742 l 447 783 l 422 783 l 422 700 l 322 700 l 322 867 l 239 867 l 239 908 l 197 908 l 197 950 l 172 950 l 172 842 l 256 842 l 256 758 l 281 758 l 281 833 l 297 833 l 297 742 l 239 742 l 239 825 l 156 825 l 156 967 l 214 967 l 214 925 l 256 925 l 256 883 l 339 883 l 339 717 l 406 717 l 406 800 l 464 800 l 464 758 l 506 758 l 506 717 l 547 717 l 547 658 l 281 658 m 247 950 l 247 967 l 289 967 l 289 950 l 247 950 m 364 750 l 364 950 l 331 950 l 331 967 l 381 967 l 381 750 l 364 750 m 572 783 l 572 867 l 531 867 l 531 925 l 581 925 l 581 908 l 547 908 l 547 883 l 589 883 l 589 800 l 614 800 l 614 883 l 672 883 l 672 842 l 697 842 l 697 908 l 656 908 l 656 950 l 422 950 l 422 883 l 464 883 l 464 842 l 489 842 l 489 908 l 456 908 l 456 925 l 506 925 l 506 825 l 447 825 l 447 867 l 406 867 l 406 967 l 672 967 l 672 925 l 714 925 l 714 825 l 656 825 l 656 867 l 631 867 l 631 783 l 572 783 m 781 917 l 781 950 l 706 950 l 706 967 l 797 967 l 797 917 l 781 917 m 289 908 l 289 925 l 331 925 l 331 908 l 289 908 m 31 658 l 31 758 l 72 758 l 72 783 l 31 783 l 31 842 l 72 842 l 72 883 l 131 883 l 131 800 l 172 800 l 172 742 l 131 742 l 131 675 l 206 675 l 206 658 l 114 658 l 114 758 l 156 758 l 156 783 l 114 783 l 114 867 l 89 867 l 89 825 l 47 825 l 47 800 l 89 800 l 89 742 l 47 742 l 47 675 l 72 675 l 72 708 l 89 708 l 89 658 l 31 658 m 656 700 l 656 742 l 531 742 l 531 783 l 497 783 l 497 800 l 547 800 l 547 758 l 672 758 l 672 717 l 697 717 l 697 800 l 739 800 l 739 883 l 797 883 l 797 742 l 747 742 l 747 758 l 781 758 l 781 867 l 756 867 l 756 783 l 714 783 l 714 700 l 656 700 m 197 708 l 197 792 l 214 792 l 214 708 l 197 708 m 656 458 l 656 492 l 614 492 l 614 533 l 531 533 l 531 592 l 614 592 l 614 633 l 656 633 l 656 675 l 739 675 l 739 717 l 797 717 l 797 667 l 781 667 l 781 700 l 756 700 l 756 658 l 672 658 l 672 617 l 631 617 l 631 575 l 547 575 l 547 550 l 631 550 l 631 508 l 672 508 l 672 458 l 656 458 m 572 658 l 572 717 l 622 717 l 622 700 l 589 700 l 589 675 l 622 675 l 622 658 l 572 658 m 414 617 l 414 633 l 456 633 l 456 617 l 414 617 m 489 583 l 489 633 l 581 633 l 581 617 l 506 617 l 506 583 l 489 583 m 697 575 l 697 633 l 747 633 l 747 617 l 714 617 l 714 592 l 747 592 l 747 575 l 697 575 m 531 408 l 531 450 l 456 450 l 456 467 l 547 467 l 547 425 l 572 425 l 572 492 l 406 492 l 406 592 l 464 592 l 464 550 l 497 550 l 497 533 l 447 533 l 447 575 l 422 575 l 422 508 l 589 508 l 589 408 l 531 408 m 697 458 l 697 533 l 656 533 l 656 583 l 672 583 l 672 550 l 714 550 l 714 458 l 697 458 m 364 500 l 364 542 l 381 542 l 381 500 l 364 500 m 281 325 l 281 383 l 322 383 l 322 425 l 381 425 l 381 383 l 414 383 l 414 367 l 364 367 l 364 408 l 339 408 l 339 367 l 297 367 l 297 342 l 447 342 l 447 408 l 406 408 l 406 450 l 372 450 l 372 467 l 422 467 l 422 425 l 464 425 l 464 325 l 281 325 m 614 367 l 614 425 l 664 425 l 664 408 l 631 408 l 631 383 l 664 383 l 664 367 l 614 367 m 239 158 l 239 258 l 322 258 l 322 300 l 456 300 l 456 283 l 339 283 l 339 242 l 256 242 l 256 175 l 281 175 l 281 217 l 364 217 l 364 258 l 572 258 l 572 300 l 614 300 l 614 325 l 547 325 l 547 283 l 489 283 l 489 417 l 506 417 l 506 300 l 531 300 l 531 342 l 631 342 l 631 283 l 589 283 l 589 242 l 381 242 l 381 200 l 297 200 l 297 158 l 239 158 m 539 367 l 539 383 l 581 383 l 581 367 l 539 367 m 364 117 l 364 158 l 331 158 l 331 175 l 381 175 l 381 133 l 489 133 l 489 158 l 406 158 l 406 217 l 547 217 l 547 125 l 531 125 l 531 200 l 422 200 l 422 175 l 506 175 l 506 117 l 364 117 m 322 -8 l 322 50 l 414 50 l 414 33 l 339 33 l 339 8 l 447 8 l 447 50 l 489 50 l 489 75 l 322 75 l 322 117 l 297 117 l 297 75 l 239 75 l 239 117 l 214 117 l 214 75 l 164 75 l 164 92 l 197 92 l 197 133 l 256 133 l 256 92 l 281 92 l 281 133 l 339 133 l 339 92 l 506 92 l 506 33 l 464 33 l 464 -8 l 322 -8 m 156 -8 l 156 50 l 256 50 l 256 8 l 281 8 l 281 42 l 297 42 l 297 -8 l 239 -8 l 239 33 l 172 33 l 172 8 l 206 8 l 206 -8 l 156 -8 z "},"8":{"ha":989,"x_min":42,"x_max":925,"o":"m 333 853 l 333 953 l 550 953 l 550 936 l 350 936 l 350 869 l 425 869 l 425 853 l 333 853 m 792 769 l 792 853 l 750 853 l 750 894 l 667 894 l 667 936 l 600 936 l 600 894 l 550 894 l 550 911 l 583 911 l 583 953 l 683 953 l 683 911 l 767 911 l 767 869 l 808 869 l 808 786 l 833 786 l 833 819 l 850 819 l 850 769 l 792 769 m 250 853 l 250 903 l 267 903 l 267 869 l 292 869 l 292 944 l 308 944 l 308 853 l 250 853 m 133 853 l 133 869 l 167 869 l 167 911 l 225 911 l 225 861 l 208 861 l 208 894 l 183 894 l 183 853 l 133 853 m 383 894 l 383 911 l 425 911 l 425 894 l 383 894 m 467 811 l 467 828 l 500 828 l 500 853 l 458 853 l 458 911 l 508 911 l 508 894 l 475 894 l 475 869 l 517 869 l 517 811 l 467 811 m 750 353 l 750 436 l 667 436 l 667 519 l 500 519 l 500 578 l 542 578 l 542 619 l 600 619 l 600 578 l 625 578 l 625 644 l 583 644 l 583 728 l 542 728 l 542 769 l 517 769 l 517 728 l 417 728 l 417 769 l 375 769 l 375 811 l 267 811 l 267 744 l 292 744 l 292 786 l 350 786 l 350 744 l 392 744 l 392 686 l 350 686 l 350 644 l 300 644 l 300 661 l 333 661 l 333 703 l 375 703 l 375 728 l 333 728 l 333 769 l 308 769 l 308 728 l 250 728 l 250 828 l 392 828 l 392 786 l 433 786 l 433 744 l 500 744 l 500 786 l 558 786 l 558 744 l 600 744 l 600 661 l 642 661 l 642 561 l 583 561 l 583 603 l 558 603 l 558 561 l 517 561 l 517 536 l 683 536 l 683 453 l 767 453 l 767 369 l 792 369 l 792 411 l 833 411 l 833 436 l 792 436 l 792 478 l 708 478 l 708 603 l 667 603 l 667 703 l 708 703 l 708 728 l 625 728 l 625 769 l 583 769 l 583 811 l 542 811 l 542 869 l 642 869 l 642 828 l 667 828 l 667 869 l 725 869 l 725 828 l 767 828 l 767 769 l 675 769 l 675 786 l 750 786 l 750 811 l 708 811 l 708 853 l 683 853 l 683 811 l 625 811 l 625 853 l 558 853 l 558 828 l 600 828 l 600 786 l 642 786 l 642 744 l 725 744 l 725 686 l 683 686 l 683 619 l 725 619 l 725 494 l 808 494 l 808 453 l 850 453 l 850 394 l 808 394 l 808 353 l 750 353 m 83 694 l 83 744 l 167 744 l 167 828 l 225 828 l 225 736 l 208 736 l 208 811 l 183 811 l 183 728 l 100 728 l 100 694 l 83 694 m 83 769 l 83 819 l 100 819 l 100 786 l 125 786 l 125 819 l 142 819 l 142 769 l 83 769 m 758 728 l 758 744 l 842 744 l 842 728 l 758 728 m 250 269 l 250 353 l 225 353 l 225 311 l 167 311 l 167 478 l 125 478 l 125 536 l 250 536 l 250 603 l 83 603 l 83 661 l 125 661 l 125 703 l 183 703 l 183 661 l 208 661 l 208 703 l 258 703 l 258 686 l 225 686 l 225 644 l 167 644 l 167 686 l 142 686 l 142 644 l 100 644 l 100 619 l 267 619 l 267 519 l 142 519 l 142 494 l 183 494 l 183 328 l 208 328 l 208 369 l 267 369 l 267 286 l 333 286 l 333 311 l 292 311 l 292 411 l 375 411 l 375 436 l 333 436 l 333 561 l 292 561 l 292 619 l 392 619 l 392 536 l 458 536 l 458 561 l 425 561 l 425 578 l 475 578 l 475 519 l 375 519 l 375 603 l 308 603 l 308 578 l 350 578 l 350 453 l 392 453 l 392 394 l 308 394 l 308 328 l 350 328 l 350 269 l 250 269 m 750 519 l 750 619 l 800 619 l 800 603 l 767 603 l 767 536 l 792 536 l 792 578 l 833 578 l 833 644 l 750 644 l 750 703 l 892 703 l 892 653 l 875 653 l 875 686 l 767 686 l 767 661 l 850 661 l 850 561 l 808 561 l 808 519 l 750 519 m 92 561 l 92 578 l 217 578 l 217 561 l 92 561 m 208 394 l 208 494 l 258 494 l 258 478 l 225 478 l 225 411 l 250 411 l 250 453 l 292 453 l 292 528 l 308 528 l 308 436 l 267 436 l 267 394 l 208 394 m 417 394 l 417 478 l 383 478 l 383 494 l 433 494 l 433 411 l 508 411 l 508 394 l 417 394 m 467 436 l 467 453 l 500 453 l 500 478 l 467 478 l 467 494 l 517 494 l 517 436 l 467 436 m 550 478 l 550 494 l 633 494 l 633 478 l 550 478 m 500 144 l 500 186 l 333 186 l 333 228 l 267 228 l 267 186 l 208 186 l 208 228 l 83 228 l 83 286 l 125 286 l 125 436 l 100 436 l 100 353 l 42 353 l 42 403 l 58 403 l 58 369 l 83 369 l 83 453 l 142 453 l 142 269 l 100 269 l 100 244 l 225 244 l 225 203 l 250 203 l 250 244 l 350 244 l 350 203 l 517 203 l 517 161 l 542 161 l 542 244 l 625 244 l 625 286 l 667 286 l 667 311 l 583 311 l 583 369 l 708 369 l 708 394 l 625 394 l 625 436 l 558 436 l 558 353 l 392 353 l 392 236 l 375 236 l 375 369 l 542 369 l 542 453 l 642 453 l 642 411 l 725 411 l 725 353 l 600 353 l 600 328 l 683 328 l 683 269 l 642 269 l 642 228 l 558 228 l 558 144 l 500 144 m 800 311 l 800 328 l 833 328 l 833 369 l 875 369 l 875 403 l 892 403 l 892 353 l 850 353 l 850 311 l 800 311 m 833 111 l 833 161 l 875 161 l 875 328 l 925 328 l 925 311 l 892 311 l 892 144 l 850 144 l 850 111 l 833 111 m 667 194 l 667 244 l 708 244 l 708 328 l 758 328 l 758 311 l 725 311 l 725 228 l 683 228 l 683 194 l 667 194 m 42 236 l 42 328 l 92 328 l 92 311 l 58 311 l 58 236 l 42 236 m 583 -14 l 583 78 l 683 78 l 683 36 l 708 36 l 708 203 l 750 203 l 750 286 l 850 286 l 850 228 l 808 228 l 808 103 l 767 103 l 767 78 l 800 78 l 800 61 l 750 61 l 750 119 l 792 119 l 792 244 l 833 244 l 833 269 l 767 269 l 767 186 l 725 186 l 725 19 l 667 19 l 667 61 l 600 61 l 600 -14 l 583 -14 m 175 269 l 175 286 l 217 286 l 217 269 l 175 269 m 125 69 l 125 186 l 58 186 l 58 161 l 100 161 l 100 111 l 83 111 l 83 144 l 42 144 l 42 203 l 142 203 l 142 69 l 125 69 m 633 103 l 633 119 l 667 119 l 667 144 l 625 144 l 625 186 l 600 186 l 600 111 l 583 111 l 583 203 l 642 203 l 642 161 l 683 161 l 683 103 l 633 103 m 208 103 l 208 144 l 167 144 l 167 194 l 183 194 l 183 161 l 225 161 l 225 119 l 250 119 l 250 153 l 267 153 l 267 103 l 208 103 m 292 153 l 292 194 l 308 194 l 308 153 l 292 153 m 342 144 l 342 161 l 383 161 l 383 144 l 342 144 m 417 -14 l 417 36 l 542 36 l 542 103 l 517 103 l 517 61 l 458 61 l 458 144 l 433 144 l 433 69 l 417 69 l 417 161 l 475 161 l 475 78 l 500 78 l 500 119 l 558 119 l 558 19 l 433 19 l 433 -14 l 417 -14 m 333 -22 l 333 19 l 250 19 l 250 61 l 217 61 l 217 78 l 267 78 l 267 36 l 350 36 l 350 -6 l 375 -6 l 375 103 l 308 103 l 308 78 l 342 78 l 342 61 l 292 61 l 292 119 l 392 119 l 392 -22 l 333 -22 m 167 19 l 167 111 l 183 111 l 183 36 l 217 36 l 217 19 l 167 19 m 625 -22 l 625 28 l 642 28 l 642 -6 l 675 -6 l 675 -22 l 625 -22 m 508 -22 l 508 -6 l 550 -6 l 550 -22 l 508 -22 z "},"9":{"ha":949,"x_min":21,"x_max":913,"o":"m 563 742 l 563 825 l 521 825 l 521 917 l 538 917 l 538 842 l 579 842 l 579 758 l 646 758 l 646 783 l 604 783 l 604 867 l 563 867 l 563 950 l 413 950 l 413 908 l 354 908 l 354 950 l 329 950 l 329 867 l 271 867 l 271 908 l 246 908 l 246 867 l 204 867 l 204 825 l 154 825 l 154 842 l 188 842 l 188 883 l 229 883 l 229 925 l 288 925 l 288 883 l 313 883 l 313 967 l 371 967 l 371 925 l 396 925 l 396 967 l 579 967 l 579 883 l 621 883 l 621 800 l 663 800 l 663 742 l 563 742 m 313 700 l 313 758 l 354 758 l 354 783 l 313 783 l 313 842 l 354 842 l 354 883 l 438 883 l 438 925 l 496 925 l 496 825 l 454 825 l 454 758 l 529 758 l 529 742 l 438 742 l 438 842 l 479 842 l 479 908 l 454 908 l 454 867 l 371 867 l 371 825 l 329 825 l 329 800 l 371 800 l 371 742 l 329 742 l 329 717 l 396 717 l 396 833 l 413 833 l 413 700 l 313 700 m 688 750 l 688 825 l 646 825 l 646 908 l 613 908 l 613 925 l 663 925 l 663 842 l 704 842 l 704 750 l 688 750 m 688 875 l 688 917 l 704 917 l 704 875 l 688 875 m 854 708 l 854 783 l 729 783 l 729 883 l 788 883 l 788 842 l 821 842 l 821 825 l 771 825 l 771 867 l 746 867 l 746 800 l 871 800 l 871 708 l 854 708 m 238 825 l 238 842 l 279 842 l 279 825 l 238 825 m 71 783 l 71 800 l 104 800 l 104 833 l 121 833 l 121 783 l 71 783 m 488 783 l 488 800 l 529 800 l 529 783 l 488 783 m 146 750 l 146 800 l 196 800 l 196 783 l 163 783 l 163 750 l 146 750 m 63 492 l 63 542 l 79 542 l 79 508 l 104 508 l 104 617 l 63 617 l 63 758 l 121 758 l 121 717 l 188 717 l 188 758 l 229 758 l 229 800 l 288 800 l 288 675 l 371 675 l 371 575 l 271 575 l 271 617 l 188 617 l 188 675 l 229 675 l 229 708 l 246 708 l 246 658 l 204 658 l 204 633 l 288 633 l 288 592 l 354 592 l 354 658 l 271 658 l 271 783 l 246 783 l 246 742 l 204 742 l 204 700 l 104 700 l 104 742 l 79 742 l 79 633 l 121 633 l 121 492 l 63 492 m 771 492 l 771 575 l 738 575 l 738 592 l 788 592 l 788 508 l 813 508 l 813 592 l 854 592 l 854 633 l 896 633 l 896 658 l 813 658 l 813 700 l 729 700 l 729 758 l 821 758 l 821 742 l 746 742 l 746 717 l 829 717 l 829 675 l 913 675 l 913 617 l 871 617 l 871 575 l 829 575 l 829 492 l 771 492 m 21 500 l 21 750 l 38 750 l 38 500 l 21 500 m 563 658 l 563 700 l 446 700 l 446 717 l 579 717 l 579 675 l 613 675 l 613 658 l 563 658 m 646 617 l 646 667 l 663 667 l 663 633 l 688 633 l 688 700 l 613 700 l 613 717 l 704 717 l 704 617 l 646 617 m 146 500 l 146 658 l 113 658 l 113 675 l 163 675 l 163 500 l 146 500 m 729 617 l 729 667 l 746 667 l 746 633 l 771 633 l 771 667 l 788 667 l 788 617 l 729 617 m 604 583 l 604 617 l 571 617 l 571 633 l 621 633 l 621 583 l 604 583 m 188 542 l 188 592 l 238 592 l 238 575 l 204 575 l 204 542 l 188 542 m 479 200 l 479 283 l 454 283 l 454 242 l 354 242 l 354 408 l 329 408 l 329 283 l 271 283 l 271 325 l 246 325 l 246 292 l 229 292 l 229 342 l 288 342 l 288 300 l 313 300 l 313 425 l 371 425 l 371 258 l 438 258 l 438 300 l 496 300 l 496 217 l 521 217 l 521 383 l 563 383 l 563 408 l 521 408 l 521 467 l 563 467 l 563 492 l 521 492 l 521 550 l 646 550 l 646 592 l 704 592 l 704 550 l 746 550 l 746 467 l 829 467 l 829 408 l 788 408 l 788 367 l 729 367 l 729 408 l 704 408 l 704 367 l 646 367 l 646 467 l 688 467 l 688 500 l 704 500 l 704 450 l 663 450 l 663 383 l 688 383 l 688 425 l 746 425 l 746 383 l 771 383 l 771 425 l 813 425 l 813 450 l 729 450 l 729 533 l 688 533 l 688 575 l 663 575 l 663 533 l 538 533 l 538 508 l 579 508 l 579 450 l 538 450 l 538 425 l 579 425 l 579 367 l 538 367 l 538 200 l 479 200 m 529 575 l 529 592 l 571 592 l 571 575 l 529 575 m 279 533 l 279 550 l 363 550 l 363 533 l 279 533 m 854 458 l 854 542 l 871 542 l 871 458 l 854 458 m 396 292 l 396 342 l 479 342 l 479 367 l 396 367 l 396 425 l 479 425 l 479 450 l 396 450 l 396 492 l 371 492 l 371 450 l 229 450 l 229 542 l 246 542 l 246 467 l 354 467 l 354 508 l 413 508 l 413 467 l 496 467 l 496 408 l 413 408 l 413 383 l 496 383 l 496 325 l 413 325 l 413 292 l 396 292 m 563 117 l 563 258 l 604 258 l 604 283 l 563 283 l 563 333 l 579 333 l 579 300 l 621 300 l 621 242 l 579 242 l 579 133 l 604 133 l 604 217 l 646 217 l 646 300 l 688 300 l 688 325 l 604 325 l 604 508 l 654 508 l 654 492 l 621 492 l 621 342 l 704 342 l 704 283 l 663 283 l 663 200 l 621 200 l 621 117 l 563 117 m 446 492 l 446 508 l 488 508 l 488 492 l 446 492 m 279 492 l 279 508 l 321 508 l 321 492 l 279 492 m 154 325 l 154 342 l 188 342 l 188 383 l 229 383 l 229 408 l 163 408 l 163 367 l 104 367 l 104 467 l 188 467 l 188 500 l 204 500 l 204 450 l 121 450 l 121 383 l 146 383 l 146 425 l 246 425 l 246 367 l 204 367 l 204 325 l 154 325 m 63 417 l 63 458 l 79 458 l 79 417 l 63 417 m 271 375 l 271 417 l 288 417 l 288 375 l 271 375 m 729 292 l 729 342 l 779 342 l 779 325 l 746 325 l 746 292 l 729 292 m 313 -8 l 313 50 l 363 50 l 363 33 l 329 33 l 329 8 l 438 8 l 438 33 l 396 33 l 396 217 l 446 217 l 446 200 l 413 200 l 413 50 l 454 50 l 454 -8 l 313 -8 m 354 125 l 354 158 l 313 158 l 313 208 l 329 208 l 329 175 l 371 175 l 371 125 l 354 125 m 479 -8 l 479 75 l 446 75 l 446 92 l 496 92 l 496 8 l 521 8 l 521 158 l 496 158 l 496 117 l 438 117 l 438 167 l 454 167 l 454 133 l 479 133 l 479 175 l 538 175 l 538 -8 l 479 -8 m 188 -8 l 188 42 l 204 42 l 204 8 l 229 8 l 229 50 l 271 50 l 271 75 l 229 75 l 229 133 l 329 133 l 329 92 l 363 92 l 363 75 l 313 75 l 313 117 l 246 117 l 246 92 l 288 92 l 288 33 l 246 33 l 246 -8 l 188 -8 z "},"A":{"ha":1049,"x_min":-8,"x_max":1008,"o":"m 33 158 l 33 217 l 133 217 l 133 175 l 158 175 l 158 242 l 75 242 l 75 342 l 133 342 l 133 300 l 158 300 l 158 342 l 200 342 l 200 425 l 283 425 l 283 467 l 325 467 l 325 592 l 367 592 l 367 633 l 408 633 l 408 783 l 367 783 l 367 825 l 325 825 l 325 883 l 408 883 l 408 967 l 467 967 l 467 925 l 533 925 l 533 967 l 625 967 l 625 950 l 550 950 l 550 908 l 450 908 l 450 950 l 425 950 l 425 867 l 342 867 l 342 842 l 383 842 l 383 800 l 425 800 l 425 617 l 383 617 l 383 575 l 342 575 l 342 450 l 300 450 l 300 408 l 217 408 l 217 325 l 175 325 l 175 283 l 117 283 l 117 325 l 92 325 l 92 258 l 175 258 l 175 158 l 117 158 l 117 200 l 50 200 l 50 175 l 83 175 l 83 158 l 33 158 m 325 908 l 325 967 l 375 967 l 375 950 l 342 950 l 342 925 l 375 925 l 375 908 l 325 908 m 700 875 l 700 908 l 658 908 l 658 958 l 675 958 l 675 925 l 717 925 l 717 875 l 700 875 m 408 492 l 408 550 l 450 550 l 450 675 l 492 675 l 492 700 l 450 700 l 450 758 l 533 758 l 533 883 l 575 883 l 575 925 l 625 925 l 625 908 l 592 908 l 592 867 l 550 867 l 550 742 l 467 742 l 467 717 l 508 717 l 508 658 l 467 658 l 467 533 l 425 533 l 425 508 l 458 508 l 458 492 l 408 492 m 117 408 l 117 458 l 133 458 l 133 425 l 158 425 l 158 467 l 200 467 l 200 533 l 158 533 l 158 592 l 283 592 l 283 675 l 367 675 l 367 700 l 283 700 l 283 917 l 300 917 l 300 717 l 383 717 l 383 658 l 300 658 l 300 575 l 175 575 l 175 550 l 217 550 l 217 450 l 175 450 l 175 408 l 117 408 m 575 783 l 575 842 l 617 842 l 617 883 l 667 883 l 667 867 l 633 867 l 633 825 l 592 825 l 592 800 l 658 800 l 658 842 l 750 842 l 750 825 l 675 825 l 675 783 l 575 783 m 450 783 l 450 875 l 467 875 l 467 800 l 492 800 l 492 875 l 508 875 l 508 783 l 450 783 m 783 375 l 783 408 l 742 408 l 742 508 l 825 508 l 825 575 l 783 575 l 783 617 l 758 617 l 758 533 l 717 533 l 717 450 l 658 450 l 658 533 l 617 533 l 617 717 l 700 717 l 700 800 l 758 800 l 758 717 l 800 717 l 800 658 l 717 658 l 717 617 l 675 617 l 675 592 l 708 592 l 708 575 l 658 575 l 658 633 l 700 633 l 700 675 l 783 675 l 783 700 l 742 700 l 742 783 l 717 783 l 717 700 l 633 700 l 633 550 l 675 550 l 675 467 l 700 467 l 700 550 l 742 550 l 742 633 l 800 633 l 800 592 l 842 592 l 842 492 l 758 492 l 758 425 l 800 425 l 800 375 l 783 375 m 325 742 l 325 792 l 342 792 l 342 758 l 375 758 l 375 742 l 325 742 m 200 617 l 200 675 l 242 675 l 242 792 l 258 792 l 258 658 l 217 658 l 217 633 l 250 633 l 250 617 l 200 617 m 583 742 l 583 758 l 667 758 l 667 742 l 583 742 m 533 658 l 533 717 l 583 717 l 583 700 l 550 700 l 550 675 l 583 675 l 583 658 l 533 658 m 575 408 l 575 458 l 592 458 l 592 425 l 617 425 l 617 492 l 575 492 l 575 617 l 542 617 l 542 633 l 592 633 l 592 508 l 633 508 l 633 408 l 575 408 m 533 500 l 533 583 l 550 583 l 550 500 l 533 500 m 242 492 l 242 550 l 292 550 l 292 533 l 258 533 l 258 508 l 292 508 l 292 492 l 242 492 m 367 450 l 367 542 l 383 542 l 383 467 l 458 467 l 458 450 l 367 450 m 825 367 l 825 425 l 867 425 l 867 450 l 792 450 l 792 467 l 883 467 l 883 408 l 842 408 l 842 383 l 875 383 l 875 367 l 825 367 m 242 333 l 242 383 l 325 383 l 325 425 l 375 425 l 375 408 l 342 408 l 342 367 l 258 367 l 258 333 l 242 333 m 700 375 l 700 408 l 667 408 l 667 425 l 717 425 l 717 375 l 700 375 m 408 333 l 408 417 l 425 417 l 425 333 l 408 333 m 125 367 l 125 383 l 167 383 l 167 367 l 125 367 m 492 117 l 492 258 l 533 258 l 533 367 l 508 367 l 508 292 l 492 292 l 492 383 l 550 383 l 550 242 l 508 242 l 508 133 l 575 133 l 575 158 l 533 158 l 533 217 l 575 217 l 575 300 l 617 300 l 617 325 l 575 325 l 575 383 l 675 383 l 675 342 l 717 342 l 717 217 l 758 217 l 758 175 l 783 175 l 783 283 l 758 283 l 758 250 l 742 250 l 742 300 l 800 300 l 800 158 l 742 158 l 742 200 l 700 200 l 700 325 l 658 325 l 658 367 l 592 367 l 592 342 l 633 342 l 633 283 l 592 283 l 592 200 l 550 200 l 550 175 l 592 175 l 592 117 l 492 117 m 825 242 l 825 292 l 842 292 l 842 258 l 867 258 l 867 325 l 742 325 l 742 375 l 758 375 l 758 342 l 883 342 l 883 242 l 825 242 m -8 -8 l -8 92 l 33 92 l 33 133 l 200 133 l 200 175 l 258 175 l 258 50 l 325 50 l 325 217 l 367 217 l 367 242 l 200 242 l 200 300 l 283 300 l 283 342 l 383 342 l 383 300 l 450 300 l 450 333 l 467 333 l 467 283 l 367 283 l 367 325 l 300 325 l 300 283 l 217 283 l 217 258 l 383 258 l 383 200 l 342 200 l 342 33 l 242 33 l 242 158 l 217 158 l 217 117 l 50 117 l 50 75 l 8 75 l 8 8 l 33 8 l 33 50 l 75 50 l 75 92 l 133 92 l 133 50 l 217 50 l 217 -8 l 83 -8 l 83 8 l 200 8 l 200 33 l 117 33 l 117 75 l 92 75 l 92 33 l 50 33 l 50 -8 l -8 -8 m 908 167 l 908 333 l 925 333 l 925 167 l 908 167 m 617 200 l 617 258 l 658 258 l 658 292 l 675 292 l 675 242 l 633 242 l 633 217 l 667 217 l 667 200 l 617 200 m 408 117 l 408 167 l 425 167 l 425 133 l 450 133 l 450 242 l 425 242 l 425 208 l 408 208 l 408 258 l 467 258 l 467 117 l 408 117 m 208 200 l 208 217 l 250 217 l 250 200 l 208 200 m 792 -8 l 792 8 l 825 8 l 825 208 l 842 208 l 842 -8 l 792 -8 m 867 167 l 867 208 l 883 208 l 883 167 l 867 167 m 950 167 l 950 208 l 967 208 l 967 167 l 950 167 m 283 83 l 283 208 l 300 208 l 300 83 l 283 83 m 667 158 l 667 175 l 708 175 l 708 158 l 667 158 m 367 125 l 367 167 l 383 167 l 383 125 l 367 125 m 658 83 l 658 117 l 617 117 l 617 167 l 633 167 l 633 133 l 675 133 l 675 83 l 658 83 m 708 117 l 708 133 l 750 133 l 750 117 l 708 117 m 950 -8 l 950 33 l 875 33 l 875 50 l 967 50 l 967 8 l 992 8 l 992 117 l 883 117 l 883 92 l 958 92 l 958 75 l 867 75 l 867 133 l 1008 133 l 1008 -8 l 950 -8 m 167 75 l 167 92 l 208 92 l 208 75 l 167 75 m 700 -8 l 700 92 l 800 92 l 800 42 l 783 42 l 783 75 l 717 75 l 717 8 l 742 8 l 742 42 l 758 42 l 758 -8 l 700 -8 m 250 -8 l 250 8 l 292 8 l 292 -8 l 250 -8 m 875 -8 l 875 8 l 917 8 l 917 -8 l 875 -8 z "},"":{"ha":1049,"x_min":-8,"x_max":1008,"o":"m 33 158 l 33 217 l 133 217 l 133 175 l 158 175 l 158 242 l 75 242 l 75 342 l 133 342 l 133 300 l 158 300 l 158 342 l 200 342 l 200 425 l 283 425 l 283 467 l 325 467 l 325 592 l 367 592 l 367 633 l 408 633 l 408 783 l 367 783 l 367 825 l 325 825 l 325 883 l 408 883 l 408 967 l 467 967 l 467 925 l 533 925 l 533 967 l 625 967 l 625 950 l 550 950 l 550 908 l 450 908 l 450 950 l 425 950 l 425 867 l 342 867 l 342 842 l 383 842 l 383 800 l 425 800 l 425 617 l 383 617 l 383 575 l 342 575 l 342 450 l 300 450 l 300 408 l 217 408 l 217 325 l 175 325 l 175 283 l 117 283 l 117 325 l 92 325 l 92 258 l 175 258 l 175 158 l 117 158 l 117 200 l 50 200 l 50 175 l 83 175 l 83 158 l 33 158 m 325 908 l 325 967 l 375 967 l 375 950 l 342 950 l 342 925 l 375 925 l 375 908 l 325 908 m 700 875 l 700 908 l 658 908 l 658 958 l 675 958 l 675 925 l 717 925 l 717 875 l 700 875 m 408 492 l 408 550 l 450 550 l 450 675 l 492 675 l 492 700 l 450 700 l 450 758 l 533 758 l 533 883 l 575 883 l 575 925 l 625 925 l 625 908 l 592 908 l 592 867 l 550 867 l 550 742 l 467 742 l 467 717 l 508 717 l 508 658 l 467 658 l 467 533 l 425 533 l 425 508 l 458 508 l 458 492 l 408 492 m 117 408 l 117 458 l 133 458 l 133 425 l 158 425 l 158 467 l 200 467 l 200 533 l 158 533 l 158 592 l 283 592 l 283 675 l 367 675 l 367 700 l 283 700 l 283 917 l 300 917 l 300 717 l 383 717 l 383 658 l 300 658 l 300 575 l 175 575 l 175 550 l 217 550 l 217 450 l 175 450 l 175 408 l 117 408 m 575 783 l 575 842 l 617 842 l 617 883 l 667 883 l 667 867 l 633 867 l 633 825 l 592 825 l 592 800 l 658 800 l 658 842 l 750 842 l 750 825 l 675 825 l 675 783 l 575 783 m 450 783 l 450 875 l 467 875 l 467 800 l 492 800 l 492 875 l 508 875 l 508 783 l 450 783 m 783 375 l 783 408 l 742 408 l 742 508 l 825 508 l 825 575 l 783 575 l 783 617 l 758 617 l 758 533 l 717 533 l 717 450 l 658 450 l 658 533 l 617 533 l 617 717 l 700 717 l 700 800 l 758 800 l 758 717 l 800 717 l 800 658 l 717 658 l 717 617 l 675 617 l 675 592 l 708 592 l 708 575 l 658 575 l 658 633 l 700 633 l 700 675 l 783 675 l 783 700 l 742 700 l 742 783 l 717 783 l 717 700 l 633 700 l 633 550 l 675 550 l 675 467 l 700 467 l 700 550 l 742 550 l 742 633 l 800 633 l 800 592 l 842 592 l 842 492 l 758 492 l 758 425 l 800 425 l 800 375 l 783 375 m 325 742 l 325 792 l 342 792 l 342 758 l 375 758 l 375 742 l 325 742 m 200 617 l 200 675 l 242 675 l 242 792 l 258 792 l 258 658 l 217 658 l 217 633 l 250 633 l 250 617 l 200 617 m 583 742 l 583 758 l 667 758 l 667 742 l 583 742 m 533 658 l 533 717 l 583 717 l 583 700 l 550 700 l 550 675 l 583 675 l 583 658 l 533 658 m 575 408 l 575 458 l 592 458 l 592 425 l 617 425 l 617 492 l 575 492 l 575 617 l 542 617 l 542 633 l 592 633 l 592 508 l 633 508 l 633 408 l 575 408 m 533 500 l 533 583 l 550 583 l 550 500 l 533 500 m 242 492 l 242 550 l 292 550 l 292 533 l 258 533 l 258 508 l 292 508 l 292 492 l 242 492 m 367 450 l 367 542 l 383 542 l 383 467 l 458 467 l 458 450 l 367 450 m 825 367 l 825 425 l 867 425 l 867 450 l 792 450 l 792 467 l 883 467 l 883 408 l 842 408 l 842 383 l 875 383 l 875 367 l 825 367 m 242 333 l 242 383 l 325 383 l 325 425 l 375 425 l 375 408 l 342 408 l 342 367 l 258 367 l 258 333 l 242 333 m 700 375 l 700 408 l 667 408 l 667 425 l 717 425 l 717 375 l 700 375 m 408 333 l 408 417 l 425 417 l 425 333 l 408 333 m 125 367 l 125 383 l 167 383 l 167 367 l 125 367 m 492 117 l 492 258 l 533 258 l 533 367 l 508 367 l 508 292 l 492 292 l 492 383 l 550 383 l 550 242 l 508 242 l 508 133 l 575 133 l 575 158 l 533 158 l 533 217 l 575 217 l 575 300 l 617 300 l 617 325 l 575 325 l 575 383 l 675 383 l 675 342 l 717 342 l 717 217 l 758 217 l 758 175 l 783 175 l 783 283 l 758 283 l 758 250 l 742 250 l 742 300 l 800 300 l 800 158 l 742 158 l 742 200 l 700 200 l 700 325 l 658 325 l 658 367 l 592 367 l 592 342 l 633 342 l 633 283 l 592 283 l 592 200 l 550 200 l 550 175 l 592 175 l 592 117 l 492 117 m 825 242 l 825 292 l 842 292 l 842 258 l 867 258 l 867 325 l 742 325 l 742 375 l 758 375 l 758 342 l 883 342 l 883 242 l 825 242 m -8 -8 l -8 92 l 33 92 l 33 133 l 200 133 l 200 175 l 258 175 l 258 50 l 325 50 l 325 217 l 367 217 l 367 242 l 200 242 l 200 300 l 283 300 l 283 342 l 383 342 l 383 300 l 450 300 l 450 333 l 467 333 l 467 283 l 367 283 l 367 325 l 300 325 l 300 283 l 217 283 l 217 258 l 383 258 l 383 200 l 342 200 l 342 33 l 242 33 l 242 158 l 217 158 l 217 117 l 50 117 l 50 75 l 8 75 l 8 8 l 33 8 l 33 50 l 75 50 l 75 92 l 133 92 l 133 50 l 217 50 l 217 -8 l 83 -8 l 83 8 l 200 8 l 200 33 l 117 33 l 117 75 l 92 75 l 92 33 l 50 33 l 50 -8 l -8 -8 m 908 167 l 908 333 l 925 333 l 925 167 l 908 167 m 617 200 l 617 258 l 658 258 l 658 292 l 675 292 l 675 242 l 633 242 l 633 217 l 667 217 l 667 200 l 617 200 m 408 117 l 408 167 l 425 167 l 425 133 l 450 133 l 450 242 l 425 242 l 425 208 l 408 208 l 408 258 l 467 258 l 467 117 l 408 117 m 208 200 l 208 217 l 250 217 l 250 200 l 208 200 m 792 -8 l 792 8 l 825 8 l 825 208 l 842 208 l 842 -8 l 792 -8 m 867 167 l 867 208 l 883 208 l 883 167 l 867 167 m 950 167 l 950 208 l 967 208 l 967 167 l 950 167 m 283 83 l 283 208 l 300 208 l 300 83 l 283 83 m 667 158 l 667 175 l 708 175 l 708 158 l 667 158 m 367 125 l 367 167 l 383 167 l 383 125 l 367 125 m 658 83 l 658 117 l 617 117 l 617 167 l 633 167 l 633 133 l 675 133 l 675 83 l 658 83 m 708 117 l 708 133 l 750 133 l 750 117 l 708 117 m 950 -8 l 950 33 l 875 33 l 875 50 l 967 50 l 967 8 l 992 8 l 992 117 l 883 117 l 883 92 l 958 92 l 958 75 l 867 75 l 867 133 l 1008 133 l 1008 -8 l 950 -8 m 167 75 l 167 92 l 208 92 l 208 75 l 167 75 m 700 -8 l 700 92 l 800 92 l 800 42 l 783 42 l 783 75 l 717 75 l 717 8 l 742 8 l 742 42 l 758 42 l 758 -8 l 700 -8 m 250 -8 l 250 8 l 292 8 l 292 -8 l 250 -8 m 875 -8 l 875 8 l 917 8 l 917 -8 l 875 -8 m 574 1033 l 574 1242 l 549 1242 l 549 1075 l 490 1075 l 490 1117 l 415 1117 l 415 1133 l 507 1133 l 507 1092 l 532 1092 l 532 1258 l 590 1258 l 590 1050 l 615 1050 l 615 1125 l 632 1125 l 632 1033 l 574 1033 m 657 1117 l 657 1158 l 615 1158 l 615 1258 l 674 1258 l 674 1208 l 657 1208 l 657 1242 l 632 1242 l 632 1175 l 674 1175 l 674 1133 l 699 1133 l 699 1175 l 740 1175 l 740 1217 l 824 1217 l 824 1242 l 715 1242 l 715 1208 l 699 1208 l 699 1258 l 840 1258 l 840 1200 l 757 1200 l 757 1158 l 715 1158 l 715 1117 l 657 1117 m 457 1158 l 457 1175 l 490 1175 l 490 1208 l 507 1208 l 507 1158 l 457 1158 m 374 1033 l 374 1050 l 407 1050 l 407 1075 l 374 1075 l 374 1092 l 424 1092 l 424 1033 l 374 1033 m 449 1033 l 449 1083 l 465 1083 l 465 1050 l 540 1050 l 540 1033 l 449 1033 z "},"":{"ha":1049,"x_min":-8,"x_max":1008,"o":"m 33 158 l 33 217 l 133 217 l 133 175 l 158 175 l 158 242 l 75 242 l 75 342 l 133 342 l 133 300 l 158 300 l 158 342 l 200 342 l 200 425 l 283 425 l 283 467 l 325 467 l 325 592 l 367 592 l 367 633 l 408 633 l 408 783 l 367 783 l 367 825 l 325 825 l 325 883 l 408 883 l 408 967 l 467 967 l 467 925 l 533 925 l 533 967 l 625 967 l 625 950 l 550 950 l 550 908 l 450 908 l 450 950 l 425 950 l 425 867 l 342 867 l 342 842 l 383 842 l 383 800 l 425 800 l 425 617 l 383 617 l 383 575 l 342 575 l 342 450 l 300 450 l 300 408 l 217 408 l 217 325 l 175 325 l 175 283 l 117 283 l 117 325 l 92 325 l 92 258 l 175 258 l 175 158 l 117 158 l 117 200 l 50 200 l 50 175 l 83 175 l 83 158 l 33 158 m 325 908 l 325 967 l 375 967 l 375 950 l 342 950 l 342 925 l 375 925 l 375 908 l 325 908 m 700 875 l 700 908 l 658 908 l 658 958 l 675 958 l 675 925 l 717 925 l 717 875 l 700 875 m 408 492 l 408 550 l 450 550 l 450 675 l 492 675 l 492 700 l 450 700 l 450 758 l 533 758 l 533 883 l 575 883 l 575 925 l 625 925 l 625 908 l 592 908 l 592 867 l 550 867 l 550 742 l 467 742 l 467 717 l 508 717 l 508 658 l 467 658 l 467 533 l 425 533 l 425 508 l 458 508 l 458 492 l 408 492 m 117 408 l 117 458 l 133 458 l 133 425 l 158 425 l 158 467 l 200 467 l 200 533 l 158 533 l 158 592 l 283 592 l 283 675 l 367 675 l 367 700 l 283 700 l 283 917 l 300 917 l 300 717 l 383 717 l 383 658 l 300 658 l 300 575 l 175 575 l 175 550 l 217 550 l 217 450 l 175 450 l 175 408 l 117 408 m 575 783 l 575 842 l 617 842 l 617 883 l 667 883 l 667 867 l 633 867 l 633 825 l 592 825 l 592 800 l 658 800 l 658 842 l 750 842 l 750 825 l 675 825 l 675 783 l 575 783 m 450 783 l 450 875 l 467 875 l 467 800 l 492 800 l 492 875 l 508 875 l 508 783 l 450 783 m 783 375 l 783 408 l 742 408 l 742 508 l 825 508 l 825 575 l 783 575 l 783 617 l 758 617 l 758 533 l 717 533 l 717 450 l 658 450 l 658 533 l 617 533 l 617 717 l 700 717 l 700 800 l 758 800 l 758 717 l 800 717 l 800 658 l 717 658 l 717 617 l 675 617 l 675 592 l 708 592 l 708 575 l 658 575 l 658 633 l 700 633 l 700 675 l 783 675 l 783 700 l 742 700 l 742 783 l 717 783 l 717 700 l 633 700 l 633 550 l 675 550 l 675 467 l 700 467 l 700 550 l 742 550 l 742 633 l 800 633 l 800 592 l 842 592 l 842 492 l 758 492 l 758 425 l 800 425 l 800 375 l 783 375 m 325 742 l 325 792 l 342 792 l 342 758 l 375 758 l 375 742 l 325 742 m 200 617 l 200 675 l 242 675 l 242 792 l 258 792 l 258 658 l 217 658 l 217 633 l 250 633 l 250 617 l 200 617 m 583 742 l 583 758 l 667 758 l 667 742 l 583 742 m 533 658 l 533 717 l 583 717 l 583 700 l 550 700 l 550 675 l 583 675 l 583 658 l 533 658 m 575 408 l 575 458 l 592 458 l 592 425 l 617 425 l 617 492 l 575 492 l 575 617 l 542 617 l 542 633 l 592 633 l 592 508 l 633 508 l 633 408 l 575 408 m 533 500 l 533 583 l 550 583 l 550 500 l 533 500 m 242 492 l 242 550 l 292 550 l 292 533 l 258 533 l 258 508 l 292 508 l 292 492 l 242 492 m 367 450 l 367 542 l 383 542 l 383 467 l 458 467 l 458 450 l 367 450 m 825 367 l 825 425 l 867 425 l 867 450 l 792 450 l 792 467 l 883 467 l 883 408 l 842 408 l 842 383 l 875 383 l 875 367 l 825 367 m 242 333 l 242 383 l 325 383 l 325 425 l 375 425 l 375 408 l 342 408 l 342 367 l 258 367 l 258 333 l 242 333 m 700 375 l 700 408 l 667 408 l 667 425 l 717 425 l 717 375 l 700 375 m 408 333 l 408 417 l 425 417 l 425 333 l 408 333 m 125 367 l 125 383 l 167 383 l 167 367 l 125 367 m 492 117 l 492 258 l 533 258 l 533 367 l 508 367 l 508 292 l 492 292 l 492 383 l 550 383 l 550 242 l 508 242 l 508 133 l 575 133 l 575 158 l 533 158 l 533 217 l 575 217 l 575 300 l 617 300 l 617 325 l 575 325 l 575 383 l 675 383 l 675 342 l 717 342 l 717 217 l 758 217 l 758 175 l 783 175 l 783 283 l 758 283 l 758 250 l 742 250 l 742 300 l 800 300 l 800 158 l 742 158 l 742 200 l 700 200 l 700 325 l 658 325 l 658 367 l 592 367 l 592 342 l 633 342 l 633 283 l 592 283 l 592 200 l 550 200 l 550 175 l 592 175 l 592 117 l 492 117 m 825 242 l 825 292 l 842 292 l 842 258 l 867 258 l 867 325 l 742 325 l 742 375 l 758 375 l 758 342 l 883 342 l 883 242 l 825 242 m -8 -8 l -8 92 l 33 92 l 33 133 l 200 133 l 200 175 l 258 175 l 258 50 l 325 50 l 325 217 l 367 217 l 367 242 l 200 242 l 200 300 l 283 300 l 283 342 l 383 342 l 383 300 l 450 300 l 450 333 l 467 333 l 467 283 l 367 283 l 367 325 l 300 325 l 300 283 l 217 283 l 217 258 l 383 258 l 383 200 l 342 200 l 342 33 l 242 33 l 242 158 l 217 158 l 217 117 l 50 117 l 50 75 l 8 75 l 8 8 l 33 8 l 33 50 l 75 50 l 75 92 l 133 92 l 133 50 l 217 50 l 217 -8 l 83 -8 l 83 8 l 200 8 l 200 33 l 117 33 l 117 75 l 92 75 l 92 33 l 50 33 l 50 -8 l -8 -8 m 908 167 l 908 333 l 925 333 l 925 167 l 908 167 m 617 200 l 617 258 l 658 258 l 658 292 l 675 292 l 675 242 l 633 242 l 633 217 l 667 217 l 667 200 l 617 200 m 408 117 l 408 167 l 425 167 l 425 133 l 450 133 l 450 242 l 425 242 l 425 208 l 408 208 l 408 258 l 467 258 l 467 117 l 408 117 m 208 200 l 208 217 l 250 217 l 250 200 l 208 200 m 792 -8 l 792 8 l 825 8 l 825 208 l 842 208 l 842 -8 l 792 -8 m 867 167 l 867 208 l 883 208 l 883 167 l 867 167 m 950 167 l 950 208 l 967 208 l 967 167 l 950 167 m 283 83 l 283 208 l 300 208 l 300 83 l 283 83 m 667 158 l 667 175 l 708 175 l 708 158 l 667 158 m 367 125 l 367 167 l 383 167 l 383 125 l 367 125 m 658 83 l 658 117 l 617 117 l 617 167 l 633 167 l 633 133 l 675 133 l 675 83 l 658 83 m 708 117 l 708 133 l 750 133 l 750 117 l 708 117 m 950 -8 l 950 33 l 875 33 l 875 50 l 967 50 l 967 8 l 992 8 l 992 117 l 883 117 l 883 92 l 958 92 l 958 75 l 867 75 l 867 133 l 1008 133 l 1008 -8 l 950 -8 m 167 75 l 167 92 l 208 92 l 208 75 l 167 75 m 700 -8 l 700 92 l 800 92 l 800 42 l 783 42 l 783 75 l 717 75 l 717 8 l 742 8 l 742 42 l 758 42 l 758 -8 l 700 -8 m 250 -8 l 250 8 l 292 8 l 292 -8 l 250 -8 m 875 -8 l 875 8 l 917 8 l 917 -8 l 875 -8 m 271 1160 l 271 1251 l 454 1251 l 454 1193 l 363 1193 l 363 1210 l 438 1210 l 438 1235 l 288 1235 l 288 1160 l 271 1160 m 563 1193 l 563 1251 l 696 1251 l 696 1235 l 579 1235 l 579 1210 l 613 1210 l 613 1193 l 563 1193 m 396 1026 l 396 1068 l 313 1068 l 313 1201 l 329 1201 l 329 1085 l 413 1085 l 413 1043 l 521 1043 l 521 1126 l 579 1126 l 579 1043 l 604 1043 l 604 1085 l 646 1085 l 646 1126 l 688 1126 l 688 1168 l 729 1168 l 729 1193 l 663 1193 l 663 1151 l 621 1151 l 621 1118 l 604 1118 l 604 1168 l 646 1168 l 646 1210 l 746 1210 l 746 1151 l 704 1151 l 704 1110 l 663 1110 l 663 1068 l 621 1068 l 621 1026 l 563 1026 l 563 1110 l 538 1110 l 538 1026 l 396 1026 m 438 1068 l 438 1110 l 354 1110 l 354 1168 l 446 1168 l 446 1151 l 371 1151 l 371 1126 l 454 1126 l 454 1085 l 479 1085 l 479 1118 l 496 1118 l 496 1068 l 438 1068 m 529 1151 l 529 1168 l 571 1168 l 571 1151 l 529 1151 z "},"":{"ha":1049,"x_min":-8,"x_max":1008,"o":"m 33 158 l 33 217 l 133 217 l 133 175 l 158 175 l 158 242 l 75 242 l 75 342 l 133 342 l 133 300 l 158 300 l 158 342 l 200 342 l 200 425 l 283 425 l 283 467 l 325 467 l 325 592 l 367 592 l 367 633 l 408 633 l 408 783 l 367 783 l 367 825 l 325 825 l 325 883 l 408 883 l 408 967 l 467 967 l 467 925 l 533 925 l 533 967 l 625 967 l 625 950 l 550 950 l 550 908 l 450 908 l 450 950 l 425 950 l 425 867 l 342 867 l 342 842 l 383 842 l 383 800 l 425 800 l 425 617 l 383 617 l 383 575 l 342 575 l 342 450 l 300 450 l 300 408 l 217 408 l 217 325 l 175 325 l 175 283 l 117 283 l 117 325 l 92 325 l 92 258 l 175 258 l 175 158 l 117 158 l 117 200 l 50 200 l 50 175 l 83 175 l 83 158 l 33 158 m 325 908 l 325 967 l 375 967 l 375 950 l 342 950 l 342 925 l 375 925 l 375 908 l 325 908 m 700 875 l 700 908 l 658 908 l 658 958 l 675 958 l 675 925 l 717 925 l 717 875 l 700 875 m 408 492 l 408 550 l 450 550 l 450 675 l 492 675 l 492 700 l 450 700 l 450 758 l 533 758 l 533 883 l 575 883 l 575 925 l 625 925 l 625 908 l 592 908 l 592 867 l 550 867 l 550 742 l 467 742 l 467 717 l 508 717 l 508 658 l 467 658 l 467 533 l 425 533 l 425 508 l 458 508 l 458 492 l 408 492 m 117 408 l 117 458 l 133 458 l 133 425 l 158 425 l 158 467 l 200 467 l 200 533 l 158 533 l 158 592 l 283 592 l 283 675 l 367 675 l 367 700 l 283 700 l 283 917 l 300 917 l 300 717 l 383 717 l 383 658 l 300 658 l 300 575 l 175 575 l 175 550 l 217 550 l 217 450 l 175 450 l 175 408 l 117 408 m 575 783 l 575 842 l 617 842 l 617 883 l 667 883 l 667 867 l 633 867 l 633 825 l 592 825 l 592 800 l 658 800 l 658 842 l 750 842 l 750 825 l 675 825 l 675 783 l 575 783 m 450 783 l 450 875 l 467 875 l 467 800 l 492 800 l 492 875 l 508 875 l 508 783 l 450 783 m 783 375 l 783 408 l 742 408 l 742 508 l 825 508 l 825 575 l 783 575 l 783 617 l 758 617 l 758 533 l 717 533 l 717 450 l 658 450 l 658 533 l 617 533 l 617 717 l 700 717 l 700 800 l 758 800 l 758 717 l 800 717 l 800 658 l 717 658 l 717 617 l 675 617 l 675 592 l 708 592 l 708 575 l 658 575 l 658 633 l 700 633 l 700 675 l 783 675 l 783 700 l 742 700 l 742 783 l 717 783 l 717 700 l 633 700 l 633 550 l 675 550 l 675 467 l 700 467 l 700 550 l 742 550 l 742 633 l 800 633 l 800 592 l 842 592 l 842 492 l 758 492 l 758 425 l 800 425 l 800 375 l 783 375 m 325 742 l 325 792 l 342 792 l 342 758 l 375 758 l 375 742 l 325 742 m 200 617 l 200 675 l 242 675 l 242 792 l 258 792 l 258 658 l 217 658 l 217 633 l 250 633 l 250 617 l 200 617 m 583 742 l 583 758 l 667 758 l 667 742 l 583 742 m 533 658 l 533 717 l 583 717 l 583 700 l 550 700 l 550 675 l 583 675 l 583 658 l 533 658 m 575 408 l 575 458 l 592 458 l 592 425 l 617 425 l 617 492 l 575 492 l 575 617 l 542 617 l 542 633 l 592 633 l 592 508 l 633 508 l 633 408 l 575 408 m 533 500 l 533 583 l 550 583 l 550 500 l 533 500 m 242 492 l 242 550 l 292 550 l 292 533 l 258 533 l 258 508 l 292 508 l 292 492 l 242 492 m 367 450 l 367 542 l 383 542 l 383 467 l 458 467 l 458 450 l 367 450 m 825 367 l 825 425 l 867 425 l 867 450 l 792 450 l 792 467 l 883 467 l 883 408 l 842 408 l 842 383 l 875 383 l 875 367 l 825 367 m 242 333 l 242 383 l 325 383 l 325 425 l 375 425 l 375 408 l 342 408 l 342 367 l 258 367 l 258 333 l 242 333 m 700 375 l 700 408 l 667 408 l 667 425 l 717 425 l 717 375 l 700 375 m 408 333 l 408 417 l 425 417 l 425 333 l 408 333 m 125 367 l 125 383 l 167 383 l 167 367 l 125 367 m 492 117 l 492 258 l 533 258 l 533 367 l 508 367 l 508 292 l 492 292 l 492 383 l 550 383 l 550 242 l 508 242 l 508 133 l 575 133 l 575 158 l 533 158 l 533 217 l 575 217 l 575 300 l 617 300 l 617 325 l 575 325 l 575 383 l 675 383 l 675 342 l 717 342 l 717 217 l 758 217 l 758 175 l 783 175 l 783 283 l 758 283 l 758 250 l 742 250 l 742 300 l 800 300 l 800 158 l 742 158 l 742 200 l 700 200 l 700 325 l 658 325 l 658 367 l 592 367 l 592 342 l 633 342 l 633 283 l 592 283 l 592 200 l 550 200 l 550 175 l 592 175 l 592 117 l 492 117 m 825 242 l 825 292 l 842 292 l 842 258 l 867 258 l 867 325 l 742 325 l 742 375 l 758 375 l 758 342 l 883 342 l 883 242 l 825 242 m -8 -8 l -8 92 l 33 92 l 33 133 l 200 133 l 200 175 l 258 175 l 258 50 l 325 50 l 325 217 l 367 217 l 367 242 l 200 242 l 200 300 l 283 300 l 283 342 l 383 342 l 383 300 l 450 300 l 450 333 l 467 333 l 467 283 l 367 283 l 367 325 l 300 325 l 300 283 l 217 283 l 217 258 l 383 258 l 383 200 l 342 200 l 342 33 l 242 33 l 242 158 l 217 158 l 217 117 l 50 117 l 50 75 l 8 75 l 8 8 l 33 8 l 33 50 l 75 50 l 75 92 l 133 92 l 133 50 l 217 50 l 217 -8 l 83 -8 l 83 8 l 200 8 l 200 33 l 117 33 l 117 75 l 92 75 l 92 33 l 50 33 l 50 -8 l -8 -8 m 908 167 l 908 333 l 925 333 l 925 167 l 908 167 m 617 200 l 617 258 l 658 258 l 658 292 l 675 292 l 675 242 l 633 242 l 633 217 l 667 217 l 667 200 l 617 200 m 408 117 l 408 167 l 425 167 l 425 133 l 450 133 l 450 242 l 425 242 l 425 208 l 408 208 l 408 258 l 467 258 l 467 117 l 408 117 m 208 200 l 208 217 l 250 217 l 250 200 l 208 200 m 792 -8 l 792 8 l 825 8 l 825 208 l 842 208 l 842 -8 l 792 -8 m 867 167 l 867 208 l 883 208 l 883 167 l 867 167 m 950 167 l 950 208 l 967 208 l 967 167 l 950 167 m 283 83 l 283 208 l 300 208 l 300 83 l 283 83 m 667 158 l 667 175 l 708 175 l 708 158 l 667 158 m 367 125 l 367 167 l 383 167 l 383 125 l 367 125 m 658 83 l 658 117 l 617 117 l 617 167 l 633 167 l 633 133 l 675 133 l 675 83 l 658 83 m 708 117 l 708 133 l 750 133 l 750 117 l 708 117 m 950 -8 l 950 33 l 875 33 l 875 50 l 967 50 l 967 8 l 992 8 l 992 117 l 883 117 l 883 92 l 958 92 l 958 75 l 867 75 l 867 133 l 1008 133 l 1008 -8 l 950 -8 m 167 75 l 167 92 l 208 92 l 208 75 l 167 75 m 700 -8 l 700 92 l 800 92 l 800 42 l 783 42 l 783 75 l 717 75 l 717 8 l 742 8 l 742 42 l 758 42 l 758 -8 l 700 -8 m 250 -8 l 250 8 l 292 8 l 292 -8 l 250 -8 m 875 -8 l 875 8 l 917 8 l 917 -8 l 875 -8 m 588 1125 l 588 1200 l 504 1200 l 504 1242 l 396 1242 l 396 1158 l 338 1158 l 338 1208 l 354 1208 l 354 1175 l 379 1175 l 379 1258 l 521 1258 l 521 1217 l 604 1217 l 604 1125 l 588 1125 m 554 1242 l 554 1258 l 596 1258 l 596 1242 l 554 1242 m 379 1083 l 379 1133 l 421 1133 l 421 1217 l 471 1217 l 471 1200 l 438 1200 l 438 1117 l 396 1117 l 396 1083 l 379 1083 m 629 1167 l 629 1208 l 646 1208 l 646 1167 l 629 1167 m 546 1075 l 546 1117 l 463 1117 l 463 1175 l 554 1175 l 554 1158 l 479 1158 l 479 1133 l 563 1133 l 563 1092 l 596 1092 l 596 1075 l 546 1075 m 221 1033 l 221 1050 l 296 1050 l 296 1117 l 271 1117 l 271 1083 l 254 1083 l 254 1133 l 313 1133 l 313 1033 l 221 1033 m 713 1033 l 713 1117 l 638 1117 l 638 1133 l 729 1133 l 729 1050 l 804 1050 l 804 1033 l 713 1033 m 338 1033 l 338 1125 l 354 1125 l 354 1050 l 388 1050 l 388 1033 l 338 1033 m 429 1075 l 429 1092 l 471 1092 l 471 1075 l 429 1075 m 638 1033 l 638 1050 l 671 1050 l 671 1075 l 638 1075 l 638 1092 l 688 1092 l 688 1033 l 638 1033 z "},"":{"ha":1049,"x_min":-8,"x_max":1008,"o":"m 33 158 l 33 217 l 133 217 l 133 175 l 158 175 l 158 242 l 75 242 l 75 342 l 133 342 l 133 300 l 158 300 l 158 342 l 200 342 l 200 425 l 283 425 l 283 467 l 325 467 l 325 592 l 367 592 l 367 633 l 408 633 l 408 783 l 367 783 l 367 825 l 325 825 l 325 883 l 408 883 l 408 967 l 467 967 l 467 925 l 533 925 l 533 967 l 625 967 l 625 950 l 550 950 l 550 908 l 450 908 l 450 950 l 425 950 l 425 867 l 342 867 l 342 842 l 383 842 l 383 800 l 425 800 l 425 617 l 383 617 l 383 575 l 342 575 l 342 450 l 300 450 l 300 408 l 217 408 l 217 325 l 175 325 l 175 283 l 117 283 l 117 325 l 92 325 l 92 258 l 175 258 l 175 158 l 117 158 l 117 200 l 50 200 l 50 175 l 83 175 l 83 158 l 33 158 m 325 908 l 325 967 l 375 967 l 375 950 l 342 950 l 342 925 l 375 925 l 375 908 l 325 908 m 700 875 l 700 908 l 658 908 l 658 958 l 675 958 l 675 925 l 717 925 l 717 875 l 700 875 m 408 492 l 408 550 l 450 550 l 450 675 l 492 675 l 492 700 l 450 700 l 450 758 l 533 758 l 533 883 l 575 883 l 575 925 l 625 925 l 625 908 l 592 908 l 592 867 l 550 867 l 550 742 l 467 742 l 467 717 l 508 717 l 508 658 l 467 658 l 467 533 l 425 533 l 425 508 l 458 508 l 458 492 l 408 492 m 117 408 l 117 458 l 133 458 l 133 425 l 158 425 l 158 467 l 200 467 l 200 533 l 158 533 l 158 592 l 283 592 l 283 675 l 367 675 l 367 700 l 283 700 l 283 917 l 300 917 l 300 717 l 383 717 l 383 658 l 300 658 l 300 575 l 175 575 l 175 550 l 217 550 l 217 450 l 175 450 l 175 408 l 117 408 m 575 783 l 575 842 l 617 842 l 617 883 l 667 883 l 667 867 l 633 867 l 633 825 l 592 825 l 592 800 l 658 800 l 658 842 l 750 842 l 750 825 l 675 825 l 675 783 l 575 783 m 450 783 l 450 875 l 467 875 l 467 800 l 492 800 l 492 875 l 508 875 l 508 783 l 450 783 m 783 375 l 783 408 l 742 408 l 742 508 l 825 508 l 825 575 l 783 575 l 783 617 l 758 617 l 758 533 l 717 533 l 717 450 l 658 450 l 658 533 l 617 533 l 617 717 l 700 717 l 700 800 l 758 800 l 758 717 l 800 717 l 800 658 l 717 658 l 717 617 l 675 617 l 675 592 l 708 592 l 708 575 l 658 575 l 658 633 l 700 633 l 700 675 l 783 675 l 783 700 l 742 700 l 742 783 l 717 783 l 717 700 l 633 700 l 633 550 l 675 550 l 675 467 l 700 467 l 700 550 l 742 550 l 742 633 l 800 633 l 800 592 l 842 592 l 842 492 l 758 492 l 758 425 l 800 425 l 800 375 l 783 375 m 325 742 l 325 792 l 342 792 l 342 758 l 375 758 l 375 742 l 325 742 m 200 617 l 200 675 l 242 675 l 242 792 l 258 792 l 258 658 l 217 658 l 217 633 l 250 633 l 250 617 l 200 617 m 583 742 l 583 758 l 667 758 l 667 742 l 583 742 m 533 658 l 533 717 l 583 717 l 583 700 l 550 700 l 550 675 l 583 675 l 583 658 l 533 658 m 575 408 l 575 458 l 592 458 l 592 425 l 617 425 l 617 492 l 575 492 l 575 617 l 542 617 l 542 633 l 592 633 l 592 508 l 633 508 l 633 408 l 575 408 m 533 500 l 533 583 l 550 583 l 550 500 l 533 500 m 242 492 l 242 550 l 292 550 l 292 533 l 258 533 l 258 508 l 292 508 l 292 492 l 242 492 m 367 450 l 367 542 l 383 542 l 383 467 l 458 467 l 458 450 l 367 450 m 825 367 l 825 425 l 867 425 l 867 450 l 792 450 l 792 467 l 883 467 l 883 408 l 842 408 l 842 383 l 875 383 l 875 367 l 825 367 m 242 333 l 242 383 l 325 383 l 325 425 l 375 425 l 375 408 l 342 408 l 342 367 l 258 367 l 258 333 l 242 333 m 700 375 l 700 408 l 667 408 l 667 425 l 717 425 l 717 375 l 700 375 m 408 333 l 408 417 l 425 417 l 425 333 l 408 333 m 125 367 l 125 383 l 167 383 l 167 367 l 125 367 m 492 117 l 492 258 l 533 258 l 533 367 l 508 367 l 508 292 l 492 292 l 492 383 l 550 383 l 550 242 l 508 242 l 508 133 l 575 133 l 575 158 l 533 158 l 533 217 l 575 217 l 575 300 l 617 300 l 617 325 l 575 325 l 575 383 l 675 383 l 675 342 l 717 342 l 717 217 l 758 217 l 758 175 l 783 175 l 783 283 l 758 283 l 758 250 l 742 250 l 742 300 l 800 300 l 800 158 l 742 158 l 742 200 l 700 200 l 700 325 l 658 325 l 658 367 l 592 367 l 592 342 l 633 342 l 633 283 l 592 283 l 592 200 l 550 200 l 550 175 l 592 175 l 592 117 l 492 117 m 825 242 l 825 292 l 842 292 l 842 258 l 867 258 l 867 325 l 742 325 l 742 375 l 758 375 l 758 342 l 883 342 l 883 242 l 825 242 m -8 -8 l -8 92 l 33 92 l 33 133 l 200 133 l 200 175 l 258 175 l 258 50 l 325 50 l 325 217 l 367 217 l 367 242 l 200 242 l 200 300 l 283 300 l 283 342 l 383 342 l 383 300 l 450 300 l 450 333 l 467 333 l 467 283 l 367 283 l 367 325 l 300 325 l 300 283 l 217 283 l 217 258 l 383 258 l 383 200 l 342 200 l 342 33 l 242 33 l 242 158 l 217 158 l 217 117 l 50 117 l 50 75 l 8 75 l 8 8 l 33 8 l 33 50 l 75 50 l 75 92 l 133 92 l 133 50 l 217 50 l 217 -8 l 83 -8 l 83 8 l 200 8 l 200 33 l 117 33 l 117 75 l 92 75 l 92 33 l 50 33 l 50 -8 l -8 -8 m 908 167 l 908 333 l 925 333 l 925 167 l 908 167 m 617 200 l 617 258 l 658 258 l 658 292 l 675 292 l 675 242 l 633 242 l 633 217 l 667 217 l 667 200 l 617 200 m 408 117 l 408 167 l 425 167 l 425 133 l 450 133 l 450 242 l 425 242 l 425 208 l 408 208 l 408 258 l 467 258 l 467 117 l 408 117 m 208 200 l 208 217 l 250 217 l 250 200 l 208 200 m 792 -8 l 792 8 l 825 8 l 825 208 l 842 208 l 842 -8 l 792 -8 m 867 167 l 867 208 l 883 208 l 883 167 l 867 167 m 950 167 l 950 208 l 967 208 l 967 167 l 950 167 m 283 83 l 283 208 l 300 208 l 300 83 l 283 83 m 667 158 l 667 175 l 708 175 l 708 158 l 667 158 m 367 125 l 367 167 l 383 167 l 383 125 l 367 125 m 658 83 l 658 117 l 617 117 l 617 167 l 633 167 l 633 133 l 675 133 l 675 83 l 658 83 m 708 117 l 708 133 l 750 133 l 750 117 l 708 117 m 950 -8 l 950 33 l 875 33 l 875 50 l 967 50 l 967 8 l 992 8 l 992 117 l 883 117 l 883 92 l 958 92 l 958 75 l 867 75 l 867 133 l 1008 133 l 1008 -8 l 950 -8 m 167 75 l 167 92 l 208 92 l 208 75 l 167 75 m 700 -8 l 700 92 l 800 92 l 800 42 l 783 42 l 783 75 l 717 75 l 717 8 l 742 8 l 742 42 l 758 42 l 758 -8 l 700 -8 m 250 -8 l 250 8 l 292 8 l 292 -8 l 250 -8 m 875 -8 l 875 8 l 917 8 l 917 -8 l 875 -8 m 336 1075 l 336 1117 l 253 1117 l 253 1158 l 228 1158 l 228 1125 l 211 1125 l 211 1175 l 269 1175 l 269 1133 l 353 1133 l 353 1092 l 419 1092 l 419 1242 l 228 1242 l 228 1217 l 311 1217 l 311 1175 l 394 1175 l 394 1125 l 378 1125 l 378 1158 l 294 1158 l 294 1200 l 211 1200 l 211 1258 l 436 1258 l 436 1075 l 336 1075 m 711 1033 l 711 1075 l 628 1075 l 628 1258 l 686 1258 l 686 1133 l 769 1133 l 769 1092 l 794 1092 l 794 1158 l 711 1158 l 711 1217 l 803 1217 l 803 1200 l 728 1200 l 728 1175 l 811 1175 l 811 1075 l 753 1075 l 753 1117 l 669 1117 l 669 1242 l 644 1242 l 644 1092 l 728 1092 l 728 1050 l 803 1050 l 803 1033 l 711 1033 m 719 1242 l 719 1258 l 761 1258 l 761 1242 l 719 1242 m 586 1208 l 586 1250 l 603 1250 l 603 1208 l 586 1208 m 344 1200 l 344 1217 l 386 1217 l 386 1200 l 344 1200 m 586 1033 l 586 1167 l 603 1167 l 603 1050 l 678 1050 l 678 1033 l 586 1033 m 294 1033 l 294 1075 l 219 1075 l 219 1092 l 311 1092 l 311 1050 l 428 1050 l 428 1033 l 294 1033 m 219 1033 l 219 1050 l 261 1050 l 261 1033 l 219 1033 z "},"":{"ha":1049,"x_min":-8,"x_max":1008,"o":"m 33 158 l 33 217 l 133 217 l 133 175 l 158 175 l 158 242 l 75 242 l 75 342 l 133 342 l 133 300 l 158 300 l 158 342 l 200 342 l 200 425 l 283 425 l 283 467 l 325 467 l 325 592 l 367 592 l 367 633 l 408 633 l 408 783 l 367 783 l 367 825 l 325 825 l 325 883 l 408 883 l 408 967 l 467 967 l 467 925 l 533 925 l 533 967 l 625 967 l 625 950 l 550 950 l 550 908 l 450 908 l 450 950 l 425 950 l 425 867 l 342 867 l 342 842 l 383 842 l 383 800 l 425 800 l 425 617 l 383 617 l 383 575 l 342 575 l 342 450 l 300 450 l 300 408 l 217 408 l 217 325 l 175 325 l 175 283 l 117 283 l 117 325 l 92 325 l 92 258 l 175 258 l 175 158 l 117 158 l 117 200 l 50 200 l 50 175 l 83 175 l 83 158 l 33 158 m 325 908 l 325 967 l 375 967 l 375 950 l 342 950 l 342 925 l 375 925 l 375 908 l 325 908 m 700 875 l 700 908 l 658 908 l 658 958 l 675 958 l 675 925 l 717 925 l 717 875 l 700 875 m 408 492 l 408 550 l 450 550 l 450 675 l 492 675 l 492 700 l 450 700 l 450 758 l 533 758 l 533 883 l 575 883 l 575 925 l 625 925 l 625 908 l 592 908 l 592 867 l 550 867 l 550 742 l 467 742 l 467 717 l 508 717 l 508 658 l 467 658 l 467 533 l 425 533 l 425 508 l 458 508 l 458 492 l 408 492 m 117 408 l 117 458 l 133 458 l 133 425 l 158 425 l 158 467 l 200 467 l 200 533 l 158 533 l 158 592 l 283 592 l 283 675 l 367 675 l 367 700 l 283 700 l 283 917 l 300 917 l 300 717 l 383 717 l 383 658 l 300 658 l 300 575 l 175 575 l 175 550 l 217 550 l 217 450 l 175 450 l 175 408 l 117 408 m 575 783 l 575 842 l 617 842 l 617 883 l 667 883 l 667 867 l 633 867 l 633 825 l 592 825 l 592 800 l 658 800 l 658 842 l 750 842 l 750 825 l 675 825 l 675 783 l 575 783 m 450 783 l 450 875 l 467 875 l 467 800 l 492 800 l 492 875 l 508 875 l 508 783 l 450 783 m 783 375 l 783 408 l 742 408 l 742 508 l 825 508 l 825 575 l 783 575 l 783 617 l 758 617 l 758 533 l 717 533 l 717 450 l 658 450 l 658 533 l 617 533 l 617 717 l 700 717 l 700 800 l 758 800 l 758 717 l 800 717 l 800 658 l 717 658 l 717 617 l 675 617 l 675 592 l 708 592 l 708 575 l 658 575 l 658 633 l 700 633 l 700 675 l 783 675 l 783 700 l 742 700 l 742 783 l 717 783 l 717 700 l 633 700 l 633 550 l 675 550 l 675 467 l 700 467 l 700 550 l 742 550 l 742 633 l 800 633 l 800 592 l 842 592 l 842 492 l 758 492 l 758 425 l 800 425 l 800 375 l 783 375 m 325 742 l 325 792 l 342 792 l 342 758 l 375 758 l 375 742 l 325 742 m 200 617 l 200 675 l 242 675 l 242 792 l 258 792 l 258 658 l 217 658 l 217 633 l 250 633 l 250 617 l 200 617 m 583 742 l 583 758 l 667 758 l 667 742 l 583 742 m 533 658 l 533 717 l 583 717 l 583 700 l 550 700 l 550 675 l 583 675 l 583 658 l 533 658 m 575 408 l 575 458 l 592 458 l 592 425 l 617 425 l 617 492 l 575 492 l 575 617 l 542 617 l 542 633 l 592 633 l 592 508 l 633 508 l 633 408 l 575 408 m 533 500 l 533 583 l 550 583 l 550 500 l 533 500 m 242 492 l 242 550 l 292 550 l 292 533 l 258 533 l 258 508 l 292 508 l 292 492 l 242 492 m 367 450 l 367 542 l 383 542 l 383 467 l 458 467 l 458 450 l 367 450 m 825 367 l 825 425 l 867 425 l 867 450 l 792 450 l 792 467 l 883 467 l 883 408 l 842 408 l 842 383 l 875 383 l 875 367 l 825 367 m 242 333 l 242 383 l 325 383 l 325 425 l 375 425 l 375 408 l 342 408 l 342 367 l 258 367 l 258 333 l 242 333 m 700 375 l 700 408 l 667 408 l 667 425 l 717 425 l 717 375 l 700 375 m 408 333 l 408 417 l 425 417 l 425 333 l 408 333 m 125 367 l 125 383 l 167 383 l 167 367 l 125 367 m 492 117 l 492 258 l 533 258 l 533 367 l 508 367 l 508 292 l 492 292 l 492 383 l 550 383 l 550 242 l 508 242 l 508 133 l 575 133 l 575 158 l 533 158 l 533 217 l 575 217 l 575 300 l 617 300 l 617 325 l 575 325 l 575 383 l 675 383 l 675 342 l 717 342 l 717 217 l 758 217 l 758 175 l 783 175 l 783 283 l 758 283 l 758 250 l 742 250 l 742 300 l 800 300 l 800 158 l 742 158 l 742 200 l 700 200 l 700 325 l 658 325 l 658 367 l 592 367 l 592 342 l 633 342 l 633 283 l 592 283 l 592 200 l 550 200 l 550 175 l 592 175 l 592 117 l 492 117 m 825 242 l 825 292 l 842 292 l 842 258 l 867 258 l 867 325 l 742 325 l 742 375 l 758 375 l 758 342 l 883 342 l 883 242 l 825 242 m -8 -8 l -8 92 l 33 92 l 33 133 l 200 133 l 200 175 l 258 175 l 258 50 l 325 50 l 325 217 l 367 217 l 367 242 l 200 242 l 200 300 l 283 300 l 283 342 l 383 342 l 383 300 l 450 300 l 450 333 l 467 333 l 467 283 l 367 283 l 367 325 l 300 325 l 300 283 l 217 283 l 217 258 l 383 258 l 383 200 l 342 200 l 342 33 l 242 33 l 242 158 l 217 158 l 217 117 l 50 117 l 50 75 l 8 75 l 8 8 l 33 8 l 33 50 l 75 50 l 75 92 l 133 92 l 133 50 l 217 50 l 217 -8 l 83 -8 l 83 8 l 200 8 l 200 33 l 117 33 l 117 75 l 92 75 l 92 33 l 50 33 l 50 -8 l -8 -8 m 908 167 l 908 333 l 925 333 l 925 167 l 908 167 m 617 200 l 617 258 l 658 258 l 658 292 l 675 292 l 675 242 l 633 242 l 633 217 l 667 217 l 667 200 l 617 200 m 408 117 l 408 167 l 425 167 l 425 133 l 450 133 l 450 242 l 425 242 l 425 208 l 408 208 l 408 258 l 467 258 l 467 117 l 408 117 m 208 200 l 208 217 l 250 217 l 250 200 l 208 200 m 792 -8 l 792 8 l 825 8 l 825 208 l 842 208 l 842 -8 l 792 -8 m 867 167 l 867 208 l 883 208 l 883 167 l 867 167 m 950 167 l 950 208 l 967 208 l 967 167 l 950 167 m 283 83 l 283 208 l 300 208 l 300 83 l 283 83 m 667 158 l 667 175 l 708 175 l 708 158 l 667 158 m 367 125 l 367 167 l 383 167 l 383 125 l 367 125 m 658 83 l 658 117 l 617 117 l 617 167 l 633 167 l 633 133 l 675 133 l 675 83 l 658 83 m 708 117 l 708 133 l 750 133 l 750 117 l 708 117 m 950 -8 l 950 33 l 875 33 l 875 50 l 967 50 l 967 8 l 992 8 l 992 117 l 883 117 l 883 92 l 958 92 l 958 75 l 867 75 l 867 133 l 1008 133 l 1008 -8 l 950 -8 m 167 75 l 167 92 l 208 92 l 208 75 l 167 75 m 700 -8 l 700 92 l 800 92 l 800 42 l 783 42 l 783 75 l 717 75 l 717 8 l 742 8 l 742 42 l 758 42 l 758 -8 l 700 -8 m 250 -8 l 250 8 l 292 8 l 292 -8 l 250 -8 m 875 -8 l 875 8 l 917 8 l 917 -8 l 875 -8 m 213 1158 l 213 1217 l 254 1217 l 254 1242 l 188 1242 l 188 1208 l 171 1208 l 171 1258 l 271 1258 l 271 1200 l 229 1200 l 229 1175 l 338 1175 l 338 1242 l 313 1242 l 313 1208 l 296 1208 l 296 1258 l 354 1258 l 354 1158 l 213 1158 m 379 1042 l 379 1258 l 479 1258 l 479 1217 l 521 1217 l 521 1133 l 596 1133 l 596 1117 l 504 1117 l 504 1200 l 463 1200 l 463 1242 l 396 1242 l 396 1042 l 379 1042 m 421 1158 l 421 1208 l 438 1208 l 438 1175 l 471 1175 l 471 1158 l 421 1158 m 338 1083 l 338 1117 l 304 1117 l 304 1133 l 354 1133 l 354 1083 l 338 1083 m 421 1033 l 421 1133 l 479 1133 l 479 1092 l 604 1092 l 604 1050 l 638 1050 l 638 1033 l 588 1033 l 588 1075 l 463 1075 l 463 1117 l 438 1117 l 438 1050 l 554 1050 l 554 1033 l 421 1033 z "},"":{"ha":1049,"x_min":-8,"x_max":1008,"o":"m 33 158 l 33 217 l 133 217 l 133 175 l 158 175 l 158 242 l 75 242 l 75 342 l 133 342 l 133 300 l 158 300 l 158 342 l 200 342 l 200 425 l 283 425 l 283 467 l 325 467 l 325 592 l 367 592 l 367 633 l 408 633 l 408 783 l 367 783 l 367 825 l 325 825 l 325 883 l 408 883 l 408 967 l 467 967 l 467 925 l 533 925 l 533 967 l 625 967 l 625 950 l 550 950 l 550 908 l 450 908 l 450 950 l 425 950 l 425 867 l 342 867 l 342 842 l 383 842 l 383 800 l 425 800 l 425 617 l 383 617 l 383 575 l 342 575 l 342 450 l 300 450 l 300 408 l 217 408 l 217 325 l 175 325 l 175 283 l 117 283 l 117 325 l 92 325 l 92 258 l 175 258 l 175 158 l 117 158 l 117 200 l 50 200 l 50 175 l 83 175 l 83 158 l 33 158 m 325 908 l 325 967 l 375 967 l 375 950 l 342 950 l 342 925 l 375 925 l 375 908 l 325 908 m 700 875 l 700 908 l 658 908 l 658 958 l 675 958 l 675 925 l 717 925 l 717 875 l 700 875 m 408 492 l 408 550 l 450 550 l 450 675 l 492 675 l 492 700 l 450 700 l 450 758 l 533 758 l 533 883 l 575 883 l 575 925 l 625 925 l 625 908 l 592 908 l 592 867 l 550 867 l 550 742 l 467 742 l 467 717 l 508 717 l 508 658 l 467 658 l 467 533 l 425 533 l 425 508 l 458 508 l 458 492 l 408 492 m 117 408 l 117 458 l 133 458 l 133 425 l 158 425 l 158 467 l 200 467 l 200 533 l 158 533 l 158 592 l 283 592 l 283 675 l 367 675 l 367 700 l 283 700 l 283 917 l 300 917 l 300 717 l 383 717 l 383 658 l 300 658 l 300 575 l 175 575 l 175 550 l 217 550 l 217 450 l 175 450 l 175 408 l 117 408 m 575 783 l 575 842 l 617 842 l 617 883 l 667 883 l 667 867 l 633 867 l 633 825 l 592 825 l 592 800 l 658 800 l 658 842 l 750 842 l 750 825 l 675 825 l 675 783 l 575 783 m 450 783 l 450 875 l 467 875 l 467 800 l 492 800 l 492 875 l 508 875 l 508 783 l 450 783 m 783 375 l 783 408 l 742 408 l 742 508 l 825 508 l 825 575 l 783 575 l 783 617 l 758 617 l 758 533 l 717 533 l 717 450 l 658 450 l 658 533 l 617 533 l 617 717 l 700 717 l 700 800 l 758 800 l 758 717 l 800 717 l 800 658 l 717 658 l 717 617 l 675 617 l 675 592 l 708 592 l 708 575 l 658 575 l 658 633 l 700 633 l 700 675 l 783 675 l 783 700 l 742 700 l 742 783 l 717 783 l 717 700 l 633 700 l 633 550 l 675 550 l 675 467 l 700 467 l 700 550 l 742 550 l 742 633 l 800 633 l 800 592 l 842 592 l 842 492 l 758 492 l 758 425 l 800 425 l 800 375 l 783 375 m 325 742 l 325 792 l 342 792 l 342 758 l 375 758 l 375 742 l 325 742 m 200 617 l 200 675 l 242 675 l 242 792 l 258 792 l 258 658 l 217 658 l 217 633 l 250 633 l 250 617 l 200 617 m 583 742 l 583 758 l 667 758 l 667 742 l 583 742 m 533 658 l 533 717 l 583 717 l 583 700 l 550 700 l 550 675 l 583 675 l 583 658 l 533 658 m 575 408 l 575 458 l 592 458 l 592 425 l 617 425 l 617 492 l 575 492 l 575 617 l 542 617 l 542 633 l 592 633 l 592 508 l 633 508 l 633 408 l 575 408 m 533 500 l 533 583 l 550 583 l 550 500 l 533 500 m 242 492 l 242 550 l 292 550 l 292 533 l 258 533 l 258 508 l 292 508 l 292 492 l 242 492 m 367 450 l 367 542 l 383 542 l 383 467 l 458 467 l 458 450 l 367 450 m 825 367 l 825 425 l 867 425 l 867 450 l 792 450 l 792 467 l 883 467 l 883 408 l 842 408 l 842 383 l 875 383 l 875 367 l 825 367 m 242 333 l 242 383 l 325 383 l 325 425 l 375 425 l 375 408 l 342 408 l 342 367 l 258 367 l 258 333 l 242 333 m 700 375 l 700 408 l 667 408 l 667 425 l 717 425 l 717 375 l 700 375 m 408 333 l 408 417 l 425 417 l 425 333 l 408 333 m 125 367 l 125 383 l 167 383 l 167 367 l 125 367 m 492 117 l 492 258 l 533 258 l 533 367 l 508 367 l 508 292 l 492 292 l 492 383 l 550 383 l 550 242 l 508 242 l 508 133 l 575 133 l 575 158 l 533 158 l 533 217 l 575 217 l 575 300 l 617 300 l 617 325 l 575 325 l 575 383 l 675 383 l 675 342 l 717 342 l 717 217 l 758 217 l 758 175 l 783 175 l 783 283 l 758 283 l 758 250 l 742 250 l 742 300 l 800 300 l 800 158 l 742 158 l 742 200 l 700 200 l 700 325 l 658 325 l 658 367 l 592 367 l 592 342 l 633 342 l 633 283 l 592 283 l 592 200 l 550 200 l 550 175 l 592 175 l 592 117 l 492 117 m 825 242 l 825 292 l 842 292 l 842 258 l 867 258 l 867 325 l 742 325 l 742 375 l 758 375 l 758 342 l 883 342 l 883 242 l 825 242 m -8 -8 l -8 92 l 33 92 l 33 133 l 200 133 l 200 175 l 258 175 l 258 50 l 325 50 l 325 217 l 367 217 l 367 242 l 200 242 l 200 300 l 283 300 l 283 342 l 383 342 l 383 300 l 450 300 l 450 333 l 467 333 l 467 283 l 367 283 l 367 325 l 300 325 l 300 283 l 217 283 l 217 258 l 383 258 l 383 200 l 342 200 l 342 33 l 242 33 l 242 158 l 217 158 l 217 117 l 50 117 l 50 75 l 8 75 l 8 8 l 33 8 l 33 50 l 75 50 l 75 92 l 133 92 l 133 50 l 217 50 l 217 -8 l 83 -8 l 83 8 l 200 8 l 200 33 l 117 33 l 117 75 l 92 75 l 92 33 l 50 33 l 50 -8 l -8 -8 m 908 167 l 908 333 l 925 333 l 925 167 l 908 167 m 617 200 l 617 258 l 658 258 l 658 292 l 675 292 l 675 242 l 633 242 l 633 217 l 667 217 l 667 200 l 617 200 m 408 117 l 408 167 l 425 167 l 425 133 l 450 133 l 450 242 l 425 242 l 425 208 l 408 208 l 408 258 l 467 258 l 467 117 l 408 117 m 208 200 l 208 217 l 250 217 l 250 200 l 208 200 m 792 -8 l 792 8 l 825 8 l 825 208 l 842 208 l 842 -8 l 792 -8 m 867 167 l 867 208 l 883 208 l 883 167 l 867 167 m 950 167 l 950 208 l 967 208 l 967 167 l 950 167 m 283 83 l 283 208 l 300 208 l 300 83 l 283 83 m 667 158 l 667 175 l 708 175 l 708 158 l 667 158 m 367 125 l 367 167 l 383 167 l 383 125 l 367 125 m 658 83 l 658 117 l 617 117 l 617 167 l 633 167 l 633 133 l 675 133 l 675 83 l 658 83 m 708 117 l 708 133 l 750 133 l 750 117 l 708 117 m 950 -8 l 950 33 l 875 33 l 875 50 l 967 50 l 967 8 l 992 8 l 992 117 l 883 117 l 883 92 l 958 92 l 958 75 l 867 75 l 867 133 l 1008 133 l 1008 -8 l 950 -8 m 167 75 l 167 92 l 208 92 l 208 75 l 167 75 m 700 -8 l 700 92 l 800 92 l 800 42 l 783 42 l 783 75 l 717 75 l 717 8 l 742 8 l 742 42 l 758 42 l 758 -8 l 700 -8 m 250 -8 l 250 8 l 292 8 l 292 -8 l 250 -8 m 875 -8 l 875 8 l 917 8 l 917 -8 l 875 -8 m 306 1033 l 306 1117 l 222 1117 l 222 1175 l 306 1175 l 306 1200 l 272 1200 l 272 1217 l 322 1217 l 322 1158 l 239 1158 l 239 1133 l 322 1133 l 322 1050 l 397 1050 l 397 1033 l 306 1033 m 347 1117 l 347 1167 l 364 1167 l 364 1133 l 514 1133 l 514 1217 l 572 1217 l 572 1133 l 597 1133 l 597 1217 l 656 1217 l 656 1167 l 639 1167 l 639 1200 l 614 1200 l 614 1117 l 556 1117 l 556 1200 l 531 1200 l 531 1117 l 347 1117 m 431 1158 l 431 1200 l 406 1200 l 406 1167 l 389 1167 l 389 1217 l 447 1217 l 447 1175 l 481 1175 l 481 1158 l 431 1158 m 639 1075 l 639 1125 l 656 1125 l 656 1092 l 764 1092 l 764 1117 l 681 1117 l 681 1217 l 781 1217 l 781 1158 l 731 1158 l 731 1175 l 764 1175 l 764 1200 l 697 1200 l 697 1133 l 781 1133 l 781 1075 l 639 1075 m 222 1042 l 222 1092 l 281 1092 l 281 1042 l 264 1042 l 264 1075 l 239 1075 l 239 1042 l 222 1042 m 431 1033 l 431 1075 l 356 1075 l 356 1092 l 447 1092 l 447 1050 l 556 1050 l 556 1075 l 481 1075 l 481 1092 l 572 1092 l 572 1033 l 431 1033 m 597 1033 l 597 1083 l 614 1083 l 614 1050 l 772 1050 l 772 1033 l 597 1033 z "},"":{"ha":1049,"x_min":-8,"x_max":1008,"o":"m 367 811 l 367 853 l 283 853 l 283 911 l 325 911 l 325 953 l 383 953 l 383 903 l 367 903 l 367 936 l 342 936 l 342 894 l 300 894 l 300 869 l 383 869 l 383 828 l 408 828 l 408 953 l 508 953 l 508 911 l 533 911 l 533 953 l 625 953 l 625 936 l 550 936 l 550 894 l 492 894 l 492 936 l 425 936 l 425 811 l 367 811 m 700 728 l 700 778 l 717 778 l 717 744 l 742 744 l 742 811 l 700 811 l 700 894 l 658 894 l 658 944 l 675 944 l 675 911 l 717 911 l 717 828 l 758 828 l 758 728 l 700 728 m 450 853 l 450 903 l 467 903 l 467 869 l 542 869 l 542 853 l 450 853 m 542 811 l 542 828 l 658 828 l 658 853 l 575 853 l 575 903 l 592 903 l 592 869 l 675 869 l 675 811 l 542 811 m 575 611 l 575 686 l 450 686 l 450 828 l 508 828 l 508 744 l 533 744 l 533 786 l 675 786 l 675 694 l 658 694 l 658 769 l 550 769 l 550 728 l 492 728 l 492 811 l 467 811 l 467 703 l 592 703 l 592 611 l 575 611 m 700 311 l 700 394 l 658 394 l 658 478 l 533 478 l 533 536 l 742 536 l 742 603 l 700 603 l 700 644 l 633 644 l 633 561 l 533 561 l 533 644 l 408 644 l 408 728 l 342 728 l 342 686 l 300 686 l 300 644 l 242 644 l 242 744 l 283 744 l 283 811 l 258 811 l 258 778 l 242 778 l 242 828 l 300 828 l 300 728 l 258 728 l 258 661 l 283 661 l 283 703 l 325 703 l 325 744 l 425 744 l 425 661 l 550 661 l 550 578 l 617 578 l 617 661 l 717 661 l 717 619 l 758 619 l 758 519 l 550 519 l 550 494 l 675 494 l 675 411 l 717 411 l 717 328 l 783 328 l 783 369 l 842 369 l 842 319 l 825 319 l 825 353 l 800 353 l 800 311 l 700 311 m 325 769 l 325 819 l 342 819 l 342 786 l 375 786 l 375 769 l 325 769 m 617 694 l 617 736 l 633 736 l 633 694 l 617 694 m 783 519 l 783 686 l 708 686 l 708 703 l 800 703 l 800 536 l 825 536 l 825 569 l 842 569 l 842 519 l 783 519 m 158 486 l 158 578 l 200 578 l 200 694 l 217 694 l 217 561 l 175 561 l 175 486 l 158 486 m 283 528 l 283 561 l 242 561 l 242 619 l 325 619 l 325 661 l 367 661 l 367 694 l 383 694 l 383 644 l 342 644 l 342 603 l 258 603 l 258 578 l 300 578 l 300 528 l 283 528 m 283 228 l 283 394 l 158 394 l 158 436 l 125 436 l 125 453 l 175 453 l 175 411 l 300 411 l 300 244 l 367 244 l 367 411 l 408 411 l 408 436 l 367 436 l 367 478 l 325 478 l 325 578 l 367 578 l 367 619 l 467 619 l 467 519 l 375 519 l 375 536 l 450 536 l 450 603 l 383 603 l 383 561 l 342 561 l 342 494 l 383 494 l 383 453 l 425 453 l 425 394 l 383 394 l 383 228 l 283 228 m 658 561 l 658 611 l 675 611 l 675 578 l 708 578 l 708 561 l 658 561 m 325 361 l 325 436 l 283 436 l 283 478 l 242 478 l 242 519 l 217 519 l 217 453 l 250 453 l 250 436 l 200 436 l 200 536 l 258 536 l 258 494 l 300 494 l 300 453 l 342 453 l 342 361 l 325 361 m 417 478 l 417 494 l 458 494 l 458 478 l 417 478 m 867 278 l 867 394 l 825 394 l 825 478 l 800 478 l 800 394 l 742 394 l 742 436 l 700 436 l 700 494 l 750 494 l 750 478 l 717 478 l 717 453 l 758 453 l 758 411 l 783 411 l 783 494 l 842 494 l 842 411 l 883 411 l 883 278 l 867 278 m 583 436 l 583 453 l 625 453 l 625 436 l 583 436 m 450 228 l 450 328 l 508 328 l 508 278 l 492 278 l 492 311 l 467 311 l 467 244 l 533 244 l 533 286 l 658 286 l 658 353 l 617 353 l 617 394 l 592 394 l 592 353 l 550 353 l 550 328 l 625 328 l 625 311 l 533 311 l 533 369 l 575 369 l 575 411 l 633 411 l 633 369 l 675 369 l 675 269 l 550 269 l 550 228 l 450 228 m 117 353 l 117 403 l 133 403 l 133 369 l 167 369 l 167 353 l 117 353 m 75 236 l 75 328 l 175 328 l 175 286 l 200 286 l 200 328 l 242 328 l 242 353 l 208 353 l 208 369 l 258 369 l 258 311 l 217 311 l 217 269 l 158 269 l 158 311 l 92 311 l 92 236 l 75 236 m 367 103 l 367 186 l 258 186 l 258 161 l 292 161 l 292 144 l 242 144 l 242 203 l 383 203 l 383 119 l 408 119 l 408 161 l 467 161 l 467 119 l 492 119 l 492 186 l 408 186 l 408 369 l 500 369 l 500 353 l 425 353 l 425 203 l 508 203 l 508 103 l 450 103 l 450 144 l 425 144 l 425 103 l 367 103 m 875 228 l 875 244 l 908 244 l 908 361 l 925 361 l 925 228 l 875 228 m 325 278 l 325 319 l 342 319 l 342 278 l 325 278 m 700 -22 l 700 61 l 658 61 l 658 119 l 758 119 l 758 78 l 783 78 l 783 119 l 883 119 l 883 78 l 908 78 l 908 161 l 950 161 l 950 186 l 883 186 l 883 144 l 825 144 l 825 186 l 783 186 l 783 269 l 717 269 l 717 228 l 592 228 l 592 186 l 542 186 l 542 203 l 575 203 l 575 244 l 700 244 l 700 286 l 800 286 l 800 203 l 842 203 l 842 161 l 867 161 l 867 203 l 967 203 l 967 144 l 925 144 l 925 61 l 867 61 l 867 103 l 800 103 l 800 61 l 742 61 l 742 103 l 675 103 l 675 78 l 717 78 l 717 -6 l 742 -6 l 742 28 l 758 28 l 758 -22 l 700 -22 m 825 236 l 825 278 l 842 278 l 842 236 l 825 236 m -8 -22 l -8 36 l 75 36 l 75 119 l 117 119 l 117 144 l 33 144 l 33 203 l 117 203 l 117 244 l 175 244 l 175 203 l 200 203 l 200 244 l 242 244 l 242 278 l 258 278 l 258 228 l 217 228 l 217 186 l 158 186 l 158 228 l 133 228 l 133 186 l 50 186 l 50 161 l 133 161 l 133 103 l 92 103 l 92 19 l 8 19 l 8 -6 l 242 -6 l 242 19 l 200 19 l 200 78 l 242 78 l 242 103 l 175 103 l 175 19 l 117 19 l 117 69 l 133 69 l 133 36 l 158 36 l 158 119 l 258 119 l 258 61 l 217 61 l 217 36 l 258 36 l 258 -22 l -8 -22 m 625 186 l 625 203 l 742 203 l 742 236 l 758 236 l 758 186 l 625 186 m 667 144 l 667 161 l 750 161 l 750 144 l 667 144 m 167 144 l 167 161 l 208 161 l 208 144 l 167 144 m 575 103 l 575 144 l 550 144 l 550 111 l 533 111 l 533 161 l 592 161 l 592 119 l 617 119 l 617 153 l 633 153 l 633 103 l 575 103 m 292 103 l 292 119 l 325 119 l 325 153 l 342 153 l 342 103 l 292 103 m 958 61 l 958 78 l 992 78 l 992 103 l 958 103 l 958 119 l 1008 119 l 1008 61 l 958 61 m 0 61 l 0 78 l 33 78 l 33 111 l 50 111 l 50 61 l 0 61 m 283 -14 l 283 36 l 325 36 l 325 61 l 292 61 l 292 78 l 342 78 l 342 19 l 300 19 l 300 -14 l 283 -14 m 825 -314 l 825 -272 l 783 -272 l 783 -231 l 742 -231 l 742 -172 l 783 -172 l 783 -147 l 742 -147 l 742 -89 l 783 -89 l 783 36 l 842 36 l 842 -47 l 867 -47 l 867 -6 l 908 -6 l 908 36 l 1008 36 l 1008 -22 l 958 -22 l 958 -6 l 992 -6 l 992 19 l 925 19 l 925 -22 l 883 -22 l 883 -64 l 825 -64 l 825 19 l 800 19 l 800 -106 l 758 -106 l 758 -131 l 800 -131 l 800 -189 l 758 -189 l 758 -214 l 800 -214 l 800 -256 l 842 -256 l 842 -297 l 867 -297 l 867 -264 l 883 -264 l 883 -314 l 825 -314 m 833 -106 l 833 -89 l 875 -89 l 875 -106 l 833 -106 m 825 -231 l 825 -172 l 908 -172 l 908 -147 l 875 -147 l 875 -131 l 925 -131 l 925 -189 l 842 -189 l 842 -214 l 875 -214 l 875 -231 l 825 -231 m 908 -314 l 908 -214 l 950 -214 l 950 -172 l 1008 -172 l 1008 -272 l 958 -272 l 958 -256 l 992 -256 l 992 -189 l 967 -189 l 967 -231 l 925 -231 l 925 -297 l 1000 -297 l 1000 -314 l 908 -314 z "},"":{"ha":1049,"x_min":-8,"x_max":1008,"o":"m 33 158 l 33 217 l 133 217 l 133 175 l 158 175 l 158 242 l 75 242 l 75 342 l 133 342 l 133 300 l 158 300 l 158 342 l 200 342 l 200 425 l 283 425 l 283 467 l 325 467 l 325 592 l 367 592 l 367 633 l 408 633 l 408 783 l 367 783 l 367 825 l 325 825 l 325 883 l 408 883 l 408 967 l 467 967 l 467 925 l 533 925 l 533 967 l 625 967 l 625 950 l 550 950 l 550 908 l 450 908 l 450 950 l 425 950 l 425 867 l 342 867 l 342 842 l 383 842 l 383 800 l 425 800 l 425 617 l 383 617 l 383 575 l 342 575 l 342 450 l 300 450 l 300 408 l 217 408 l 217 325 l 175 325 l 175 283 l 117 283 l 117 325 l 92 325 l 92 258 l 175 258 l 175 158 l 117 158 l 117 200 l 50 200 l 50 175 l 83 175 l 83 158 l 33 158 m 325 908 l 325 967 l 375 967 l 375 950 l 342 950 l 342 925 l 375 925 l 375 908 l 325 908 m 700 875 l 700 908 l 658 908 l 658 958 l 675 958 l 675 925 l 717 925 l 717 875 l 700 875 m 408 492 l 408 550 l 450 550 l 450 675 l 492 675 l 492 700 l 450 700 l 450 758 l 533 758 l 533 883 l 575 883 l 575 925 l 625 925 l 625 908 l 592 908 l 592 867 l 550 867 l 550 742 l 467 742 l 467 717 l 508 717 l 508 658 l 467 658 l 467 533 l 425 533 l 425 508 l 458 508 l 458 492 l 408 492 m 117 408 l 117 458 l 133 458 l 133 425 l 158 425 l 158 467 l 200 467 l 200 533 l 158 533 l 158 592 l 283 592 l 283 675 l 367 675 l 367 700 l 283 700 l 283 917 l 300 917 l 300 717 l 383 717 l 383 658 l 300 658 l 300 575 l 175 575 l 175 550 l 217 550 l 217 450 l 175 450 l 175 408 l 117 408 m 575 783 l 575 842 l 617 842 l 617 883 l 667 883 l 667 867 l 633 867 l 633 825 l 592 825 l 592 800 l 658 800 l 658 842 l 750 842 l 750 825 l 675 825 l 675 783 l 575 783 m 450 783 l 450 875 l 467 875 l 467 800 l 492 800 l 492 875 l 508 875 l 508 783 l 450 783 m 783 375 l 783 408 l 742 408 l 742 508 l 825 508 l 825 575 l 783 575 l 783 617 l 758 617 l 758 533 l 717 533 l 717 450 l 658 450 l 658 533 l 617 533 l 617 717 l 700 717 l 700 800 l 758 800 l 758 717 l 800 717 l 800 658 l 717 658 l 717 617 l 675 617 l 675 592 l 708 592 l 708 575 l 658 575 l 658 633 l 700 633 l 700 675 l 783 675 l 783 700 l 742 700 l 742 783 l 717 783 l 717 700 l 633 700 l 633 550 l 675 550 l 675 467 l 700 467 l 700 550 l 742 550 l 742 633 l 800 633 l 800 592 l 842 592 l 842 492 l 758 492 l 758 425 l 800 425 l 800 375 l 783 375 m 325 742 l 325 792 l 342 792 l 342 758 l 375 758 l 375 742 l 325 742 m 200 617 l 200 675 l 242 675 l 242 792 l 258 792 l 258 658 l 217 658 l 217 633 l 250 633 l 250 617 l 200 617 m 583 742 l 583 758 l 667 758 l 667 742 l 583 742 m 533 658 l 533 717 l 583 717 l 583 700 l 550 700 l 550 675 l 583 675 l 583 658 l 533 658 m 575 408 l 575 458 l 592 458 l 592 425 l 617 425 l 617 492 l 575 492 l 575 617 l 542 617 l 542 633 l 592 633 l 592 508 l 633 508 l 633 408 l 575 408 m 533 500 l 533 583 l 550 583 l 550 500 l 533 500 m 242 492 l 242 550 l 292 550 l 292 533 l 258 533 l 258 508 l 292 508 l 292 492 l 242 492 m 367 450 l 367 542 l 383 542 l 383 467 l 458 467 l 458 450 l 367 450 m 825 367 l 825 425 l 867 425 l 867 450 l 792 450 l 792 467 l 883 467 l 883 408 l 842 408 l 842 383 l 875 383 l 875 367 l 825 367 m 242 333 l 242 383 l 325 383 l 325 425 l 375 425 l 375 408 l 342 408 l 342 367 l 258 367 l 258 333 l 242 333 m 700 375 l 700 408 l 667 408 l 667 425 l 717 425 l 717 375 l 700 375 m 408 333 l 408 417 l 425 417 l 425 333 l 408 333 m 125 367 l 125 383 l 167 383 l 167 367 l 125 367 m 492 117 l 492 258 l 533 258 l 533 367 l 508 367 l 508 292 l 492 292 l 492 383 l 550 383 l 550 242 l 508 242 l 508 133 l 575 133 l 575 158 l 533 158 l 533 217 l 575 217 l 575 300 l 617 300 l 617 325 l 575 325 l 575 383 l 675 383 l 675 342 l 717 342 l 717 217 l 758 217 l 758 175 l 783 175 l 783 283 l 758 283 l 758 250 l 742 250 l 742 300 l 800 300 l 800 158 l 742 158 l 742 200 l 700 200 l 700 325 l 658 325 l 658 367 l 592 367 l 592 342 l 633 342 l 633 283 l 592 283 l 592 200 l 550 200 l 550 175 l 592 175 l 592 117 l 492 117 m 825 242 l 825 292 l 842 292 l 842 258 l 867 258 l 867 325 l 742 325 l 742 375 l 758 375 l 758 342 l 883 342 l 883 242 l 825 242 m -8 -8 l -8 92 l 33 92 l 33 133 l 200 133 l 200 175 l 258 175 l 258 50 l 325 50 l 325 217 l 367 217 l 367 242 l 200 242 l 200 300 l 283 300 l 283 342 l 383 342 l 383 300 l 450 300 l 450 333 l 467 333 l 467 283 l 367 283 l 367 325 l 300 325 l 300 283 l 217 283 l 217 258 l 383 258 l 383 200 l 342 200 l 342 33 l 242 33 l 242 158 l 217 158 l 217 117 l 50 117 l 50 75 l 8 75 l 8 8 l 33 8 l 33 50 l 75 50 l 75 92 l 133 92 l 133 50 l 217 50 l 217 -8 l 83 -8 l 83 8 l 200 8 l 200 33 l 117 33 l 117 75 l 92 75 l 92 33 l 50 33 l 50 -8 l -8 -8 m 908 167 l 908 333 l 925 333 l 925 167 l 908 167 m 617 200 l 617 258 l 658 258 l 658 292 l 675 292 l 675 242 l 633 242 l 633 217 l 667 217 l 667 200 l 617 200 m 408 117 l 408 167 l 425 167 l 425 133 l 450 133 l 450 242 l 425 242 l 425 208 l 408 208 l 408 258 l 467 258 l 467 117 l 408 117 m 208 200 l 208 217 l 250 217 l 250 200 l 208 200 m 792 -8 l 792 8 l 825 8 l 825 208 l 842 208 l 842 -8 l 792 -8 m 867 167 l 867 208 l 883 208 l 883 167 l 867 167 m 950 167 l 950 208 l 967 208 l 967 167 l 950 167 m 283 83 l 283 208 l 300 208 l 300 83 l 283 83 m 667 158 l 667 175 l 708 175 l 708 158 l 667 158 m 367 125 l 367 167 l 383 167 l 383 125 l 367 125 m 658 83 l 658 117 l 617 117 l 617 167 l 633 167 l 633 133 l 675 133 l 675 83 l 658 83 m 708 117 l 708 133 l 750 133 l 750 117 l 708 117 m 950 -8 l 950 33 l 875 33 l 875 50 l 967 50 l 967 8 l 992 8 l 992 117 l 883 117 l 883 92 l 958 92 l 958 75 l 867 75 l 867 133 l 1008 133 l 1008 -8 l 950 -8 m 167 75 l 167 92 l 208 92 l 208 75 l 167 75 m 700 -8 l 700 92 l 800 92 l 800 42 l 783 42 l 783 75 l 717 75 l 717 8 l 742 8 l 742 42 l 758 42 l 758 -8 l 700 -8 m 250 -8 l 250 8 l 292 8 l 292 -8 l 250 -8 m 875 -8 l 875 8 l 917 8 l 917 -8 l 875 -8 m 428 1228 l 428 1244 l 469 1244 l 469 1228 l 428 1228 m 511 1228 l 511 1244 l 553 1244 l 553 1228 l 511 1228 m 419 1061 l 419 1103 l 378 1103 l 378 1203 l 561 1203 l 561 1161 l 586 1161 l 586 1236 l 603 1236 l 603 1144 l 544 1144 l 544 1186 l 394 1186 l 394 1119 l 436 1119 l 436 1078 l 586 1078 l 586 1119 l 628 1119 l 628 1153 l 644 1153 l 644 1103 l 603 1103 l 603 1061 l 419 1061 m 428 1019 l 428 1036 l 511 1036 l 511 1019 l 428 1019 z "},"":{"ha":1049,"x_min":-8,"x_max":1008,"o":"m 33 158 l 33 217 l 133 217 l 133 175 l 158 175 l 158 242 l 75 242 l 75 342 l 133 342 l 133 300 l 158 300 l 158 342 l 200 342 l 200 425 l 283 425 l 283 467 l 325 467 l 325 592 l 367 592 l 367 633 l 408 633 l 408 783 l 367 783 l 367 825 l 325 825 l 325 883 l 408 883 l 408 967 l 467 967 l 467 925 l 533 925 l 533 967 l 625 967 l 625 950 l 550 950 l 550 908 l 450 908 l 450 950 l 425 950 l 425 867 l 342 867 l 342 842 l 383 842 l 383 800 l 425 800 l 425 617 l 383 617 l 383 575 l 342 575 l 342 450 l 300 450 l 300 408 l 217 408 l 217 325 l 175 325 l 175 283 l 117 283 l 117 325 l 92 325 l 92 258 l 175 258 l 175 158 l 117 158 l 117 200 l 50 200 l 50 175 l 83 175 l 83 158 l 33 158 m 325 908 l 325 967 l 375 967 l 375 950 l 342 950 l 342 925 l 375 925 l 375 908 l 325 908 m 700 875 l 700 908 l 658 908 l 658 958 l 675 958 l 675 925 l 717 925 l 717 875 l 700 875 m 408 492 l 408 550 l 450 550 l 450 675 l 492 675 l 492 700 l 450 700 l 450 758 l 533 758 l 533 883 l 575 883 l 575 925 l 625 925 l 625 908 l 592 908 l 592 867 l 550 867 l 550 742 l 467 742 l 467 717 l 508 717 l 508 658 l 467 658 l 467 533 l 425 533 l 425 508 l 458 508 l 458 492 l 408 492 m 117 408 l 117 458 l 133 458 l 133 425 l 158 425 l 158 467 l 200 467 l 200 533 l 158 533 l 158 592 l 283 592 l 283 675 l 367 675 l 367 700 l 283 700 l 283 917 l 300 917 l 300 717 l 383 717 l 383 658 l 300 658 l 300 575 l 175 575 l 175 550 l 217 550 l 217 450 l 175 450 l 175 408 l 117 408 m 575 783 l 575 842 l 617 842 l 617 883 l 667 883 l 667 867 l 633 867 l 633 825 l 592 825 l 592 800 l 658 800 l 658 842 l 750 842 l 750 825 l 675 825 l 675 783 l 575 783 m 450 783 l 450 875 l 467 875 l 467 800 l 492 800 l 492 875 l 508 875 l 508 783 l 450 783 m 783 375 l 783 408 l 742 408 l 742 508 l 825 508 l 825 575 l 783 575 l 783 617 l 758 617 l 758 533 l 717 533 l 717 450 l 658 450 l 658 533 l 617 533 l 617 717 l 700 717 l 700 800 l 758 800 l 758 717 l 800 717 l 800 658 l 717 658 l 717 617 l 675 617 l 675 592 l 708 592 l 708 575 l 658 575 l 658 633 l 700 633 l 700 675 l 783 675 l 783 700 l 742 700 l 742 783 l 717 783 l 717 700 l 633 700 l 633 550 l 675 550 l 675 467 l 700 467 l 700 550 l 742 550 l 742 633 l 800 633 l 800 592 l 842 592 l 842 492 l 758 492 l 758 425 l 800 425 l 800 375 l 783 375 m 325 742 l 325 792 l 342 792 l 342 758 l 375 758 l 375 742 l 325 742 m 200 617 l 200 675 l 242 675 l 242 792 l 258 792 l 258 658 l 217 658 l 217 633 l 250 633 l 250 617 l 200 617 m 583 742 l 583 758 l 667 758 l 667 742 l 583 742 m 533 658 l 533 717 l 583 717 l 583 700 l 550 700 l 550 675 l 583 675 l 583 658 l 533 658 m 575 408 l 575 458 l 592 458 l 592 425 l 617 425 l 617 492 l 575 492 l 575 617 l 542 617 l 542 633 l 592 633 l 592 508 l 633 508 l 633 408 l 575 408 m 533 500 l 533 583 l 550 583 l 550 500 l 533 500 m 242 492 l 242 550 l 292 550 l 292 533 l 258 533 l 258 508 l 292 508 l 292 492 l 242 492 m 367 450 l 367 542 l 383 542 l 383 467 l 458 467 l 458 450 l 367 450 m 825 367 l 825 425 l 867 425 l 867 450 l 792 450 l 792 467 l 883 467 l 883 408 l 842 408 l 842 383 l 875 383 l 875 367 l 825 367 m 242 333 l 242 383 l 325 383 l 325 425 l 375 425 l 375 408 l 342 408 l 342 367 l 258 367 l 258 333 l 242 333 m 700 375 l 700 408 l 667 408 l 667 425 l 717 425 l 717 375 l 700 375 m 408 333 l 408 417 l 425 417 l 425 333 l 408 333 m 125 367 l 125 383 l 167 383 l 167 367 l 125 367 m 492 117 l 492 258 l 533 258 l 533 367 l 508 367 l 508 292 l 492 292 l 492 383 l 550 383 l 550 242 l 508 242 l 508 133 l 575 133 l 575 158 l 533 158 l 533 217 l 575 217 l 575 300 l 617 300 l 617 325 l 575 325 l 575 383 l 675 383 l 675 342 l 717 342 l 717 217 l 758 217 l 758 175 l 783 175 l 783 283 l 758 283 l 758 250 l 742 250 l 742 300 l 800 300 l 800 158 l 742 158 l 742 200 l 700 200 l 700 325 l 658 325 l 658 367 l 592 367 l 592 342 l 633 342 l 633 283 l 592 283 l 592 200 l 550 200 l 550 175 l 592 175 l 592 117 l 492 117 m 825 242 l 825 292 l 842 292 l 842 258 l 867 258 l 867 325 l 742 325 l 742 375 l 758 375 l 758 342 l 883 342 l 883 242 l 825 242 m -8 -8 l -8 92 l 33 92 l 33 133 l 200 133 l 200 175 l 258 175 l 258 50 l 325 50 l 325 217 l 367 217 l 367 242 l 200 242 l 200 300 l 283 300 l 283 342 l 383 342 l 383 300 l 450 300 l 450 333 l 467 333 l 467 283 l 367 283 l 367 325 l 300 325 l 300 283 l 217 283 l 217 258 l 383 258 l 383 200 l 342 200 l 342 33 l 242 33 l 242 158 l 217 158 l 217 117 l 50 117 l 50 75 l 8 75 l 8 8 l 33 8 l 33 50 l 75 50 l 75 92 l 133 92 l 133 50 l 217 50 l 217 -8 l 83 -8 l 83 8 l 200 8 l 200 33 l 117 33 l 117 75 l 92 75 l 92 33 l 50 33 l 50 -8 l -8 -8 m 908 167 l 908 333 l 925 333 l 925 167 l 908 167 m 617 200 l 617 258 l 658 258 l 658 292 l 675 292 l 675 242 l 633 242 l 633 217 l 667 217 l 667 200 l 617 200 m 408 117 l 408 167 l 425 167 l 425 133 l 450 133 l 450 242 l 425 242 l 425 208 l 408 208 l 408 258 l 467 258 l 467 117 l 408 117 m 208 200 l 208 217 l 250 217 l 250 200 l 208 200 m 792 -8 l 792 8 l 825 8 l 825 208 l 842 208 l 842 -8 l 792 -8 m 867 167 l 867 208 l 883 208 l 883 167 l 867 167 m 950 167 l 950 208 l 967 208 l 967 167 l 950 167 m 283 83 l 283 208 l 300 208 l 300 83 l 283 83 m 667 158 l 667 175 l 708 175 l 708 158 l 667 158 m 367 125 l 367 167 l 383 167 l 383 125 l 367 125 m 658 83 l 658 117 l 617 117 l 617 167 l 633 167 l 633 133 l 675 133 l 675 83 l 658 83 m 708 117 l 708 133 l 750 133 l 750 117 l 708 117 m 950 -8 l 950 33 l 875 33 l 875 50 l 967 50 l 967 8 l 992 8 l 992 117 l 883 117 l 883 92 l 958 92 l 958 75 l 867 75 l 867 133 l 1008 133 l 1008 -8 l 950 -8 m 167 75 l 167 92 l 208 92 l 208 75 l 167 75 m 700 -8 l 700 92 l 800 92 l 800 42 l 783 42 l 783 75 l 717 75 l 717 8 l 742 8 l 742 42 l 758 42 l 758 -8 l 700 -8 m 250 -8 l 250 8 l 292 8 l 292 -8 l 250 -8 m 875 -8 l 875 8 l 917 8 l 917 -8 l 875 -8 m 275 1151 l 275 1210 l 317 1210 l 317 1251 l 408 1251 l 408 1235 l 333 1235 l 333 1193 l 292 1193 l 292 1168 l 400 1168 l 400 1210 l 442 1210 l 442 1251 l 500 1251 l 500 1210 l 608 1210 l 608 1251 l 708 1251 l 708 1160 l 692 1160 l 692 1235 l 625 1235 l 625 1193 l 483 1193 l 483 1235 l 458 1235 l 458 1193 l 417 1193 l 417 1151 l 275 1151 m 692 1076 l 692 1126 l 733 1126 l 733 1210 l 775 1210 l 775 1235 l 742 1235 l 742 1251 l 792 1251 l 792 1193 l 750 1193 l 750 1110 l 708 1110 l 708 1076 l 692 1076 m 608 1068 l 608 1110 l 483 1110 l 483 1151 l 458 1151 l 458 1076 l 442 1076 l 442 1168 l 500 1168 l 500 1126 l 625 1126 l 625 1085 l 650 1085 l 650 1201 l 667 1201 l 667 1068 l 608 1068 m 533 1151 l 533 1168 l 617 1168 l 617 1151 l 533 1151 m 242 1026 l 242 1043 l 358 1043 l 358 1110 l 333 1110 l 333 1068 l 275 1068 l 275 1110 l 250 1110 l 250 1076 l 233 1076 l 233 1126 l 292 1126 l 292 1085 l 317 1085 l 317 1126 l 375 1126 l 375 1026 l 242 1026 m 400 1076 l 400 1118 l 417 1118 l 417 1076 l 400 1076 m 525 1026 l 525 1085 l 575 1085 l 575 1068 l 542 1068 l 542 1043 l 658 1043 l 658 1026 l 525 1026 z "},"":{"ha":1396,"x_min":-3,"x_max":1306,"o":"m 289 783 l 289 925 l 372 925 l 372 967 l 472 967 l 472 925 l 497 925 l 497 967 l 556 967 l 556 925 l 581 925 l 581 967 l 722 967 l 722 883 l 789 883 l 789 967 l 847 967 l 847 925 l 872 925 l 872 967 l 922 967 l 922 950 l 889 950 l 889 908 l 831 908 l 831 950 l 806 950 l 806 867 l 706 867 l 706 950 l 597 950 l 597 908 l 539 908 l 539 950 l 514 950 l 514 908 l 456 908 l 456 950 l 389 950 l 389 908 l 306 908 l 306 800 l 456 800 l 456 867 l 347 867 l 347 842 l 422 842 l 422 825 l 331 825 l 331 883 l 472 883 l 472 783 l 289 783 m 1164 917 l 1164 950 l 964 950 l 964 967 l 1181 967 l 1181 917 l 1164 917 m 1214 950 l 1214 967 l 1256 967 l 1256 950 l 1214 950 m 747 917 l 747 958 l 764 958 l 764 917 l 747 917 m 539 783 l 539 825 l 497 825 l 497 883 l 597 883 l 597 842 l 631 842 l 631 825 l 581 825 l 581 867 l 514 867 l 514 842 l 556 842 l 556 800 l 664 800 l 664 867 l 622 867 l 622 925 l 672 925 l 672 908 l 639 908 l 639 883 l 681 883 l 681 783 l 539 783 m 956 742 l 956 783 l 931 783 l 931 750 l 914 750 l 914 800 l 972 800 l 972 758 l 997 758 l 997 842 l 1039 842 l 1039 867 l 956 867 l 956 908 l 931 908 l 931 842 l 964 842 l 964 825 l 914 825 l 914 925 l 972 925 l 972 883 l 1056 883 l 1056 825 l 1014 825 l 1014 742 l 956 742 m 1247 700 l 1247 783 l 1206 783 l 1206 925 l 1297 925 l 1297 908 l 1222 908 l 1222 800 l 1264 800 l 1264 717 l 1289 717 l 1289 825 l 1247 825 l 1247 883 l 1297 883 l 1297 867 l 1264 867 l 1264 842 l 1306 842 l 1306 700 l 1247 700 m 1006 908 l 1006 925 l 1047 925 l 1047 908 l 1006 908 m 1164 700 l 1164 825 l 1122 825 l 1122 908 l 1089 908 l 1089 925 l 1139 925 l 1139 842 l 1181 842 l 1181 717 l 1206 717 l 1206 750 l 1222 750 l 1222 700 l 1164 700 m 622 658 l 622 758 l 681 758 l 681 717 l 706 717 l 706 842 l 831 842 l 831 883 l 889 883 l 889 783 l 797 783 l 797 800 l 872 800 l 872 867 l 847 867 l 847 825 l 722 825 l 722 700 l 664 700 l 664 742 l 639 742 l 639 675 l 831 675 l 831 742 l 806 742 l 806 700 l 747 700 l 747 792 l 764 792 l 764 717 l 789 717 l 789 758 l 847 758 l 847 658 l 622 658 m 1039 750 l 1039 800 l 1081 800 l 1081 875 l 1097 875 l 1097 783 l 1056 783 l 1056 750 l 1039 750 m 1122 708 l 1122 792 l 1139 792 l 1139 708 l 1122 708 m 206 575 l 206 667 l 222 667 l 222 592 l 247 592 l 247 675 l 306 675 l 306 633 l 372 633 l 372 675 l 431 675 l 431 592 l 456 592 l 456 633 l 497 633 l 497 717 l 539 717 l 539 742 l 347 742 l 347 717 l 472 717 l 472 667 l 456 667 l 456 700 l 331 700 l 331 758 l 556 758 l 556 700 l 514 700 l 514 617 l 472 617 l 472 575 l 414 575 l 414 658 l 389 658 l 389 617 l 289 617 l 289 658 l 264 658 l 264 575 l 206 575 m 247 700 l 247 750 l 264 750 l 264 717 l 289 717 l 289 750 l 306 750 l 306 700 l 247 700 m 872 700 l 872 750 l 889 750 l 889 717 l 964 717 l 964 700 l 872 700 m 1006 700 l 1006 717 l 1081 717 l 1081 750 l 1097 750 l 1097 700 l 1006 700 m 581 667 l 581 708 l 597 708 l 597 667 l 581 667 m 706 575 l 706 633 l 872 633 l 872 667 l 889 667 l 889 617 l 722 617 l 722 592 l 756 592 l 756 575 l 706 575 m 622 283 l 622 408 l 581 408 l 581 467 l 622 467 l 622 492 l 581 492 l 581 633 l 639 633 l 639 592 l 681 592 l 681 508 l 706 508 l 706 550 l 764 550 l 764 425 l 789 425 l 789 508 l 914 508 l 914 550 l 972 550 l 972 408 l 931 408 l 931 367 l 831 367 l 831 425 l 872 425 l 872 450 l 839 450 l 839 467 l 889 467 l 889 408 l 847 408 l 847 383 l 914 383 l 914 425 l 956 425 l 956 533 l 931 533 l 931 492 l 806 492 l 806 408 l 747 408 l 747 533 l 722 533 l 722 492 l 664 492 l 664 575 l 622 575 l 622 617 l 597 617 l 597 508 l 639 508 l 639 450 l 597 450 l 597 425 l 639 425 l 639 300 l 664 300 l 664 333 l 681 333 l 681 283 l 622 283 m 297 575 l 297 592 l 339 592 l 339 575 l 297 575 m 1039 367 l 1039 408 l 997 408 l 997 467 l 1039 467 l 1039 575 l 806 575 l 806 550 l 881 550 l 881 533 l 789 533 l 789 592 l 1056 592 l 1056 450 l 1014 450 l 1014 425 l 1056 425 l 1056 383 l 1122 383 l 1122 408 l 1081 408 l 1081 508 l 1181 508 l 1181 425 l 1206 425 l 1206 467 l 1247 467 l 1247 492 l 1206 492 l 1206 550 l 1247 550 l 1247 575 l 1097 575 l 1097 550 l 1172 550 l 1172 533 l 1081 533 l 1081 592 l 1264 592 l 1264 533 l 1222 533 l 1222 508 l 1264 508 l 1264 450 l 1222 450 l 1222 408 l 1164 408 l 1164 492 l 1097 492 l 1097 425 l 1139 425 l 1139 367 l 1039 367 m 206 408 l 206 467 l 339 467 l 339 450 l 222 450 l 222 425 l 372 425 l 372 467 l 414 467 l 414 492 l 289 492 l 289 550 l 472 550 l 472 500 l 456 500 l 456 533 l 306 533 l 306 508 l 431 508 l 431 450 l 389 450 l 389 408 l 206 408 m 164 458 l 164 550 l 264 550 l 264 492 l 214 492 l 214 508 l 247 508 l 247 533 l 181 533 l 181 458 l 164 458 m 997 500 l 997 542 l 1014 542 l 1014 500 l 997 500 m 664 375 l 664 467 l 722 467 l 722 417 l 706 417 l 706 450 l 681 450 l 681 375 l 664 375 m 122 375 l 122 425 l 181 425 l 181 375 l 164 375 l 164 408 l 139 408 l 139 375 l 122 375 m 922 325 l 922 342 l 956 342 l 956 383 l 1014 383 l 1014 342 l 1164 342 l 1164 383 l 1264 383 l 1264 325 l 1214 325 l 1214 342 l 1247 342 l 1247 367 l 1181 367 l 1181 325 l 997 325 l 997 367 l 972 367 l 972 325 l 922 325 m 289 33 l 289 92 l 331 92 l 331 175 l 389 175 l 389 133 l 414 133 l 414 175 l 472 175 l 472 133 l 597 133 l 597 92 l 639 92 l 639 50 l 664 50 l 664 242 l 597 242 l 597 200 l 539 200 l 539 342 l 581 342 l 581 367 l 514 367 l 514 325 l 414 325 l 414 367 l 389 367 l 389 325 l 331 325 l 331 367 l 222 367 l 222 342 l 306 342 l 306 292 l 289 292 l 289 325 l 206 325 l 206 383 l 347 383 l 347 342 l 372 342 l 372 383 l 431 383 l 431 342 l 497 342 l 497 383 l 597 383 l 597 325 l 556 325 l 556 217 l 581 217 l 581 258 l 681 258 l 681 33 l 622 33 l 622 75 l 581 75 l 581 117 l 456 117 l 456 158 l 431 158 l 431 117 l 372 117 l 372 158 l 347 158 l 347 75 l 306 75 l 306 50 l 339 50 l 339 33 l 289 33 m 956 33 l 956 117 l 914 117 l 914 200 l 872 200 l 872 325 l 847 325 l 847 283 l 806 283 l 806 200 l 747 200 l 747 242 l 706 242 l 706 300 l 747 300 l 747 325 l 706 325 l 706 383 l 806 383 l 806 333 l 789 333 l 789 367 l 722 367 l 722 342 l 764 342 l 764 283 l 722 283 l 722 258 l 764 258 l 764 217 l 789 217 l 789 300 l 831 300 l 831 342 l 889 342 l 889 217 l 931 217 l 931 133 l 972 133 l 972 50 l 1006 50 l 1006 33 l 956 33 m 81 250 l 81 300 l 122 300 l 122 325 l 89 325 l 89 342 l 139 342 l 139 283 l 97 283 l 97 250 l 81 250 m 214 283 l 214 300 l 256 300 l 256 283 l 214 283 m 422 200 l 422 217 l 456 217 l 456 258 l 497 258 l 497 283 l 389 283 l 389 208 l 372 208 l 372 300 l 514 300 l 514 242 l 472 242 l 472 200 l 422 200 m 164 75 l 164 175 l 247 175 l 247 200 l 122 200 l 122 250 l 139 250 l 139 217 l 264 217 l 264 158 l 181 158 l 181 92 l 206 92 l 206 133 l 289 133 l 289 217 l 331 217 l 331 242 l 164 242 l 164 292 l 181 292 l 181 258 l 347 258 l 347 200 l 306 200 l 306 117 l 222 117 l 222 75 l 164 75 m 956 158 l 956 217 l 997 217 l 997 242 l 922 242 l 922 258 l 1014 258 l 1014 200 l 972 200 l 972 175 l 1039 175 l 1039 258 l 1172 258 l 1172 242 l 1056 242 l 1056 158 l 956 158 m 1247 117 l 1247 167 l 1264 167 l 1264 133 l 1289 133 l 1289 200 l 1247 200 l 1247 242 l 1222 242 l 1222 125 l 1206 125 l 1206 258 l 1264 258 l 1264 217 l 1306 217 l 1306 117 l 1247 117 m 831 208 l 831 250 l 847 250 l 847 208 l 831 208 m 1089 200 l 1089 217 l 1131 217 l 1131 200 l 1089 200 m 89 75 l 89 92 l 122 92 l 122 117 l 39 117 l 39 217 l 97 217 l 97 175 l 131 175 l 131 158 l 81 158 l 81 200 l 56 200 l 56 133 l 139 133 l 139 75 l 89 75 m 622 125 l 622 158 l 497 158 l 497 208 l 514 208 l 514 175 l 639 175 l 639 125 l 622 125 m 1039 -8 l 1039 92 l 1122 92 l 1122 158 l 1097 158 l 1097 117 l 1014 117 l 1014 83 l 997 83 l 997 133 l 1081 133 l 1081 175 l 1139 175 l 1139 75 l 1056 75 l 1056 8 l 1122 8 l 1122 50 l 1181 50 l 1181 8 l 1289 8 l 1289 75 l 1164 75 l 1164 208 l 1181 208 l 1181 92 l 1306 92 l 1306 -8 l 1164 -8 l 1164 33 l 1139 33 l 1139 -8 l 1039 -8 m 706 42 l 706 92 l 747 92 l 747 133 l 789 133 l 789 158 l 722 158 l 722 125 l 706 125 l 706 175 l 806 175 l 806 117 l 764 117 l 764 75 l 722 75 l 722 42 l 706 42 m 839 158 l 839 175 l 881 175 l 881 158 l 839 158 m 672 -8 l 672 8 l 747 8 l 747 50 l 789 50 l 789 92 l 831 92 l 831 133 l 889 133 l 889 -8 l 797 -8 l 797 8 l 872 8 l 872 117 l 847 117 l 847 75 l 806 75 l 806 33 l 764 33 l 764 -8 l 672 -8 m -3 -8 l -3 92 l 56 92 l 56 50 l 139 50 l 139 0 l 122 0 l 122 33 l 39 33 l 39 75 l 14 75 l 14 8 l 89 8 l 89 -8 l -3 -8 m 172 -8 l 172 8 l 206 8 l 206 50 l 247 50 l 247 83 l 264 83 l 264 33 l 222 33 l 222 -8 l 172 -8 m 914 0 l 914 83 l 931 83 l 931 0 l 914 0 m 1214 33 l 1214 50 l 1256 50 l 1256 33 l 1214 33 m 581 -8 l 581 42 l 597 42 l 597 8 l 631 8 l 631 -8 l 581 -8 m 256 -8 l 256 8 l 297 8 l 297 -8 l 256 -8 m 964 -8 l 964 8 l 1006 8 l 1006 -8 l 964 -8 z "},"":{"ha":1396,"x_min":-3,"x_max":1306,"o":"m 289 783 l 289 925 l 372 925 l 372 967 l 472 967 l 472 925 l 497 925 l 497 967 l 556 967 l 556 925 l 581 925 l 581 967 l 722 967 l 722 883 l 789 883 l 789 967 l 847 967 l 847 925 l 872 925 l 872 967 l 922 967 l 922 950 l 889 950 l 889 908 l 831 908 l 831 950 l 806 950 l 806 867 l 706 867 l 706 950 l 597 950 l 597 908 l 539 908 l 539 950 l 514 950 l 514 908 l 456 908 l 456 950 l 389 950 l 389 908 l 306 908 l 306 800 l 456 800 l 456 867 l 347 867 l 347 842 l 422 842 l 422 825 l 331 825 l 331 883 l 472 883 l 472 783 l 289 783 m 1164 917 l 1164 950 l 964 950 l 964 967 l 1181 967 l 1181 917 l 1164 917 m 1214 950 l 1214 967 l 1256 967 l 1256 950 l 1214 950 m 747 917 l 747 958 l 764 958 l 764 917 l 747 917 m 539 783 l 539 825 l 497 825 l 497 883 l 597 883 l 597 842 l 631 842 l 631 825 l 581 825 l 581 867 l 514 867 l 514 842 l 556 842 l 556 800 l 664 800 l 664 867 l 622 867 l 622 925 l 672 925 l 672 908 l 639 908 l 639 883 l 681 883 l 681 783 l 539 783 m 956 742 l 956 783 l 931 783 l 931 750 l 914 750 l 914 800 l 972 800 l 972 758 l 997 758 l 997 842 l 1039 842 l 1039 867 l 956 867 l 956 908 l 931 908 l 931 842 l 964 842 l 964 825 l 914 825 l 914 925 l 972 925 l 972 883 l 1056 883 l 1056 825 l 1014 825 l 1014 742 l 956 742 m 1247 700 l 1247 783 l 1206 783 l 1206 925 l 1297 925 l 1297 908 l 1222 908 l 1222 800 l 1264 800 l 1264 717 l 1289 717 l 1289 825 l 1247 825 l 1247 883 l 1297 883 l 1297 867 l 1264 867 l 1264 842 l 1306 842 l 1306 700 l 1247 700 m 1006 908 l 1006 925 l 1047 925 l 1047 908 l 1006 908 m 1164 700 l 1164 825 l 1122 825 l 1122 908 l 1089 908 l 1089 925 l 1139 925 l 1139 842 l 1181 842 l 1181 717 l 1206 717 l 1206 750 l 1222 750 l 1222 700 l 1164 700 m 622 658 l 622 758 l 681 758 l 681 717 l 706 717 l 706 842 l 831 842 l 831 883 l 889 883 l 889 783 l 797 783 l 797 800 l 872 800 l 872 867 l 847 867 l 847 825 l 722 825 l 722 700 l 664 700 l 664 742 l 639 742 l 639 675 l 831 675 l 831 742 l 806 742 l 806 700 l 747 700 l 747 792 l 764 792 l 764 717 l 789 717 l 789 758 l 847 758 l 847 658 l 622 658 m 1039 750 l 1039 800 l 1081 800 l 1081 875 l 1097 875 l 1097 783 l 1056 783 l 1056 750 l 1039 750 m 1122 708 l 1122 792 l 1139 792 l 1139 708 l 1122 708 m 206 575 l 206 667 l 222 667 l 222 592 l 247 592 l 247 675 l 306 675 l 306 633 l 372 633 l 372 675 l 431 675 l 431 592 l 456 592 l 456 633 l 497 633 l 497 717 l 539 717 l 539 742 l 347 742 l 347 717 l 472 717 l 472 667 l 456 667 l 456 700 l 331 700 l 331 758 l 556 758 l 556 700 l 514 700 l 514 617 l 472 617 l 472 575 l 414 575 l 414 658 l 389 658 l 389 617 l 289 617 l 289 658 l 264 658 l 264 575 l 206 575 m 247 700 l 247 750 l 264 750 l 264 717 l 289 717 l 289 750 l 306 750 l 306 700 l 247 700 m 872 700 l 872 750 l 889 750 l 889 717 l 964 717 l 964 700 l 872 700 m 1006 700 l 1006 717 l 1081 717 l 1081 750 l 1097 750 l 1097 700 l 1006 700 m 581 667 l 581 708 l 597 708 l 597 667 l 581 667 m 706 575 l 706 633 l 872 633 l 872 667 l 889 667 l 889 617 l 722 617 l 722 592 l 756 592 l 756 575 l 706 575 m 622 283 l 622 408 l 581 408 l 581 467 l 622 467 l 622 492 l 581 492 l 581 633 l 639 633 l 639 592 l 681 592 l 681 508 l 706 508 l 706 550 l 764 550 l 764 425 l 789 425 l 789 508 l 914 508 l 914 550 l 972 550 l 972 408 l 931 408 l 931 367 l 831 367 l 831 425 l 872 425 l 872 450 l 839 450 l 839 467 l 889 467 l 889 408 l 847 408 l 847 383 l 914 383 l 914 425 l 956 425 l 956 533 l 931 533 l 931 492 l 806 492 l 806 408 l 747 408 l 747 533 l 722 533 l 722 492 l 664 492 l 664 575 l 622 575 l 622 617 l 597 617 l 597 508 l 639 508 l 639 450 l 597 450 l 597 425 l 639 425 l 639 300 l 664 300 l 664 333 l 681 333 l 681 283 l 622 283 m 297 575 l 297 592 l 339 592 l 339 575 l 297 575 m 1039 367 l 1039 408 l 997 408 l 997 467 l 1039 467 l 1039 575 l 806 575 l 806 550 l 881 550 l 881 533 l 789 533 l 789 592 l 1056 592 l 1056 450 l 1014 450 l 1014 425 l 1056 425 l 1056 383 l 1122 383 l 1122 408 l 1081 408 l 1081 508 l 1181 508 l 1181 425 l 1206 425 l 1206 467 l 1247 467 l 1247 492 l 1206 492 l 1206 550 l 1247 550 l 1247 575 l 1097 575 l 1097 550 l 1172 550 l 1172 533 l 1081 533 l 1081 592 l 1264 592 l 1264 533 l 1222 533 l 1222 508 l 1264 508 l 1264 450 l 1222 450 l 1222 408 l 1164 408 l 1164 492 l 1097 492 l 1097 425 l 1139 425 l 1139 367 l 1039 367 m 206 408 l 206 467 l 339 467 l 339 450 l 222 450 l 222 425 l 372 425 l 372 467 l 414 467 l 414 492 l 289 492 l 289 550 l 472 550 l 472 500 l 456 500 l 456 533 l 306 533 l 306 508 l 431 508 l 431 450 l 389 450 l 389 408 l 206 408 m 164 458 l 164 550 l 264 550 l 264 492 l 214 492 l 214 508 l 247 508 l 247 533 l 181 533 l 181 458 l 164 458 m 997 500 l 997 542 l 1014 542 l 1014 500 l 997 500 m 664 375 l 664 467 l 722 467 l 722 417 l 706 417 l 706 450 l 681 450 l 681 375 l 664 375 m 122 375 l 122 425 l 181 425 l 181 375 l 164 375 l 164 408 l 139 408 l 139 375 l 122 375 m 922 325 l 922 342 l 956 342 l 956 383 l 1014 383 l 1014 342 l 1164 342 l 1164 383 l 1264 383 l 1264 325 l 1214 325 l 1214 342 l 1247 342 l 1247 367 l 1181 367 l 1181 325 l 997 325 l 997 367 l 972 367 l 972 325 l 922 325 m 289 33 l 289 92 l 331 92 l 331 175 l 389 175 l 389 133 l 414 133 l 414 175 l 472 175 l 472 133 l 597 133 l 597 92 l 639 92 l 639 50 l 664 50 l 664 242 l 597 242 l 597 200 l 539 200 l 539 342 l 581 342 l 581 367 l 514 367 l 514 325 l 414 325 l 414 367 l 389 367 l 389 325 l 331 325 l 331 367 l 222 367 l 222 342 l 306 342 l 306 292 l 289 292 l 289 325 l 206 325 l 206 383 l 347 383 l 347 342 l 372 342 l 372 383 l 431 383 l 431 342 l 497 342 l 497 383 l 597 383 l 597 325 l 556 325 l 556 217 l 581 217 l 581 258 l 681 258 l 681 33 l 622 33 l 622 75 l 581 75 l 581 117 l 456 117 l 456 158 l 431 158 l 431 117 l 372 117 l 372 158 l 347 158 l 347 75 l 306 75 l 306 50 l 339 50 l 339 33 l 289 33 m 956 33 l 956 117 l 914 117 l 914 200 l 872 200 l 872 325 l 847 325 l 847 283 l 806 283 l 806 200 l 747 200 l 747 242 l 706 242 l 706 300 l 747 300 l 747 325 l 706 325 l 706 383 l 806 383 l 806 333 l 789 333 l 789 367 l 722 367 l 722 342 l 764 342 l 764 283 l 722 283 l 722 258 l 764 258 l 764 217 l 789 217 l 789 300 l 831 300 l 831 342 l 889 342 l 889 217 l 931 217 l 931 133 l 972 133 l 972 50 l 1006 50 l 1006 33 l 956 33 m 81 250 l 81 300 l 122 300 l 122 325 l 89 325 l 89 342 l 139 342 l 139 283 l 97 283 l 97 250 l 81 250 m 214 283 l 214 300 l 256 300 l 256 283 l 214 283 m 422 200 l 422 217 l 456 217 l 456 258 l 497 258 l 497 283 l 389 283 l 389 208 l 372 208 l 372 300 l 514 300 l 514 242 l 472 242 l 472 200 l 422 200 m 164 75 l 164 175 l 247 175 l 247 200 l 122 200 l 122 250 l 139 250 l 139 217 l 264 217 l 264 158 l 181 158 l 181 92 l 206 92 l 206 133 l 289 133 l 289 217 l 331 217 l 331 242 l 164 242 l 164 292 l 181 292 l 181 258 l 347 258 l 347 200 l 306 200 l 306 117 l 222 117 l 222 75 l 164 75 m 956 158 l 956 217 l 997 217 l 997 242 l 922 242 l 922 258 l 1014 258 l 1014 200 l 972 200 l 972 175 l 1039 175 l 1039 258 l 1172 258 l 1172 242 l 1056 242 l 1056 158 l 956 158 m 1247 117 l 1247 167 l 1264 167 l 1264 133 l 1289 133 l 1289 200 l 1247 200 l 1247 242 l 1222 242 l 1222 125 l 1206 125 l 1206 258 l 1264 258 l 1264 217 l 1306 217 l 1306 117 l 1247 117 m 831 208 l 831 250 l 847 250 l 847 208 l 831 208 m 1089 200 l 1089 217 l 1131 217 l 1131 200 l 1089 200 m 89 75 l 89 92 l 122 92 l 122 117 l 39 117 l 39 217 l 97 217 l 97 175 l 131 175 l 131 158 l 81 158 l 81 200 l 56 200 l 56 133 l 139 133 l 139 75 l 89 75 m 622 125 l 622 158 l 497 158 l 497 208 l 514 208 l 514 175 l 639 175 l 639 125 l 622 125 m 1039 -8 l 1039 92 l 1122 92 l 1122 158 l 1097 158 l 1097 117 l 1014 117 l 1014 83 l 997 83 l 997 133 l 1081 133 l 1081 175 l 1139 175 l 1139 75 l 1056 75 l 1056 8 l 1122 8 l 1122 50 l 1181 50 l 1181 8 l 1289 8 l 1289 75 l 1164 75 l 1164 208 l 1181 208 l 1181 92 l 1306 92 l 1306 -8 l 1164 -8 l 1164 33 l 1139 33 l 1139 -8 l 1039 -8 m 706 42 l 706 92 l 747 92 l 747 133 l 789 133 l 789 158 l 722 158 l 722 125 l 706 125 l 706 175 l 806 175 l 806 117 l 764 117 l 764 75 l 722 75 l 722 42 l 706 42 m 839 158 l 839 175 l 881 175 l 881 158 l 839 158 m 672 -8 l 672 8 l 747 8 l 747 50 l 789 50 l 789 92 l 831 92 l 831 133 l 889 133 l 889 -8 l 797 -8 l 797 8 l 872 8 l 872 117 l 847 117 l 847 75 l 806 75 l 806 33 l 764 33 l 764 -8 l 672 -8 m -3 -8 l -3 92 l 56 92 l 56 50 l 139 50 l 139 0 l 122 0 l 122 33 l 39 33 l 39 75 l 14 75 l 14 8 l 89 8 l 89 -8 l -3 -8 m 172 -8 l 172 8 l 206 8 l 206 50 l 247 50 l 247 83 l 264 83 l 264 33 l 222 33 l 222 -8 l 172 -8 m 914 0 l 914 83 l 931 83 l 931 0 l 914 0 m 1214 33 l 1214 50 l 1256 50 l 1256 33 l 1214 33 m 581 -8 l 581 42 l 597 42 l 597 8 l 631 8 l 631 -8 l 581 -8 m 256 -8 l 256 8 l 297 8 l 297 -8 l 256 -8 m 964 -8 l 964 8 l 1006 8 l 1006 -8 l 964 -8 m 747 1033 l 747 1242 l 722 1242 l 722 1075 l 664 1075 l 664 1117 l 589 1117 l 589 1133 l 681 1133 l 681 1092 l 706 1092 l 706 1258 l 764 1258 l 764 1050 l 789 1050 l 789 1125 l 806 1125 l 806 1033 l 747 1033 m 831 1117 l 831 1158 l 789 1158 l 789 1258 l 847 1258 l 847 1208 l 831 1208 l 831 1242 l 806 1242 l 806 1175 l 847 1175 l 847 1133 l 872 1133 l 872 1175 l 914 1175 l 914 1217 l 997 1217 l 997 1242 l 889 1242 l 889 1208 l 872 1208 l 872 1258 l 1014 1258 l 1014 1200 l 931 1200 l 931 1158 l 889 1158 l 889 1117 l 831 1117 m 631 1158 l 631 1175 l 664 1175 l 664 1208 l 681 1208 l 681 1158 l 631 1158 m 547 1033 l 547 1050 l 581 1050 l 581 1075 l 547 1075 l 547 1092 l 597 1092 l 597 1033 l 547 1033 m 622 1033 l 622 1083 l 639 1083 l 639 1050 l 714 1050 l 714 1033 l 622 1033 z "},"B":{"ha":1019,"x_min":68,"x_max":960,"o":"m 151 917 l 151 950 l 118 950 l 118 967 l 168 967 l 168 917 l 151 917 m 193 867 l 193 925 l 376 925 l 376 883 l 568 883 l 568 908 l 526 908 l 526 967 l 626 967 l 626 875 l 610 875 l 610 950 l 543 950 l 543 925 l 585 925 l 585 867 l 360 867 l 360 908 l 210 908 l 210 883 l 243 883 l 243 867 l 193 867 m 243 950 l 243 967 l 368 967 l 368 950 l 243 950 m 401 908 l 401 967 l 501 967 l 501 917 l 485 917 l 485 950 l 418 950 l 418 925 l 451 925 l 451 908 l 401 908 m 68 700 l 68 842 l 110 842 l 110 867 l 68 867 l 68 925 l 118 925 l 118 908 l 85 908 l 85 883 l 126 883 l 126 825 l 85 825 l 85 717 l 110 717 l 110 758 l 151 758 l 151 783 l 118 783 l 118 800 l 168 800 l 168 742 l 126 742 l 126 700 l 68 700 m 276 450 l 276 658 l 235 658 l 235 717 l 335 717 l 335 675 l 401 675 l 401 717 l 526 717 l 526 742 l 485 742 l 485 800 l 568 800 l 568 842 l 626 842 l 626 800 l 751 800 l 751 758 l 776 758 l 776 800 l 818 800 l 818 867 l 793 867 l 793 825 l 651 825 l 651 925 l 710 925 l 710 883 l 735 883 l 735 925 l 785 925 l 785 908 l 751 908 l 751 867 l 693 867 l 693 908 l 668 908 l 668 842 l 776 842 l 776 883 l 835 883 l 835 783 l 793 783 l 793 742 l 735 742 l 735 783 l 610 783 l 610 825 l 585 825 l 585 783 l 501 783 l 501 758 l 543 758 l 543 700 l 418 700 l 418 658 l 318 658 l 318 700 l 251 700 l 251 675 l 293 675 l 293 467 l 318 467 l 318 508 l 401 508 l 401 542 l 418 542 l 418 492 l 335 492 l 335 450 l 276 450 m 318 825 l 318 867 l 293 867 l 293 833 l 276 833 l 276 883 l 335 883 l 335 842 l 368 842 l 368 825 l 318 825 m 151 833 l 151 875 l 168 875 l 168 833 l 151 833 m 151 625 l 151 717 l 193 717 l 193 842 l 251 842 l 251 800 l 401 800 l 401 842 l 460 842 l 460 742 l 243 742 l 243 758 l 443 758 l 443 825 l 418 825 l 418 783 l 235 783 l 235 825 l 210 825 l 210 700 l 168 700 l 168 625 l 151 625 m 493 825 l 493 842 l 535 842 l 535 825 l 493 825 m 735 617 l 735 700 l 701 700 l 701 717 l 751 717 l 751 633 l 818 633 l 818 675 l 901 675 l 901 783 l 876 783 l 876 700 l 818 700 l 818 750 l 835 750 l 835 717 l 860 717 l 860 800 l 918 800 l 918 658 l 835 658 l 835 617 l 735 617 m 651 708 l 651 758 l 701 758 l 701 742 l 668 742 l 668 708 l 651 708 m 568 700 l 568 750 l 585 750 l 585 717 l 610 717 l 610 750 l 626 750 l 626 700 l 568 700 m 776 667 l 776 708 l 793 708 l 793 667 l 776 667 m 76 658 l 76 675 l 118 675 l 118 658 l 76 658 m 443 450 l 443 550 l 501 550 l 501 508 l 610 508 l 610 658 l 585 658 l 585 625 l 568 625 l 568 675 l 626 675 l 626 492 l 485 492 l 485 533 l 460 533 l 460 467 l 493 467 l 493 450 l 443 450 m 651 575 l 651 675 l 710 675 l 710 625 l 693 625 l 693 658 l 668 658 l 668 592 l 868 592 l 868 575 l 651 575 m 151 533 l 151 575 l 68 575 l 68 633 l 118 633 l 118 617 l 85 617 l 85 592 l 168 592 l 168 550 l 235 550 l 235 617 l 210 617 l 210 583 l 193 583 l 193 633 l 251 633 l 251 533 l 151 533 m 318 533 l 318 633 l 418 633 l 418 592 l 543 592 l 543 550 l 568 550 l 568 583 l 585 583 l 585 533 l 526 533 l 526 575 l 401 575 l 401 617 l 335 617 l 335 550 l 360 550 l 360 583 l 376 583 l 376 533 l 318 533 m 901 583 l 901 617 l 868 617 l 868 633 l 918 633 l 918 583 l 901 583 m 651 -8 l 651 33 l 618 33 l 618 50 l 668 50 l 668 8 l 693 8 l 693 50 l 735 50 l 735 158 l 693 158 l 693 217 l 735 217 l 735 242 l 651 242 l 651 283 l 610 283 l 610 325 l 568 325 l 568 383 l 668 383 l 668 342 l 693 342 l 693 492 l 651 492 l 651 550 l 751 550 l 751 508 l 776 508 l 776 550 l 835 550 l 835 408 l 793 408 l 793 367 l 735 367 l 735 467 l 785 467 l 785 450 l 751 450 l 751 383 l 776 383 l 776 425 l 818 425 l 818 533 l 793 533 l 793 492 l 735 492 l 735 533 l 668 533 l 668 508 l 710 508 l 710 325 l 651 325 l 651 367 l 585 367 l 585 342 l 626 342 l 626 300 l 668 300 l 668 258 l 751 258 l 751 200 l 710 200 l 710 175 l 751 175 l 751 33 l 710 33 l 710 -8 l 651 -8 m 193 408 l 193 450 l 68 450 l 68 508 l 110 508 l 110 533 l 76 533 l 76 550 l 126 550 l 126 492 l 85 492 l 85 467 l 210 467 l 210 425 l 235 425 l 235 500 l 251 500 l 251 408 l 193 408 m 160 492 l 160 508 l 201 508 l 201 492 l 160 492 m 368 450 l 368 467 l 410 467 l 410 450 l 368 450 m 401 367 l 401 425 l 526 425 l 526 467 l 585 467 l 585 425 l 610 425 l 610 458 l 626 458 l 626 408 l 568 408 l 568 450 l 543 450 l 543 408 l 418 408 l 418 383 l 535 383 l 535 367 l 401 367 m 651 417 l 651 458 l 668 458 l 668 417 l 651 417 m 860 417 l 860 458 l 876 458 l 876 417 l 860 417 m 360 325 l 360 408 l 293 408 l 293 367 l 68 367 l 68 425 l 160 425 l 160 408 l 85 408 l 85 383 l 276 383 l 276 425 l 376 425 l 376 342 l 410 342 l 410 325 l 360 325 m 860 200 l 860 242 l 818 242 l 818 283 l 776 283 l 776 342 l 876 342 l 876 300 l 901 300 l 901 367 l 826 367 l 826 383 l 918 383 l 918 283 l 860 283 l 860 325 l 793 325 l 793 300 l 835 300 l 835 258 l 876 258 l 876 217 l 943 217 l 943 242 l 910 242 l 910 258 l 960 258 l 960 200 l 860 200 m 943 292 l 943 375 l 960 375 l 960 292 l 943 292 m 276 283 l 276 342 l 318 342 l 318 375 l 335 375 l 335 325 l 293 325 l 293 300 l 326 300 l 326 283 l 276 283 m 76 -8 l 76 8 l 110 8 l 110 33 l 68 33 l 68 175 l 110 175 l 110 200 l 68 200 l 68 342 l 168 342 l 168 283 l 126 283 l 126 250 l 110 250 l 110 300 l 151 300 l 151 325 l 85 325 l 85 217 l 126 217 l 126 158 l 85 158 l 85 50 l 126 50 l 126 -8 l 76 -8 m 201 325 l 201 342 l 243 342 l 243 325 l 201 325 m 701 283 l 701 300 l 735 300 l 735 333 l 751 333 l 751 283 l 701 283 m 235 -8 l 235 33 l 193 33 l 193 75 l 110 75 l 110 133 l 201 133 l 201 117 l 126 117 l 126 92 l 210 92 l 210 50 l 251 50 l 251 8 l 276 8 l 276 75 l 235 75 l 235 200 l 193 200 l 193 300 l 251 300 l 251 258 l 335 258 l 335 200 l 285 200 l 285 217 l 318 217 l 318 242 l 235 242 l 235 283 l 210 283 l 210 217 l 251 217 l 251 92 l 293 92 l 293 -8 l 235 -8 m 485 117 l 485 158 l 443 158 l 443 200 l 360 200 l 360 300 l 418 300 l 418 250 l 401 250 l 401 283 l 376 283 l 376 217 l 460 217 l 460 175 l 501 175 l 501 133 l 526 133 l 526 167 l 543 167 l 543 117 l 485 117 m 568 75 l 568 258 l 626 258 l 626 217 l 660 217 l 660 200 l 610 200 l 610 242 l 585 242 l 585 92 l 693 92 l 693 117 l 651 117 l 651 167 l 668 167 l 668 133 l 710 133 l 710 75 l 568 75 m 151 208 l 151 250 l 168 250 l 168 208 l 151 208 m 776 200 l 776 250 l 793 250 l 793 217 l 826 217 l 826 200 l 776 200 m 493 200 l 493 217 l 535 217 l 535 200 l 493 200 m 160 158 l 160 175 l 201 175 l 201 158 l 160 158 m 276 117 l 276 175 l 418 175 l 418 125 l 401 125 l 401 158 l 293 158 l 293 133 l 368 133 l 368 117 l 276 117 m 776 33 l 776 133 l 835 133 l 835 92 l 860 92 l 860 158 l 785 158 l 785 175 l 876 175 l 876 75 l 818 75 l 818 117 l 793 117 l 793 50 l 826 50 l 826 33 l 776 33 m 610 125 l 610 167 l 626 167 l 626 125 l 610 125 m 901 125 l 901 167 l 918 167 l 918 125 l 901 125 m 318 -8 l 318 92 l 451 92 l 451 75 l 335 75 l 335 8 l 360 8 l 360 50 l 543 50 l 543 -8 l 410 -8 l 410 8 l 526 8 l 526 33 l 376 33 l 376 -8 l 318 -8 m 493 75 l 493 92 l 535 92 l 535 75 l 493 75 m 151 -8 l 151 42 l 168 42 l 168 8 l 201 8 l 201 -8 l 151 -8 m 568 -8 l 568 42 l 585 42 l 585 8 l 618 8 l 618 -8 l 568 -8 z "},"C":{"ha":1018,"x_min":40,"x_max":974,"o":"m 207 861 l 207 911 l 290 911 l 290 953 l 349 953 l 349 903 l 332 903 l 332 936 l 307 936 l 307 894 l 224 894 l 224 861 l 207 861 m 290 728 l 290 778 l 307 778 l 307 744 l 332 744 l 332 786 l 374 786 l 374 953 l 474 953 l 474 811 l 424 811 l 424 828 l 457 828 l 457 936 l 390 936 l 390 769 l 349 769 l 349 728 l 290 728 m 624 811 l 624 853 l 499 853 l 499 953 l 557 953 l 557 911 l 582 911 l 582 953 l 674 953 l 674 936 l 599 936 l 599 894 l 540 894 l 540 936 l 515 936 l 515 869 l 640 869 l 640 828 l 749 828 l 749 853 l 665 853 l 665 894 l 632 894 l 632 911 l 682 911 l 682 869 l 765 869 l 765 811 l 624 811 m 832 819 l 832 853 l 790 853 l 790 894 l 715 894 l 715 911 l 807 911 l 807 869 l 849 869 l 849 819 l 832 819 m 415 861 l 415 903 l 432 903 l 432 861 l 415 861 m 40 394 l 40 494 l 82 494 l 82 561 l 57 561 l 57 528 l 40 528 l 40 578 l 99 578 l 99 478 l 57 478 l 57 411 l 165 411 l 165 494 l 207 494 l 207 536 l 290 536 l 290 561 l 249 561 l 249 603 l 165 603 l 165 661 l 207 661 l 207 686 l 165 686 l 165 728 l 82 728 l 82 786 l 124 786 l 124 828 l 182 828 l 182 786 l 249 786 l 249 828 l 290 828 l 290 869 l 349 869 l 349 819 l 332 819 l 332 853 l 307 853 l 307 811 l 265 811 l 265 769 l 165 769 l 165 811 l 140 811 l 140 769 l 99 769 l 99 744 l 182 744 l 182 703 l 224 703 l 224 644 l 182 644 l 182 619 l 265 619 l 265 578 l 307 578 l 307 519 l 224 519 l 224 478 l 182 478 l 182 394 l 40 394 m 582 769 l 582 811 l 507 811 l 507 828 l 599 828 l 599 786 l 632 786 l 632 769 l 582 769 m 249 653 l 249 703 l 374 703 l 374 744 l 415 744 l 415 786 l 515 786 l 515 686 l 424 686 l 424 703 l 499 703 l 499 769 l 432 769 l 432 728 l 390 728 l 390 686 l 265 686 l 265 653 l 249 653 m 665 686 l 665 786 l 807 786 l 807 694 l 790 694 l 790 769 l 682 769 l 682 703 l 749 703 l 749 736 l 765 736 l 765 686 l 665 686 m 665 603 l 665 661 l 799 661 l 799 644 l 682 644 l 682 619 l 832 619 l 832 661 l 890 661 l 890 619 l 915 619 l 915 769 l 890 769 l 890 728 l 849 728 l 849 703 l 882 703 l 882 686 l 832 686 l 832 744 l 874 744 l 874 786 l 932 786 l 932 603 l 874 603 l 874 644 l 849 644 l 849 603 l 665 603 m 582 653 l 582 703 l 624 703 l 624 728 l 540 728 l 540 778 l 557 778 l 557 744 l 640 744 l 640 686 l 599 686 l 599 653 l 582 653 m 215 728 l 215 744 l 257 744 l 257 728 l 215 728 m 90 436 l 90 453 l 124 453 l 124 536 l 165 536 l 165 561 l 124 561 l 124 603 l 82 603 l 82 686 l 57 686 l 57 611 l 40 611 l 40 703 l 99 703 l 99 619 l 140 619 l 140 578 l 182 578 l 182 519 l 140 519 l 140 436 l 90 436 m 124 653 l 124 694 l 140 694 l 140 653 l 124 653 m 249 436 l 249 494 l 374 494 l 374 644 l 307 644 l 307 619 l 349 619 l 349 528 l 332 528 l 332 603 l 290 603 l 290 661 l 390 661 l 390 478 l 265 478 l 265 453 l 299 453 l 299 436 l 249 436 m 957 611 l 957 653 l 974 653 l 974 611 l 957 611 m 624 611 l 624 653 l 640 653 l 640 611 l 624 611 m 332 269 l 332 361 l 349 361 l 349 286 l 374 286 l 374 394 l 332 394 l 332 453 l 382 453 l 382 436 l 349 436 l 349 411 l 390 411 l 390 269 l 332 269 m 207 394 l 207 444 l 224 444 l 224 411 l 299 411 l 299 394 l 207 394 m 124 278 l 124 311 l 82 311 l 82 369 l 132 369 l 132 353 l 99 353 l 99 328 l 140 328 l 140 278 l 124 278 m 82 144 l 82 203 l 124 203 l 124 228 l 90 228 l 90 244 l 140 244 l 140 186 l 99 186 l 99 161 l 207 161 l 207 186 l 165 186 l 165 244 l 207 244 l 207 286 l 249 286 l 249 328 l 290 328 l 290 353 l 182 353 l 182 328 l 215 328 l 215 311 l 165 311 l 165 369 l 307 369 l 307 311 l 265 311 l 265 269 l 224 269 l 224 228 l 182 228 l 182 203 l 224 203 l 224 144 l 82 144 m 790 236 l 790 311 l 749 311 l 749 353 l 674 353 l 674 369 l 765 369 l 765 328 l 807 328 l 807 236 l 790 236 m 799 353 l 799 369 l 882 369 l 882 353 l 799 353 m 40 319 l 40 361 l 57 361 l 57 319 l 40 319 m 874 269 l 874 319 l 890 319 l 890 286 l 915 286 l 915 328 l 974 328 l 974 278 l 957 278 l 957 311 l 932 311 l 932 269 l 874 269 m 457 144 l 457 203 l 499 203 l 499 244 l 624 244 l 624 269 l 582 269 l 582 328 l 724 328 l 724 269 l 682 269 l 682 244 l 724 244 l 724 144 l 665 144 l 665 194 l 682 194 l 682 161 l 707 161 l 707 228 l 665 228 l 665 286 l 707 286 l 707 311 l 599 311 l 599 286 l 640 286 l 640 228 l 515 228 l 515 186 l 474 186 l 474 161 l 507 161 l 507 144 l 457 144 m 832 278 l 832 319 l 849 319 l 849 278 l 832 278 m 49 269 l 49 286 l 90 286 l 90 269 l 49 269 m 749 236 l 749 278 l 765 278 l 765 236 l 749 236 m 249 61 l 249 244 l 349 244 l 349 144 l 290 144 l 290 194 l 307 194 l 307 161 l 332 161 l 332 228 l 265 228 l 265 78 l 332 78 l 332 103 l 299 103 l 299 119 l 349 119 l 349 61 l 249 61 m 382 144 l 382 161 l 415 161 l 415 186 l 374 186 l 374 244 l 424 244 l 424 228 l 390 228 l 390 203 l 432 203 l 432 144 l 382 144 m 624 -22 l 624 19 l 582 19 l 582 61 l 540 61 l 540 119 l 582 119 l 582 144 l 540 144 l 540 203 l 640 203 l 640 119 l 682 119 l 682 36 l 790 36 l 790 61 l 707 61 l 707 119 l 790 119 l 790 144 l 749 144 l 749 203 l 832 203 l 832 244 l 890 244 l 890 203 l 932 203 l 932 144 l 882 144 l 882 161 l 915 161 l 915 186 l 874 186 l 874 228 l 849 228 l 849 186 l 765 186 l 765 161 l 807 161 l 807 103 l 724 103 l 724 78 l 807 78 l 807 19 l 665 19 l 665 103 l 624 103 l 624 186 l 557 186 l 557 161 l 599 161 l 599 103 l 557 103 l 557 78 l 599 78 l 599 36 l 640 36 l 640 -6 l 674 -6 l 674 -22 l 624 -22 m 832 69 l 832 153 l 849 153 l 849 69 l 832 69 m 132 103 l 132 119 l 174 119 l 174 103 l 132 103 m 290 -22 l 290 36 l 390 36 l 390 -6 l 457 -6 l 457 19 l 415 19 l 415 61 l 374 61 l 374 119 l 507 119 l 507 103 l 390 103 l 390 78 l 432 78 l 432 36 l 474 36 l 474 -22 l 374 -22 l 374 19 l 307 19 l 307 -6 l 340 -6 l 340 -22 l 290 -22 m 207 19 l 207 111 l 224 111 l 224 36 l 257 36 l 257 19 l 207 19 m 465 61 l 465 78 l 507 78 l 507 61 l 465 61 m 507 -22 l 507 -6 l 540 -6 l 540 19 l 507 19 l 507 36 l 557 36 l 557 -22 l 507 -22 z "},"":{"ha":1018,"x_min":40,"x_max":974,"o":"m 207 861 l 207 911 l 290 911 l 290 953 l 349 953 l 349 903 l 332 903 l 332 936 l 307 936 l 307 894 l 224 894 l 224 861 l 207 861 m 290 728 l 290 778 l 307 778 l 307 744 l 332 744 l 332 786 l 374 786 l 374 953 l 474 953 l 474 811 l 424 811 l 424 828 l 457 828 l 457 936 l 390 936 l 390 769 l 349 769 l 349 728 l 290 728 m 624 811 l 624 853 l 499 853 l 499 953 l 557 953 l 557 911 l 582 911 l 582 953 l 674 953 l 674 936 l 599 936 l 599 894 l 540 894 l 540 936 l 515 936 l 515 869 l 640 869 l 640 828 l 749 828 l 749 853 l 665 853 l 665 894 l 632 894 l 632 911 l 682 911 l 682 869 l 765 869 l 765 811 l 624 811 m 832 819 l 832 853 l 790 853 l 790 894 l 715 894 l 715 911 l 807 911 l 807 869 l 849 869 l 849 819 l 832 819 m 415 861 l 415 903 l 432 903 l 432 861 l 415 861 m 40 394 l 40 494 l 82 494 l 82 561 l 57 561 l 57 528 l 40 528 l 40 578 l 99 578 l 99 478 l 57 478 l 57 411 l 165 411 l 165 494 l 207 494 l 207 536 l 290 536 l 290 561 l 249 561 l 249 603 l 165 603 l 165 661 l 207 661 l 207 686 l 165 686 l 165 728 l 82 728 l 82 786 l 124 786 l 124 828 l 182 828 l 182 786 l 249 786 l 249 828 l 290 828 l 290 869 l 349 869 l 349 819 l 332 819 l 332 853 l 307 853 l 307 811 l 265 811 l 265 769 l 165 769 l 165 811 l 140 811 l 140 769 l 99 769 l 99 744 l 182 744 l 182 703 l 224 703 l 224 644 l 182 644 l 182 619 l 265 619 l 265 578 l 307 578 l 307 519 l 224 519 l 224 478 l 182 478 l 182 394 l 40 394 m 582 769 l 582 811 l 507 811 l 507 828 l 599 828 l 599 786 l 632 786 l 632 769 l 582 769 m 249 653 l 249 703 l 374 703 l 374 744 l 415 744 l 415 786 l 515 786 l 515 686 l 424 686 l 424 703 l 499 703 l 499 769 l 432 769 l 432 728 l 390 728 l 390 686 l 265 686 l 265 653 l 249 653 m 665 686 l 665 786 l 807 786 l 807 694 l 790 694 l 790 769 l 682 769 l 682 703 l 749 703 l 749 736 l 765 736 l 765 686 l 665 686 m 665 603 l 665 661 l 799 661 l 799 644 l 682 644 l 682 619 l 832 619 l 832 661 l 890 661 l 890 619 l 915 619 l 915 769 l 890 769 l 890 728 l 849 728 l 849 703 l 882 703 l 882 686 l 832 686 l 832 744 l 874 744 l 874 786 l 932 786 l 932 603 l 874 603 l 874 644 l 849 644 l 849 603 l 665 603 m 582 653 l 582 703 l 624 703 l 624 728 l 540 728 l 540 778 l 557 778 l 557 744 l 640 744 l 640 686 l 599 686 l 599 653 l 582 653 m 215 728 l 215 744 l 257 744 l 257 728 l 215 728 m 90 436 l 90 453 l 124 453 l 124 536 l 165 536 l 165 561 l 124 561 l 124 603 l 82 603 l 82 686 l 57 686 l 57 611 l 40 611 l 40 703 l 99 703 l 99 619 l 140 619 l 140 578 l 182 578 l 182 519 l 140 519 l 140 436 l 90 436 m 124 653 l 124 694 l 140 694 l 140 653 l 124 653 m 249 436 l 249 494 l 374 494 l 374 644 l 307 644 l 307 619 l 349 619 l 349 528 l 332 528 l 332 603 l 290 603 l 290 661 l 390 661 l 390 478 l 265 478 l 265 453 l 299 453 l 299 436 l 249 436 m 957 611 l 957 653 l 974 653 l 974 611 l 957 611 m 624 611 l 624 653 l 640 653 l 640 611 l 624 611 m 332 269 l 332 361 l 349 361 l 349 286 l 374 286 l 374 394 l 332 394 l 332 453 l 382 453 l 382 436 l 349 436 l 349 411 l 390 411 l 390 269 l 332 269 m 207 394 l 207 444 l 224 444 l 224 411 l 299 411 l 299 394 l 207 394 m 124 278 l 124 311 l 82 311 l 82 369 l 132 369 l 132 353 l 99 353 l 99 328 l 140 328 l 140 278 l 124 278 m 82 144 l 82 203 l 124 203 l 124 228 l 90 228 l 90 244 l 140 244 l 140 186 l 99 186 l 99 161 l 207 161 l 207 186 l 165 186 l 165 244 l 207 244 l 207 286 l 249 286 l 249 328 l 290 328 l 290 353 l 182 353 l 182 328 l 215 328 l 215 311 l 165 311 l 165 369 l 307 369 l 307 311 l 265 311 l 265 269 l 224 269 l 224 228 l 182 228 l 182 203 l 224 203 l 224 144 l 82 144 m 790 236 l 790 311 l 749 311 l 749 353 l 674 353 l 674 369 l 765 369 l 765 328 l 807 328 l 807 236 l 790 236 m 799 353 l 799 369 l 882 369 l 882 353 l 799 353 m 40 319 l 40 361 l 57 361 l 57 319 l 40 319 m 874 269 l 874 319 l 890 319 l 890 286 l 915 286 l 915 328 l 974 328 l 974 278 l 957 278 l 957 311 l 932 311 l 932 269 l 874 269 m 457 144 l 457 203 l 499 203 l 499 244 l 624 244 l 624 269 l 582 269 l 582 328 l 724 328 l 724 269 l 682 269 l 682 244 l 724 244 l 724 144 l 665 144 l 665 194 l 682 194 l 682 161 l 707 161 l 707 228 l 665 228 l 665 286 l 707 286 l 707 311 l 599 311 l 599 286 l 640 286 l 640 228 l 515 228 l 515 186 l 474 186 l 474 161 l 507 161 l 507 144 l 457 144 m 832 278 l 832 319 l 849 319 l 849 278 l 832 278 m 49 269 l 49 286 l 90 286 l 90 269 l 49 269 m 749 236 l 749 278 l 765 278 l 765 236 l 749 236 m 249 61 l 249 244 l 349 244 l 349 144 l 290 144 l 290 194 l 307 194 l 307 161 l 332 161 l 332 228 l 265 228 l 265 78 l 332 78 l 332 103 l 299 103 l 299 119 l 349 119 l 349 61 l 249 61 m 382 144 l 382 161 l 415 161 l 415 186 l 374 186 l 374 244 l 424 244 l 424 228 l 390 228 l 390 203 l 432 203 l 432 144 l 382 144 m 624 -22 l 624 19 l 582 19 l 582 61 l 540 61 l 540 119 l 582 119 l 582 144 l 540 144 l 540 203 l 640 203 l 640 119 l 682 119 l 682 36 l 790 36 l 790 61 l 707 61 l 707 119 l 790 119 l 790 144 l 749 144 l 749 203 l 832 203 l 832 244 l 890 244 l 890 203 l 932 203 l 932 144 l 882 144 l 882 161 l 915 161 l 915 186 l 874 186 l 874 228 l 849 228 l 849 186 l 765 186 l 765 161 l 807 161 l 807 103 l 724 103 l 724 78 l 807 78 l 807 19 l 665 19 l 665 103 l 624 103 l 624 186 l 557 186 l 557 161 l 599 161 l 599 103 l 557 103 l 557 78 l 599 78 l 599 36 l 640 36 l 640 -6 l 674 -6 l 674 -22 l 624 -22 m 832 69 l 832 153 l 849 153 l 849 69 l 832 69 m 132 103 l 132 119 l 174 119 l 174 103 l 132 103 m 290 -22 l 290 36 l 390 36 l 390 -6 l 457 -6 l 457 19 l 415 19 l 415 61 l 374 61 l 374 119 l 507 119 l 507 103 l 390 103 l 390 78 l 432 78 l 432 36 l 474 36 l 474 -22 l 374 -22 l 374 19 l 307 19 l 307 -6 l 340 -6 l 340 -22 l 290 -22 m 207 19 l 207 111 l 224 111 l 224 36 l 257 36 l 257 19 l 207 19 m 465 61 l 465 78 l 507 78 l 507 61 l 465 61 m 507 -22 l 507 -6 l 540 -6 l 540 19 l 507 19 l 507 36 l 557 36 l 557 -22 l 507 -22 m 558 1033 l 558 1242 l 533 1242 l 533 1075 l 475 1075 l 475 1117 l 400 1117 l 400 1133 l 492 1133 l 492 1092 l 517 1092 l 517 1258 l 575 1258 l 575 1050 l 600 1050 l 600 1125 l 617 1125 l 617 1033 l 558 1033 m 642 1117 l 642 1158 l 600 1158 l 600 1258 l 658 1258 l 658 1208 l 642 1208 l 642 1242 l 617 1242 l 617 1175 l 658 1175 l 658 1133 l 683 1133 l 683 1175 l 725 1175 l 725 1217 l 808 1217 l 808 1242 l 700 1242 l 700 1208 l 683 1208 l 683 1258 l 825 1258 l 825 1200 l 742 1200 l 742 1158 l 700 1158 l 700 1117 l 642 1117 m 442 1158 l 442 1175 l 475 1175 l 475 1208 l 492 1208 l 492 1158 l 442 1158 m 358 1033 l 358 1050 l 392 1050 l 392 1075 l 358 1075 l 358 1092 l 408 1092 l 408 1033 l 358 1033 m 433 1033 l 433 1083 l 450 1083 l 450 1050 l 525 1050 l 525 1033 l 433 1033 z "},"":{"ha":1018,"x_min":40,"x_max":974,"o":"m 207 861 l 207 911 l 290 911 l 290 953 l 349 953 l 349 903 l 332 903 l 332 936 l 307 936 l 307 894 l 224 894 l 224 861 l 207 861 m 290 728 l 290 778 l 307 778 l 307 744 l 332 744 l 332 786 l 374 786 l 374 953 l 474 953 l 474 811 l 424 811 l 424 828 l 457 828 l 457 936 l 390 936 l 390 769 l 349 769 l 349 728 l 290 728 m 624 811 l 624 853 l 499 853 l 499 953 l 557 953 l 557 911 l 582 911 l 582 953 l 674 953 l 674 936 l 599 936 l 599 894 l 540 894 l 540 936 l 515 936 l 515 869 l 640 869 l 640 828 l 749 828 l 749 853 l 665 853 l 665 894 l 632 894 l 632 911 l 682 911 l 682 869 l 765 869 l 765 811 l 624 811 m 832 819 l 832 853 l 790 853 l 790 894 l 715 894 l 715 911 l 807 911 l 807 869 l 849 869 l 849 819 l 832 819 m 415 861 l 415 903 l 432 903 l 432 861 l 415 861 m 40 394 l 40 494 l 82 494 l 82 561 l 57 561 l 57 528 l 40 528 l 40 578 l 99 578 l 99 478 l 57 478 l 57 411 l 165 411 l 165 494 l 207 494 l 207 536 l 290 536 l 290 561 l 249 561 l 249 603 l 165 603 l 165 661 l 207 661 l 207 686 l 165 686 l 165 728 l 82 728 l 82 786 l 124 786 l 124 828 l 182 828 l 182 786 l 249 786 l 249 828 l 290 828 l 290 869 l 349 869 l 349 819 l 332 819 l 332 853 l 307 853 l 307 811 l 265 811 l 265 769 l 165 769 l 165 811 l 140 811 l 140 769 l 99 769 l 99 744 l 182 744 l 182 703 l 224 703 l 224 644 l 182 644 l 182 619 l 265 619 l 265 578 l 307 578 l 307 519 l 224 519 l 224 478 l 182 478 l 182 394 l 40 394 m 582 769 l 582 811 l 507 811 l 507 828 l 599 828 l 599 786 l 632 786 l 632 769 l 582 769 m 249 653 l 249 703 l 374 703 l 374 744 l 415 744 l 415 786 l 515 786 l 515 686 l 424 686 l 424 703 l 499 703 l 499 769 l 432 769 l 432 728 l 390 728 l 390 686 l 265 686 l 265 653 l 249 653 m 665 686 l 665 786 l 807 786 l 807 694 l 790 694 l 790 769 l 682 769 l 682 703 l 749 703 l 749 736 l 765 736 l 765 686 l 665 686 m 665 603 l 665 661 l 799 661 l 799 644 l 682 644 l 682 619 l 832 619 l 832 661 l 890 661 l 890 619 l 915 619 l 915 769 l 890 769 l 890 728 l 849 728 l 849 703 l 882 703 l 882 686 l 832 686 l 832 744 l 874 744 l 874 786 l 932 786 l 932 603 l 874 603 l 874 644 l 849 644 l 849 603 l 665 603 m 582 653 l 582 703 l 624 703 l 624 728 l 540 728 l 540 778 l 557 778 l 557 744 l 640 744 l 640 686 l 599 686 l 599 653 l 582 653 m 215 728 l 215 744 l 257 744 l 257 728 l 215 728 m 90 436 l 90 453 l 124 453 l 124 536 l 165 536 l 165 561 l 124 561 l 124 603 l 82 603 l 82 686 l 57 686 l 57 611 l 40 611 l 40 703 l 99 703 l 99 619 l 140 619 l 140 578 l 182 578 l 182 519 l 140 519 l 140 436 l 90 436 m 124 653 l 124 694 l 140 694 l 140 653 l 124 653 m 249 436 l 249 494 l 374 494 l 374 644 l 307 644 l 307 619 l 349 619 l 349 528 l 332 528 l 332 603 l 290 603 l 290 661 l 390 661 l 390 478 l 265 478 l 265 453 l 299 453 l 299 436 l 249 436 m 957 611 l 957 653 l 974 653 l 974 611 l 957 611 m 624 611 l 624 653 l 640 653 l 640 611 l 624 611 m 332 269 l 332 361 l 349 361 l 349 286 l 374 286 l 374 394 l 332 394 l 332 453 l 382 453 l 382 436 l 349 436 l 349 411 l 390 411 l 390 269 l 332 269 m 207 394 l 207 444 l 224 444 l 224 411 l 299 411 l 299 394 l 207 394 m 124 278 l 124 311 l 82 311 l 82 369 l 132 369 l 132 353 l 99 353 l 99 328 l 140 328 l 140 278 l 124 278 m 82 144 l 82 203 l 124 203 l 124 228 l 90 228 l 90 244 l 140 244 l 140 186 l 99 186 l 99 161 l 207 161 l 207 186 l 165 186 l 165 244 l 207 244 l 207 286 l 249 286 l 249 328 l 290 328 l 290 353 l 182 353 l 182 328 l 215 328 l 215 311 l 165 311 l 165 369 l 307 369 l 307 311 l 265 311 l 265 269 l 224 269 l 224 228 l 182 228 l 182 203 l 224 203 l 224 144 l 82 144 m 790 236 l 790 311 l 749 311 l 749 353 l 674 353 l 674 369 l 765 369 l 765 328 l 807 328 l 807 236 l 790 236 m 799 353 l 799 369 l 882 369 l 882 353 l 799 353 m 40 319 l 40 361 l 57 361 l 57 319 l 40 319 m 874 269 l 874 319 l 890 319 l 890 286 l 915 286 l 915 328 l 974 328 l 974 278 l 957 278 l 957 311 l 932 311 l 932 269 l 874 269 m 457 144 l 457 203 l 499 203 l 499 244 l 624 244 l 624 269 l 582 269 l 582 328 l 724 328 l 724 269 l 682 269 l 682 244 l 724 244 l 724 144 l 665 144 l 665 194 l 682 194 l 682 161 l 707 161 l 707 228 l 665 228 l 665 286 l 707 286 l 707 311 l 599 311 l 599 286 l 640 286 l 640 228 l 515 228 l 515 186 l 474 186 l 474 161 l 507 161 l 507 144 l 457 144 m 832 278 l 832 319 l 849 319 l 849 278 l 832 278 m 49 269 l 49 286 l 90 286 l 90 269 l 49 269 m 749 236 l 749 278 l 765 278 l 765 236 l 749 236 m 249 61 l 249 244 l 349 244 l 349 144 l 290 144 l 290 194 l 307 194 l 307 161 l 332 161 l 332 228 l 265 228 l 265 78 l 332 78 l 332 103 l 299 103 l 299 119 l 349 119 l 349 61 l 249 61 m 382 144 l 382 161 l 415 161 l 415 186 l 374 186 l 374 244 l 424 244 l 424 228 l 390 228 l 390 203 l 432 203 l 432 144 l 382 144 m 624 -22 l 624 19 l 582 19 l 582 61 l 540 61 l 540 119 l 582 119 l 582 144 l 540 144 l 540 203 l 640 203 l 640 119 l 682 119 l 682 36 l 790 36 l 790 61 l 707 61 l 707 119 l 790 119 l 790 144 l 749 144 l 749 203 l 832 203 l 832 244 l 890 244 l 890 203 l 932 203 l 932 144 l 882 144 l 882 161 l 915 161 l 915 186 l 874 186 l 874 228 l 849 228 l 849 186 l 765 186 l 765 161 l 807 161 l 807 103 l 724 103 l 724 78 l 807 78 l 807 19 l 665 19 l 665 103 l 624 103 l 624 186 l 557 186 l 557 161 l 599 161 l 599 103 l 557 103 l 557 78 l 599 78 l 599 36 l 640 36 l 640 -6 l 674 -6 l 674 -22 l 624 -22 m 832 69 l 832 153 l 849 153 l 849 69 l 832 69 m 132 103 l 132 119 l 174 119 l 174 103 l 132 103 m 290 -22 l 290 36 l 390 36 l 390 -6 l 457 -6 l 457 19 l 415 19 l 415 61 l 374 61 l 374 119 l 507 119 l 507 103 l 390 103 l 390 78 l 432 78 l 432 36 l 474 36 l 474 -22 l 374 -22 l 374 19 l 307 19 l 307 -6 l 340 -6 l 340 -22 l 290 -22 m 207 19 l 207 111 l 224 111 l 224 36 l 257 36 l 257 19 l 207 19 m 465 61 l 465 78 l 507 78 l 507 61 l 465 61 m 507 -22 l 507 -6 l 540 -6 l 540 19 l 507 19 l 507 36 l 557 36 l 557 -22 l 507 -22 m 372 1033 l 372 1050 l 406 1050 l 406 1117 l 381 1117 l 381 1075 l 322 1075 l 322 1117 l 281 1117 l 281 1158 l 239 1158 l 239 1200 l 197 1200 l 197 1258 l 247 1258 l 247 1242 l 214 1242 l 214 1217 l 256 1217 l 256 1175 l 297 1175 l 297 1133 l 339 1133 l 339 1092 l 364 1092 l 364 1133 l 422 1133 l 422 1033 l 372 1033 m 281 1208 l 281 1258 l 331 1258 l 331 1242 l 297 1242 l 297 1208 l 281 1208 m 697 1167 l 697 1200 l 614 1200 l 614 1258 l 789 1258 l 789 1242 l 631 1242 l 631 1217 l 714 1217 l 714 1167 l 697 1167 m 364 1158 l 364 1200 l 331 1200 l 331 1217 l 381 1217 l 381 1175 l 497 1175 l 497 1158 l 364 1158 m 531 1158 l 531 1208 l 547 1208 l 547 1175 l 572 1175 l 572 1208 l 589 1208 l 589 1158 l 531 1158 m 614 1117 l 614 1175 l 664 1175 l 664 1158 l 631 1158 l 631 1133 l 664 1133 l 664 1117 l 614 1117 m 447 1033 l 447 1133 l 589 1133 l 589 1092 l 664 1092 l 664 1075 l 572 1075 l 572 1117 l 464 1117 l 464 1050 l 489 1050 l 489 1083 l 506 1083 l 506 1033 l 447 1033 m 531 1033 l 531 1083 l 547 1083 l 547 1050 l 622 1050 l 622 1033 l 531 1033 z "},"":{"ha":1018,"x_min":40,"x_max":974,"o":"m 332 853 l 332 911 l 374 911 l 374 936 l 307 936 l 307 894 l 257 894 l 257 911 l 290 911 l 290 953 l 390 953 l 390 894 l 349 894 l 349 869 l 457 869 l 457 894 l 415 894 l 415 953 l 599 953 l 599 911 l 640 911 l 640 853 l 499 853 l 499 911 l 549 911 l 549 894 l 515 894 l 515 869 l 624 869 l 624 894 l 582 894 l 582 936 l 432 936 l 432 911 l 474 911 l 474 853 l 332 853 m 632 936 l 632 953 l 674 953 l 674 936 l 632 936 m 582 686 l 582 728 l 540 728 l 540 811 l 507 811 l 507 828 l 557 828 l 557 744 l 599 744 l 599 703 l 624 703 l 624 744 l 682 744 l 682 703 l 707 703 l 707 894 l 682 894 l 682 769 l 582 769 l 582 828 l 632 828 l 632 811 l 599 811 l 599 786 l 665 786 l 665 911 l 724 911 l 724 686 l 665 686 l 665 728 l 640 728 l 640 686 l 582 686 m 790 611 l 790 703 l 832 703 l 832 728 l 790 728 l 790 769 l 749 769 l 749 828 l 790 828 l 790 853 l 749 853 l 749 911 l 799 911 l 799 894 l 765 894 l 765 869 l 807 869 l 807 811 l 765 811 l 765 786 l 807 786 l 807 744 l 849 744 l 849 686 l 807 686 l 807 611 l 790 611 m 207 819 l 207 903 l 224 903 l 224 819 l 207 819 m 249 778 l 249 869 l 299 869 l 299 853 l 265 853 l 265 778 l 249 778 m 832 819 l 832 861 l 849 861 l 849 819 l 832 819 m 457 728 l 457 769 l 415 769 l 415 811 l 390 811 l 390 778 l 374 778 l 374 828 l 432 828 l 432 786 l 474 786 l 474 744 l 499 744 l 499 778 l 515 778 l 515 728 l 457 728 m 40 561 l 40 661 l 82 661 l 82 703 l 165 703 l 165 728 l 82 728 l 82 786 l 124 786 l 124 828 l 182 828 l 182 786 l 224 786 l 224 744 l 257 744 l 257 728 l 207 728 l 207 769 l 165 769 l 165 811 l 140 811 l 140 769 l 99 769 l 99 744 l 182 744 l 182 686 l 99 686 l 99 644 l 57 644 l 57 578 l 82 578 l 82 611 l 99 611 l 99 561 l 40 561 m 290 686 l 290 786 l 332 786 l 332 811 l 299 811 l 299 828 l 349 828 l 349 769 l 307 769 l 307 703 l 374 703 l 374 744 l 432 744 l 432 703 l 549 703 l 549 686 l 415 686 l 415 728 l 390 728 l 390 686 l 290 686 m 915 694 l 915 728 l 874 728 l 874 786 l 924 786 l 924 769 l 890 769 l 890 744 l 932 744 l 932 694 l 915 694 m 749 694 l 749 736 l 765 736 l 765 694 l 749 694 m 165 519 l 165 561 l 124 561 l 124 661 l 182 661 l 182 619 l 249 619 l 249 644 l 207 644 l 207 703 l 257 703 l 257 686 l 224 686 l 224 661 l 265 661 l 265 603 l 165 603 l 165 644 l 140 644 l 140 578 l 182 578 l 182 536 l 249 536 l 249 561 l 215 561 l 215 578 l 265 578 l 265 519 l 165 519 m 290 519 l 290 619 l 332 619 l 332 661 l 382 661 l 382 644 l 349 644 l 349 603 l 307 603 l 307 536 l 374 536 l 374 611 l 390 611 l 390 519 l 290 519 m 632 603 l 632 619 l 707 619 l 707 644 l 590 644 l 590 661 l 724 661 l 724 603 l 632 603 m 874 603 l 874 644 l 849 644 l 849 611 l 832 611 l 832 661 l 890 661 l 890 619 l 915 619 l 915 661 l 974 661 l 974 611 l 957 611 l 957 644 l 932 644 l 932 603 l 874 603 m 749 611 l 749 653 l 765 653 l 765 611 l 749 611 m 82 153 l 82 311 l 40 311 l 40 494 l 124 494 l 124 519 l 49 519 l 49 536 l 140 536 l 140 478 l 57 478 l 57 328 l 99 328 l 99 153 l 82 153 m 165 61 l 165 103 l 124 103 l 124 203 l 165 203 l 165 286 l 224 286 l 224 244 l 249 244 l 249 286 l 332 286 l 332 311 l 290 311 l 290 436 l 265 436 l 265 311 l 165 311 l 165 369 l 207 369 l 207 394 l 165 394 l 165 494 l 349 494 l 349 411 l 390 411 l 390 353 l 340 353 l 340 369 l 374 369 l 374 394 l 332 394 l 332 478 l 182 478 l 182 411 l 224 411 l 224 353 l 182 353 l 182 328 l 249 328 l 249 453 l 307 453 l 307 328 l 349 328 l 349 269 l 265 269 l 265 228 l 207 228 l 207 269 l 182 269 l 182 186 l 140 186 l 140 119 l 182 119 l 182 78 l 257 78 l 257 61 l 165 61 m 374 444 l 374 486 l 390 486 l 390 444 l 374 444 m 82 353 l 82 453 l 140 453 l 140 403 l 124 403 l 124 436 l 99 436 l 99 369 l 132 369 l 132 353 l 82 353 m 749 61 l 749 186 l 707 186 l 707 244 l 749 244 l 749 286 l 807 286 l 807 119 l 874 119 l 874 161 l 915 161 l 915 186 l 874 186 l 874 244 l 915 244 l 915 286 l 957 286 l 957 311 l 915 311 l 915 353 l 890 353 l 890 311 l 832 311 l 832 353 l 807 353 l 807 311 l 749 311 l 749 353 l 682 353 l 682 328 l 724 328 l 724 278 l 707 278 l 707 311 l 665 311 l 665 369 l 765 369 l 765 328 l 790 328 l 790 369 l 849 369 l 849 328 l 874 328 l 874 369 l 932 369 l 932 328 l 974 328 l 974 269 l 932 269 l 932 228 l 890 228 l 890 203 l 932 203 l 932 144 l 890 144 l 890 103 l 790 103 l 790 269 l 765 269 l 765 228 l 724 228 l 724 203 l 765 203 l 765 78 l 840 78 l 840 61 l 749 61 m 590 269 l 590 286 l 624 286 l 624 311 l 590 311 l 590 328 l 640 328 l 640 269 l 590 269 m 124 236 l 124 319 l 140 319 l 140 236 l 124 236 m 415 103 l 415 161 l 457 161 l 457 194 l 474 194 l 474 144 l 432 144 l 432 119 l 499 119 l 499 203 l 557 203 l 557 161 l 582 161 l 582 203 l 665 203 l 665 228 l 432 228 l 432 186 l 374 186 l 374 319 l 390 319 l 390 203 l 415 203 l 415 244 l 682 244 l 682 186 l 599 186 l 599 144 l 540 144 l 540 186 l 515 186 l 515 103 l 415 103 m 832 153 l 832 286 l 882 286 l 882 269 l 849 269 l 849 153 l 832 153 m 40 236 l 40 278 l 57 278 l 57 236 l 40 236 m 332 194 l 332 228 l 299 228 l 299 244 l 349 244 l 349 194 l 332 194 m 207 103 l 207 153 l 224 153 l 224 119 l 332 119 l 332 144 l 290 144 l 290 186 l 265 186 l 265 153 l 249 153 l 249 203 l 307 203 l 307 161 l 349 161 l 349 103 l 207 103 m 624 -22 l 624 28 l 640 28 l 640 -6 l 665 -6 l 665 61 l 624 61 l 624 119 l 707 119 l 707 144 l 632 144 l 632 161 l 724 161 l 724 103 l 640 103 l 640 78 l 682 78 l 682 -22 l 624 -22 m 549 103 l 549 119 l 590 119 l 590 103 l 549 103 m 290 -22 l 290 19 l 215 19 l 215 36 l 307 36 l 307 -6 l 374 -6 l 374 19 l 332 19 l 332 78 l 374 78 l 374 111 l 390 111 l 390 61 l 349 61 l 349 36 l 390 36 l 390 -22 l 290 -22 m 374 -147 l 374 -89 l 415 -89 l 415 36 l 457 36 l 457 78 l 590 78 l 590 61 l 474 61 l 474 19 l 432 19 l 432 -106 l 390 -106 l 390 -131 l 457 -131 l 457 -6 l 499 -6 l 499 36 l 599 36 l 599 -22 l 549 -22 l 549 -6 l 582 -6 l 582 19 l 515 19 l 515 -22 l 474 -22 l 474 -147 l 374 -147 m 707 19 l 707 69 l 724 69 l 724 36 l 799 36 l 799 19 l 707 19 m 499 -139 l 499 -89 l 590 -89 l 590 -106 l 515 -106 l 515 -139 l 499 -139 m 499 -231 l 499 -181 l 515 -181 l 515 -214 l 582 -214 l 582 -147 l 557 -147 l 557 -181 l 540 -181 l 540 -131 l 599 -131 l 599 -231 l 499 -231 m 424 -314 l 424 -297 l 499 -297 l 499 -272 l 415 -272 l 415 -181 l 432 -181 l 432 -256 l 515 -256 l 515 -314 l 424 -314 m 624 -222 l 624 -181 l 640 -181 l 640 -222 l 624 -222 m 540 -306 l 540 -256 l 590 -256 l 590 -272 l 557 -272 l 557 -306 l 540 -306 z "},"":{"ha":1018,"x_min":40,"x_max":974,"o":"m 207 861 l 207 911 l 290 911 l 290 953 l 349 953 l 349 903 l 332 903 l 332 936 l 307 936 l 307 894 l 224 894 l 224 861 l 207 861 m 290 728 l 290 778 l 307 778 l 307 744 l 332 744 l 332 786 l 374 786 l 374 953 l 474 953 l 474 811 l 424 811 l 424 828 l 457 828 l 457 936 l 390 936 l 390 769 l 349 769 l 349 728 l 290 728 m 624 811 l 624 853 l 499 853 l 499 953 l 557 953 l 557 911 l 582 911 l 582 953 l 674 953 l 674 936 l 599 936 l 599 894 l 540 894 l 540 936 l 515 936 l 515 869 l 640 869 l 640 828 l 749 828 l 749 853 l 665 853 l 665 894 l 632 894 l 632 911 l 682 911 l 682 869 l 765 869 l 765 811 l 624 811 m 832 819 l 832 853 l 790 853 l 790 894 l 715 894 l 715 911 l 807 911 l 807 869 l 849 869 l 849 819 l 832 819 m 415 861 l 415 903 l 432 903 l 432 861 l 415 861 m 40 394 l 40 494 l 82 494 l 82 561 l 57 561 l 57 528 l 40 528 l 40 578 l 99 578 l 99 478 l 57 478 l 57 411 l 165 411 l 165 494 l 207 494 l 207 536 l 290 536 l 290 561 l 249 561 l 249 603 l 165 603 l 165 661 l 207 661 l 207 686 l 165 686 l 165 728 l 82 728 l 82 786 l 124 786 l 124 828 l 182 828 l 182 786 l 249 786 l 249 828 l 290 828 l 290 869 l 349 869 l 349 819 l 332 819 l 332 853 l 307 853 l 307 811 l 265 811 l 265 769 l 165 769 l 165 811 l 140 811 l 140 769 l 99 769 l 99 744 l 182 744 l 182 703 l 224 703 l 224 644 l 182 644 l 182 619 l 265 619 l 265 578 l 307 578 l 307 519 l 224 519 l 224 478 l 182 478 l 182 394 l 40 394 m 582 769 l 582 811 l 507 811 l 507 828 l 599 828 l 599 786 l 632 786 l 632 769 l 582 769 m 249 653 l 249 703 l 374 703 l 374 744 l 415 744 l 415 786 l 515 786 l 515 686 l 424 686 l 424 703 l 499 703 l 499 769 l 432 769 l 432 728 l 390 728 l 390 686 l 265 686 l 265 653 l 249 653 m 665 686 l 665 786 l 807 786 l 807 694 l 790 694 l 790 769 l 682 769 l 682 703 l 749 703 l 749 736 l 765 736 l 765 686 l 665 686 m 665 603 l 665 661 l 799 661 l 799 644 l 682 644 l 682 619 l 832 619 l 832 661 l 890 661 l 890 619 l 915 619 l 915 769 l 890 769 l 890 728 l 849 728 l 849 703 l 882 703 l 882 686 l 832 686 l 832 744 l 874 744 l 874 786 l 932 786 l 932 603 l 874 603 l 874 644 l 849 644 l 849 603 l 665 603 m 582 653 l 582 703 l 624 703 l 624 728 l 540 728 l 540 778 l 557 778 l 557 744 l 640 744 l 640 686 l 599 686 l 599 653 l 582 653 m 215 728 l 215 744 l 257 744 l 257 728 l 215 728 m 90 436 l 90 453 l 124 453 l 124 536 l 165 536 l 165 561 l 124 561 l 124 603 l 82 603 l 82 686 l 57 686 l 57 611 l 40 611 l 40 703 l 99 703 l 99 619 l 140 619 l 140 578 l 182 578 l 182 519 l 140 519 l 140 436 l 90 436 m 124 653 l 124 694 l 140 694 l 140 653 l 124 653 m 249 436 l 249 494 l 374 494 l 374 644 l 307 644 l 307 619 l 349 619 l 349 528 l 332 528 l 332 603 l 290 603 l 290 661 l 390 661 l 390 478 l 265 478 l 265 453 l 299 453 l 299 436 l 249 436 m 957 611 l 957 653 l 974 653 l 974 611 l 957 611 m 624 611 l 624 653 l 640 653 l 640 611 l 624 611 m 332 269 l 332 361 l 349 361 l 349 286 l 374 286 l 374 394 l 332 394 l 332 453 l 382 453 l 382 436 l 349 436 l 349 411 l 390 411 l 390 269 l 332 269 m 207 394 l 207 444 l 224 444 l 224 411 l 299 411 l 299 394 l 207 394 m 124 278 l 124 311 l 82 311 l 82 369 l 132 369 l 132 353 l 99 353 l 99 328 l 140 328 l 140 278 l 124 278 m 82 144 l 82 203 l 124 203 l 124 228 l 90 228 l 90 244 l 140 244 l 140 186 l 99 186 l 99 161 l 207 161 l 207 186 l 165 186 l 165 244 l 207 244 l 207 286 l 249 286 l 249 328 l 290 328 l 290 353 l 182 353 l 182 328 l 215 328 l 215 311 l 165 311 l 165 369 l 307 369 l 307 311 l 265 311 l 265 269 l 224 269 l 224 228 l 182 228 l 182 203 l 224 203 l 224 144 l 82 144 m 790 236 l 790 311 l 749 311 l 749 353 l 674 353 l 674 369 l 765 369 l 765 328 l 807 328 l 807 236 l 790 236 m 799 353 l 799 369 l 882 369 l 882 353 l 799 353 m 40 319 l 40 361 l 57 361 l 57 319 l 40 319 m 874 269 l 874 319 l 890 319 l 890 286 l 915 286 l 915 328 l 974 328 l 974 278 l 957 278 l 957 311 l 932 311 l 932 269 l 874 269 m 457 144 l 457 203 l 499 203 l 499 244 l 624 244 l 624 269 l 582 269 l 582 328 l 724 328 l 724 269 l 682 269 l 682 244 l 724 244 l 724 144 l 665 144 l 665 194 l 682 194 l 682 161 l 707 161 l 707 228 l 665 228 l 665 286 l 707 286 l 707 311 l 599 311 l 599 286 l 640 286 l 640 228 l 515 228 l 515 186 l 474 186 l 474 161 l 507 161 l 507 144 l 457 144 m 832 278 l 832 319 l 849 319 l 849 278 l 832 278 m 49 269 l 49 286 l 90 286 l 90 269 l 49 269 m 749 236 l 749 278 l 765 278 l 765 236 l 749 236 m 249 61 l 249 244 l 349 244 l 349 144 l 290 144 l 290 194 l 307 194 l 307 161 l 332 161 l 332 228 l 265 228 l 265 78 l 332 78 l 332 103 l 299 103 l 299 119 l 349 119 l 349 61 l 249 61 m 382 144 l 382 161 l 415 161 l 415 186 l 374 186 l 374 244 l 424 244 l 424 228 l 390 228 l 390 203 l 432 203 l 432 144 l 382 144 m 624 -22 l 624 19 l 582 19 l 582 61 l 540 61 l 540 119 l 582 119 l 582 144 l 540 144 l 540 203 l 640 203 l 640 119 l 682 119 l 682 36 l 790 36 l 790 61 l 707 61 l 707 119 l 790 119 l 790 144 l 749 144 l 749 203 l 832 203 l 832 244 l 890 244 l 890 203 l 932 203 l 932 144 l 882 144 l 882 161 l 915 161 l 915 186 l 874 186 l 874 228 l 849 228 l 849 186 l 765 186 l 765 161 l 807 161 l 807 103 l 724 103 l 724 78 l 807 78 l 807 19 l 665 19 l 665 103 l 624 103 l 624 186 l 557 186 l 557 161 l 599 161 l 599 103 l 557 103 l 557 78 l 599 78 l 599 36 l 640 36 l 640 -6 l 674 -6 l 674 -22 l 624 -22 m 832 69 l 832 153 l 849 153 l 849 69 l 832 69 m 132 103 l 132 119 l 174 119 l 174 103 l 132 103 m 290 -22 l 290 36 l 390 36 l 390 -6 l 457 -6 l 457 19 l 415 19 l 415 61 l 374 61 l 374 119 l 507 119 l 507 103 l 390 103 l 390 78 l 432 78 l 432 36 l 474 36 l 474 -22 l 374 -22 l 374 19 l 307 19 l 307 -6 l 340 -6 l 340 -22 l 290 -22 m 207 19 l 207 111 l 224 111 l 224 36 l 257 36 l 257 19 l 207 19 m 465 61 l 465 78 l 507 78 l 507 61 l 465 61 m 507 -22 l 507 -6 l 540 -6 l 540 19 l 507 19 l 507 36 l 557 36 l 557 -22 l 507 -22 m 572 1125 l 572 1200 l 489 1200 l 489 1242 l 381 1242 l 381 1158 l 322 1158 l 322 1208 l 339 1208 l 339 1175 l 364 1175 l 364 1258 l 506 1258 l 506 1217 l 589 1217 l 589 1125 l 572 1125 m 539 1242 l 539 1258 l 581 1258 l 581 1242 l 539 1242 m 364 1083 l 364 1133 l 406 1133 l 406 1217 l 456 1217 l 456 1200 l 422 1200 l 422 1117 l 381 1117 l 381 1083 l 364 1083 m 614 1167 l 614 1208 l 631 1208 l 631 1167 l 614 1167 m 531 1075 l 531 1117 l 447 1117 l 447 1175 l 539 1175 l 539 1158 l 464 1158 l 464 1133 l 547 1133 l 547 1092 l 581 1092 l 581 1075 l 531 1075 m 206 1033 l 206 1050 l 281 1050 l 281 1117 l 256 1117 l 256 1083 l 239 1083 l 239 1133 l 297 1133 l 297 1033 l 206 1033 m 697 1033 l 697 1117 l 622 1117 l 622 1133 l 714 1133 l 714 1050 l 789 1050 l 789 1033 l 697 1033 m 322 1033 l 322 1125 l 339 1125 l 339 1050 l 372 1050 l 372 1033 l 322 1033 m 414 1075 l 414 1092 l 456 1092 l 456 1075 l 414 1075 m 622 1033 l 622 1050 l 656 1050 l 656 1075 l 622 1075 l 622 1092 l 672 1092 l 672 1033 l 622 1033 z "},"":{"ha":1018,"x_min":40,"x_max":974,"o":"m 207 861 l 207 911 l 290 911 l 290 953 l 349 953 l 349 903 l 332 903 l 332 936 l 307 936 l 307 894 l 224 894 l 224 861 l 207 861 m 290 728 l 290 778 l 307 778 l 307 744 l 332 744 l 332 786 l 374 786 l 374 953 l 474 953 l 474 811 l 424 811 l 424 828 l 457 828 l 457 936 l 390 936 l 390 769 l 349 769 l 349 728 l 290 728 m 624 811 l 624 853 l 499 853 l 499 953 l 557 953 l 557 911 l 582 911 l 582 953 l 674 953 l 674 936 l 599 936 l 599 894 l 540 894 l 540 936 l 515 936 l 515 869 l 640 869 l 640 828 l 749 828 l 749 853 l 665 853 l 665 894 l 632 894 l 632 911 l 682 911 l 682 869 l 765 869 l 765 811 l 624 811 m 832 819 l 832 853 l 790 853 l 790 894 l 715 894 l 715 911 l 807 911 l 807 869 l 849 869 l 849 819 l 832 819 m 415 861 l 415 903 l 432 903 l 432 861 l 415 861 m 40 394 l 40 494 l 82 494 l 82 561 l 57 561 l 57 528 l 40 528 l 40 578 l 99 578 l 99 478 l 57 478 l 57 411 l 165 411 l 165 494 l 207 494 l 207 536 l 290 536 l 290 561 l 249 561 l 249 603 l 165 603 l 165 661 l 207 661 l 207 686 l 165 686 l 165 728 l 82 728 l 82 786 l 124 786 l 124 828 l 182 828 l 182 786 l 249 786 l 249 828 l 290 828 l 290 869 l 349 869 l 349 819 l 332 819 l 332 853 l 307 853 l 307 811 l 265 811 l 265 769 l 165 769 l 165 811 l 140 811 l 140 769 l 99 769 l 99 744 l 182 744 l 182 703 l 224 703 l 224 644 l 182 644 l 182 619 l 265 619 l 265 578 l 307 578 l 307 519 l 224 519 l 224 478 l 182 478 l 182 394 l 40 394 m 582 769 l 582 811 l 507 811 l 507 828 l 599 828 l 599 786 l 632 786 l 632 769 l 582 769 m 249 653 l 249 703 l 374 703 l 374 744 l 415 744 l 415 786 l 515 786 l 515 686 l 424 686 l 424 703 l 499 703 l 499 769 l 432 769 l 432 728 l 390 728 l 390 686 l 265 686 l 265 653 l 249 653 m 665 686 l 665 786 l 807 786 l 807 694 l 790 694 l 790 769 l 682 769 l 682 703 l 749 703 l 749 736 l 765 736 l 765 686 l 665 686 m 665 603 l 665 661 l 799 661 l 799 644 l 682 644 l 682 619 l 832 619 l 832 661 l 890 661 l 890 619 l 915 619 l 915 769 l 890 769 l 890 728 l 849 728 l 849 703 l 882 703 l 882 686 l 832 686 l 832 744 l 874 744 l 874 786 l 932 786 l 932 603 l 874 603 l 874 644 l 849 644 l 849 603 l 665 603 m 582 653 l 582 703 l 624 703 l 624 728 l 540 728 l 540 778 l 557 778 l 557 744 l 640 744 l 640 686 l 599 686 l 599 653 l 582 653 m 215 728 l 215 744 l 257 744 l 257 728 l 215 728 m 90 436 l 90 453 l 124 453 l 124 536 l 165 536 l 165 561 l 124 561 l 124 603 l 82 603 l 82 686 l 57 686 l 57 611 l 40 611 l 40 703 l 99 703 l 99 619 l 140 619 l 140 578 l 182 578 l 182 519 l 140 519 l 140 436 l 90 436 m 124 653 l 124 694 l 140 694 l 140 653 l 124 653 m 249 436 l 249 494 l 374 494 l 374 644 l 307 644 l 307 619 l 349 619 l 349 528 l 332 528 l 332 603 l 290 603 l 290 661 l 390 661 l 390 478 l 265 478 l 265 453 l 299 453 l 299 436 l 249 436 m 957 611 l 957 653 l 974 653 l 974 611 l 957 611 m 624 611 l 624 653 l 640 653 l 640 611 l 624 611 m 332 269 l 332 361 l 349 361 l 349 286 l 374 286 l 374 394 l 332 394 l 332 453 l 382 453 l 382 436 l 349 436 l 349 411 l 390 411 l 390 269 l 332 269 m 207 394 l 207 444 l 224 444 l 224 411 l 299 411 l 299 394 l 207 394 m 124 278 l 124 311 l 82 311 l 82 369 l 132 369 l 132 353 l 99 353 l 99 328 l 140 328 l 140 278 l 124 278 m 82 144 l 82 203 l 124 203 l 124 228 l 90 228 l 90 244 l 140 244 l 140 186 l 99 186 l 99 161 l 207 161 l 207 186 l 165 186 l 165 244 l 207 244 l 207 286 l 249 286 l 249 328 l 290 328 l 290 353 l 182 353 l 182 328 l 215 328 l 215 311 l 165 311 l 165 369 l 307 369 l 307 311 l 265 311 l 265 269 l 224 269 l 224 228 l 182 228 l 182 203 l 224 203 l 224 144 l 82 144 m 790 236 l 790 311 l 749 311 l 749 353 l 674 353 l 674 369 l 765 369 l 765 328 l 807 328 l 807 236 l 790 236 m 799 353 l 799 369 l 882 369 l 882 353 l 799 353 m 40 319 l 40 361 l 57 361 l 57 319 l 40 319 m 874 269 l 874 319 l 890 319 l 890 286 l 915 286 l 915 328 l 974 328 l 974 278 l 957 278 l 957 311 l 932 311 l 932 269 l 874 269 m 457 144 l 457 203 l 499 203 l 499 244 l 624 244 l 624 269 l 582 269 l 582 328 l 724 328 l 724 269 l 682 269 l 682 244 l 724 244 l 724 144 l 665 144 l 665 194 l 682 194 l 682 161 l 707 161 l 707 228 l 665 228 l 665 286 l 707 286 l 707 311 l 599 311 l 599 286 l 640 286 l 640 228 l 515 228 l 515 186 l 474 186 l 474 161 l 507 161 l 507 144 l 457 144 m 832 278 l 832 319 l 849 319 l 849 278 l 832 278 m 49 269 l 49 286 l 90 286 l 90 269 l 49 269 m 749 236 l 749 278 l 765 278 l 765 236 l 749 236 m 249 61 l 249 244 l 349 244 l 349 144 l 290 144 l 290 194 l 307 194 l 307 161 l 332 161 l 332 228 l 265 228 l 265 78 l 332 78 l 332 103 l 299 103 l 299 119 l 349 119 l 349 61 l 249 61 m 382 144 l 382 161 l 415 161 l 415 186 l 374 186 l 374 244 l 424 244 l 424 228 l 390 228 l 390 203 l 432 203 l 432 144 l 382 144 m 624 -22 l 624 19 l 582 19 l 582 61 l 540 61 l 540 119 l 582 119 l 582 144 l 540 144 l 540 203 l 640 203 l 640 119 l 682 119 l 682 36 l 790 36 l 790 61 l 707 61 l 707 119 l 790 119 l 790 144 l 749 144 l 749 203 l 832 203 l 832 244 l 890 244 l 890 203 l 932 203 l 932 144 l 882 144 l 882 161 l 915 161 l 915 186 l 874 186 l 874 228 l 849 228 l 849 186 l 765 186 l 765 161 l 807 161 l 807 103 l 724 103 l 724 78 l 807 78 l 807 19 l 665 19 l 665 103 l 624 103 l 624 186 l 557 186 l 557 161 l 599 161 l 599 103 l 557 103 l 557 78 l 599 78 l 599 36 l 640 36 l 640 -6 l 674 -6 l 674 -22 l 624 -22 m 832 69 l 832 153 l 849 153 l 849 69 l 832 69 m 132 103 l 132 119 l 174 119 l 174 103 l 132 103 m 290 -22 l 290 36 l 390 36 l 390 -6 l 457 -6 l 457 19 l 415 19 l 415 61 l 374 61 l 374 119 l 507 119 l 507 103 l 390 103 l 390 78 l 432 78 l 432 36 l 474 36 l 474 -22 l 374 -22 l 374 19 l 307 19 l 307 -6 l 340 -6 l 340 -22 l 290 -22 m 207 19 l 207 111 l 224 111 l 224 36 l 257 36 l 257 19 l 207 19 m 465 61 l 465 78 l 507 78 l 507 61 l 465 61 m 507 -22 l 507 -6 l 540 -6 l 540 19 l 507 19 l 507 36 l 557 36 l 557 -22 l 507 -22 m 383 1117 l 383 1133 l 417 1133 l 417 1158 l 375 1158 l 375 1258 l 475 1258 l 475 1217 l 558 1217 l 558 1133 l 583 1133 l 583 1250 l 600 1250 l 600 1117 l 542 1117 l 542 1200 l 458 1200 l 458 1242 l 392 1242 l 392 1175 l 433 1175 l 433 1117 l 383 1117 m 508 1242 l 508 1258 l 550 1258 l 550 1242 l 508 1242 m 467 1158 l 467 1175 l 508 1175 l 508 1158 l 467 1158 m 383 1033 l 383 1050 l 500 1050 l 500 1117 l 475 1117 l 475 1075 l 383 1075 l 383 1092 l 458 1092 l 458 1133 l 517 1133 l 517 1033 l 383 1033 m 542 1033 l 542 1092 l 592 1092 l 592 1075 l 558 1075 l 558 1050 l 592 1050 l 592 1033 l 542 1033 z "},"D":{"ha":1028,"x_min":68,"x_max":960,"o":"m 235 867 l 235 950 l 118 950 l 118 967 l 251 967 l 251 883 l 276 883 l 276 967 l 326 967 l 326 950 l 293 950 l 293 867 l 235 867 m 360 783 l 360 842 l 401 842 l 401 867 l 360 867 l 360 925 l 401 925 l 401 967 l 460 967 l 460 842 l 485 842 l 485 925 l 543 925 l 543 842 l 660 842 l 660 825 l 526 825 l 526 908 l 501 908 l 501 825 l 443 825 l 443 950 l 418 950 l 418 908 l 376 908 l 376 883 l 418 883 l 418 825 l 376 825 l 376 800 l 410 800 l 410 783 l 360 783 m 493 950 l 493 967 l 535 967 l 535 950 l 493 950 m 68 783 l 68 833 l 85 833 l 85 800 l 110 800 l 110 867 l 68 867 l 68 925 l 160 925 l 160 908 l 85 908 l 85 883 l 126 883 l 126 783 l 68 783 m 568 867 l 568 925 l 701 925 l 701 908 l 585 908 l 585 883 l 701 883 l 701 867 l 568 867 m 193 875 l 193 917 l 210 917 l 210 875 l 193 875 m 318 875 l 318 917 l 335 917 l 335 875 l 318 875 m 701 825 l 701 842 l 776 842 l 776 875 l 793 875 l 793 825 l 701 825 m 151 575 l 151 700 l 110 700 l 110 758 l 193 758 l 193 783 l 151 783 l 151 842 l 251 842 l 251 800 l 276 800 l 276 842 l 335 842 l 335 742 l 285 742 l 285 758 l 318 758 l 318 825 l 293 825 l 293 783 l 235 783 l 235 825 l 168 825 l 168 800 l 210 800 l 210 742 l 126 742 l 126 717 l 168 717 l 168 592 l 193 592 l 193 633 l 235 633 l 235 750 l 251 750 l 251 617 l 210 617 l 210 575 l 151 575 m 735 450 l 735 533 l 610 533 l 610 592 l 660 592 l 660 575 l 626 575 l 626 550 l 751 550 l 751 467 l 776 467 l 776 675 l 818 675 l 818 742 l 776 742 l 776 800 l 876 800 l 876 717 l 901 717 l 901 750 l 918 750 l 918 700 l 860 700 l 860 783 l 793 783 l 793 758 l 835 758 l 835 658 l 793 658 l 793 450 l 735 450 m 610 617 l 610 658 l 526 658 l 526 783 l 460 783 l 460 700 l 401 700 l 401 742 l 376 742 l 376 675 l 410 675 l 410 658 l 360 658 l 360 758 l 418 758 l 418 717 l 443 717 l 443 800 l 543 800 l 543 675 l 626 675 l 626 633 l 651 633 l 651 675 l 693 675 l 693 758 l 735 758 l 735 783 l 585 783 l 585 750 l 568 750 l 568 800 l 751 800 l 751 742 l 710 742 l 710 658 l 668 658 l 668 617 l 610 617 m 610 700 l 610 758 l 660 758 l 660 742 l 626 742 l 626 717 l 660 717 l 660 700 l 610 700 m 68 708 l 68 750 l 85 750 l 85 708 l 68 708 m 485 708 l 485 750 l 501 750 l 501 708 l 485 708 m 318 458 l 318 508 l 401 508 l 401 617 l 376 617 l 376 533 l 276 533 l 276 592 l 318 592 l 318 658 l 276 658 l 276 717 l 326 717 l 326 700 l 293 700 l 293 675 l 335 675 l 335 575 l 293 575 l 293 550 l 360 550 l 360 633 l 418 633 l 418 492 l 335 492 l 335 458 l 318 458 m 735 667 l 735 717 l 785 717 l 785 700 l 751 700 l 751 667 l 735 667 m 193 667 l 193 708 l 210 708 l 210 667 l 193 667 m 68 492 l 68 675 l 126 675 l 126 550 l 160 550 l 160 533 l 110 533 l 110 658 l 85 658 l 85 508 l 118 508 l 118 492 l 68 492 m 901 617 l 901 658 l 868 658 l 868 675 l 918 675 l 918 633 l 951 633 l 951 617 l 901 617 m 693 583 l 693 633 l 751 633 l 751 583 l 735 583 l 735 617 l 710 617 l 710 583 l 693 583 m 818 408 l 818 633 l 876 633 l 876 467 l 918 467 l 918 425 l 943 425 l 943 492 l 901 492 l 901 592 l 960 592 l 960 542 l 943 542 l 943 575 l 918 575 l 918 508 l 960 508 l 960 408 l 901 408 l 901 450 l 860 450 l 860 617 l 835 617 l 835 425 l 868 425 l 868 408 l 818 408 m 193 283 l 193 325 l 68 325 l 68 383 l 151 383 l 151 408 l 110 408 l 110 467 l 151 467 l 151 508 l 193 508 l 193 550 l 251 550 l 251 508 l 293 508 l 293 408 l 235 408 l 235 450 l 210 450 l 210 383 l 335 383 l 335 342 l 360 342 l 360 383 l 401 383 l 401 450 l 376 450 l 376 408 l 326 408 l 326 425 l 360 425 l 360 467 l 418 467 l 418 367 l 376 367 l 376 325 l 318 325 l 318 367 l 193 367 l 193 467 l 251 467 l 251 425 l 276 425 l 276 492 l 235 492 l 235 533 l 210 533 l 210 492 l 168 492 l 168 450 l 126 450 l 126 425 l 168 425 l 168 367 l 85 367 l 85 342 l 210 342 l 210 300 l 276 300 l 276 325 l 243 325 l 243 342 l 293 342 l 293 283 l 193 283 m 485 200 l 485 242 l 401 242 l 401 333 l 418 333 l 418 258 l 501 258 l 501 217 l 526 217 l 526 258 l 568 258 l 568 300 l 610 300 l 610 508 l 710 508 l 710 458 l 693 458 l 693 492 l 626 492 l 626 283 l 585 283 l 585 242 l 543 242 l 543 200 l 485 200 m 68 417 l 68 458 l 85 458 l 85 417 l 68 417 m 651 408 l 651 458 l 668 458 l 668 425 l 785 425 l 785 408 l 651 408 m 860 283 l 860 367 l 710 367 l 710 325 l 651 325 l 651 375 l 668 375 l 668 342 l 693 342 l 693 383 l 876 383 l 876 300 l 943 300 l 943 367 l 918 367 l 918 333 l 901 333 l 901 383 l 960 383 l 960 283 l 860 283 m 818 250 l 818 283 l 776 283 l 776 342 l 826 342 l 826 325 l 793 325 l 793 300 l 835 300 l 835 250 l 818 250 m 693 158 l 693 292 l 710 292 l 710 175 l 735 175 l 735 333 l 751 333 l 751 158 l 693 158 m 360 158 l 360 242 l 318 242 l 318 300 l 368 300 l 368 283 l 335 283 l 335 258 l 376 258 l 376 175 l 401 175 l 401 217 l 460 217 l 460 167 l 443 167 l 443 200 l 418 200 l 418 158 l 360 158 m 360 -8 l 360 33 l 235 33 l 235 117 l 68 117 l 68 175 l 110 175 l 110 300 l 168 300 l 168 217 l 193 217 l 193 258 l 251 258 l 251 175 l 276 175 l 276 217 l 335 217 l 335 133 l 376 133 l 376 92 l 401 92 l 401 133 l 460 133 l 460 8 l 693 8 l 693 75 l 668 75 l 668 33 l 568 33 l 568 75 l 485 75 l 485 133 l 568 133 l 568 175 l 610 175 l 610 200 l 576 200 l 576 217 l 626 217 l 626 158 l 585 158 l 585 117 l 501 117 l 501 92 l 585 92 l 585 50 l 651 50 l 651 92 l 710 92 l 710 -8 l 443 -8 l 443 117 l 418 117 l 418 75 l 360 75 l 360 117 l 318 117 l 318 200 l 293 200 l 293 158 l 235 158 l 235 242 l 210 242 l 210 200 l 151 200 l 151 283 l 126 283 l 126 158 l 85 158 l 85 133 l 251 133 l 251 50 l 376 50 l 376 8 l 401 8 l 401 42 l 418 42 l 418 -8 l 360 -8 m 651 208 l 651 292 l 668 292 l 668 208 l 651 208 m 68 250 l 68 292 l 85 292 l 85 250 l 68 250 m 901 167 l 901 242 l 868 242 l 868 258 l 918 258 l 918 167 l 901 167 m 735 33 l 735 133 l 785 133 l 785 117 l 751 117 l 751 50 l 776 50 l 776 92 l 818 92 l 818 133 l 860 133 l 860 200 l 793 200 l 793 175 l 826 175 l 826 158 l 776 158 l 776 217 l 876 217 l 876 117 l 835 117 l 835 75 l 793 75 l 793 33 l 735 33 m 160 158 l 160 175 l 201 175 l 201 158 l 160 158 m 493 158 l 493 175 l 535 175 l 535 158 l 493 158 m 651 117 l 651 167 l 668 167 l 668 133 l 701 133 l 701 117 l 651 117 m 610 83 l 610 125 l 626 125 l 626 83 l 610 83 m 193 0 l 193 33 l 151 33 l 151 92 l 201 92 l 201 75 l 168 75 l 168 50 l 210 50 l 210 0 l 193 0 m 285 75 l 285 92 l 326 92 l 326 75 l 285 75 m 68 33 l 68 83 l 85 83 l 85 50 l 110 50 l 110 83 l 126 83 l 126 33 l 68 33 m 493 33 l 493 50 l 535 50 l 535 33 l 493 33 m 76 -8 l 76 8 l 160 8 l 160 -8 l 76 -8 m 243 -8 l 243 8 l 326 8 l 326 -8 l 243 -8 z "},"":{"ha":1064,"x_min":11,"x_max":986,"o":"m 219 875 l 219 908 l 178 908 l 178 967 l 436 967 l 436 950 l 194 950 l 194 925 l 236 925 l 236 875 l 219 875 m 103 908 l 103 925 l 136 925 l 136 958 l 153 958 l 153 908 l 103 908 m 469 917 l 469 958 l 486 958 l 486 917 l 469 917 m 553 917 l 553 958 l 569 958 l 569 917 l 553 917 m 11 492 l 11 550 l 53 550 l 53 583 l 69 583 l 69 533 l 28 533 l 28 508 l 178 508 l 178 617 l 153 617 l 153 533 l 94 533 l 94 675 l 178 675 l 178 717 l 236 717 l 236 675 l 278 675 l 278 592 l 303 592 l 303 700 l 261 700 l 261 783 l 219 783 l 219 842 l 261 842 l 261 925 l 444 925 l 444 883 l 486 883 l 486 825 l 444 825 l 444 750 l 428 750 l 428 842 l 469 842 l 469 867 l 428 867 l 428 908 l 278 908 l 278 825 l 236 825 l 236 800 l 278 800 l 278 717 l 319 717 l 319 575 l 261 575 l 261 658 l 219 658 l 219 700 l 194 700 l 194 658 l 111 658 l 111 550 l 136 550 l 136 633 l 194 633 l 194 492 l 11 492 m 636 617 l 636 675 l 719 675 l 719 700 l 553 700 l 553 758 l 594 758 l 594 783 l 561 783 l 561 800 l 611 800 l 611 742 l 569 742 l 569 717 l 736 717 l 736 658 l 653 658 l 653 633 l 844 633 l 844 658 l 761 658 l 761 717 l 803 717 l 803 783 l 778 783 l 778 742 l 719 742 l 719 783 l 694 783 l 694 742 l 636 742 l 636 825 l 594 825 l 594 925 l 736 925 l 736 883 l 778 883 l 778 825 l 678 825 l 678 867 l 644 867 l 644 883 l 694 883 l 694 842 l 761 842 l 761 867 l 719 867 l 719 908 l 611 908 l 611 842 l 653 842 l 653 758 l 678 758 l 678 800 l 736 800 l 736 758 l 761 758 l 761 800 l 819 800 l 819 700 l 778 700 l 778 675 l 861 675 l 861 617 l 636 617 m 511 708 l 511 842 l 553 842 l 553 867 l 511 867 l 511 917 l 528 917 l 528 883 l 569 883 l 569 825 l 528 825 l 528 708 l 511 708 m 386 833 l 386 867 l 311 867 l 311 883 l 403 883 l 403 833 l 386 833 m 94 700 l 94 883 l 194 883 l 194 783 l 144 783 l 144 800 l 178 800 l 178 867 l 111 867 l 111 717 l 136 717 l 136 758 l 228 758 l 228 742 l 153 742 l 153 700 l 94 700 m 803 833 l 803 875 l 819 875 l 819 833 l 803 833 m 303 742 l 303 792 l 319 792 l 319 758 l 386 758 l 386 783 l 344 783 l 344 825 l 311 825 l 311 842 l 361 842 l 361 800 l 403 800 l 403 742 l 303 742 m 853 783 l 853 800 l 886 800 l 886 825 l 853 825 l 853 842 l 903 842 l 903 783 l 853 783 m 803 367 l 803 467 l 886 467 l 886 758 l 944 758 l 944 717 l 986 717 l 986 658 l 944 658 l 944 633 l 986 633 l 986 533 l 944 533 l 944 467 l 986 467 l 986 408 l 936 408 l 936 425 l 969 425 l 969 450 l 928 450 l 928 550 l 969 550 l 969 617 l 928 617 l 928 675 l 969 675 l 969 700 l 928 700 l 928 742 l 903 742 l 903 450 l 819 450 l 819 383 l 886 383 l 886 408 l 853 408 l 853 425 l 903 425 l 903 367 l 803 367 m 344 492 l 344 592 l 428 592 l 428 617 l 344 617 l 344 675 l 428 675 l 428 717 l 469 717 l 469 750 l 486 750 l 486 700 l 444 700 l 444 658 l 361 658 l 361 633 l 444 633 l 444 575 l 361 575 l 361 508 l 386 508 l 386 550 l 469 550 l 469 592 l 519 592 l 519 575 l 486 575 l 486 533 l 403 533 l 403 492 l 344 492 m 844 708 l 844 750 l 861 750 l 861 708 l 844 708 m 353 700 l 353 717 l 394 717 l 394 700 l 353 700 m 261 458 l 261 492 l 219 492 l 219 625 l 236 625 l 236 508 l 278 508 l 278 458 l 261 458 m 636 500 l 636 592 l 694 592 l 694 542 l 678 542 l 678 575 l 653 575 l 653 500 l 636 500 m 761 292 l 761 325 l 719 325 l 719 383 l 761 383 l 761 450 l 736 450 l 736 408 l 694 408 l 694 325 l 636 325 l 636 467 l 678 467 l 678 508 l 719 508 l 719 592 l 861 592 l 861 492 l 761 492 l 761 550 l 811 550 l 811 533 l 778 533 l 778 508 l 844 508 l 844 575 l 736 575 l 736 492 l 694 492 l 694 450 l 653 450 l 653 342 l 678 342 l 678 425 l 719 425 l 719 467 l 778 467 l 778 367 l 736 367 l 736 342 l 778 342 l 778 292 l 761 292 m 428 367 l 428 425 l 469 425 l 469 450 l 428 450 l 428 508 l 511 508 l 511 550 l 569 550 l 569 450 l 528 450 l 528 425 l 561 425 l 561 408 l 511 408 l 511 467 l 553 467 l 553 533 l 528 533 l 528 492 l 444 492 l 444 467 l 486 467 l 486 408 l 444 408 l 444 383 l 478 383 l 478 367 l 428 367 m 269 533 l 269 550 l 311 550 l 311 533 l 269 533 m 178 325 l 178 408 l 144 408 l 144 425 l 194 425 l 194 342 l 219 342 l 219 450 l 69 450 l 69 408 l 28 408 l 28 383 l 94 383 l 94 417 l 111 417 l 111 367 l 11 367 l 11 425 l 53 425 l 53 467 l 236 467 l 236 325 l 178 325 m 269 408 l 269 425 l 303 425 l 303 467 l 361 467 l 361 425 l 386 425 l 386 458 l 403 458 l 403 408 l 344 408 l 344 450 l 319 450 l 319 408 l 269 408 m 136 -8 l 136 92 l 194 92 l 194 42 l 178 42 l 178 75 l 153 75 l 153 8 l 219 8 l 219 50 l 344 50 l 344 342 l 386 342 l 386 367 l 278 367 l 278 342 l 319 342 l 319 242 l 278 242 l 278 200 l 94 200 l 94 342 l 136 342 l 136 375 l 153 375 l 153 325 l 111 325 l 111 217 l 261 217 l 261 258 l 303 258 l 303 325 l 261 325 l 261 383 l 403 383 l 403 325 l 361 325 l 361 33 l 236 33 l 236 -8 l 136 -8 m 928 333 l 928 383 l 986 383 l 986 333 l 969 333 l 969 367 l 944 367 l 944 333 l 928 333 m 811 325 l 811 342 l 894 342 l 894 325 l 811 325 m 386 242 l 386 292 l 403 292 l 403 258 l 428 258 l 428 333 l 444 333 l 444 242 l 386 242 m 803 200 l 803 300 l 978 300 l 978 283 l 819 283 l 819 217 l 844 217 l 844 250 l 861 250 l 861 200 l 803 200 m 136 242 l 136 292 l 153 292 l 153 258 l 219 258 l 219 283 l 186 283 l 186 300 l 236 300 l 236 242 l 136 242 m 678 -8 l 678 42 l 694 42 l 694 8 l 719 8 l 719 50 l 761 50 l 761 158 l 636 158 l 636 217 l 678 217 l 678 283 l 611 283 l 611 258 l 644 258 l 644 242 l 594 242 l 594 300 l 694 300 l 694 200 l 653 200 l 653 175 l 778 175 l 778 33 l 736 33 l 736 -8 l 678 -8 m 719 200 l 719 292 l 736 292 l 736 217 l 761 217 l 761 250 l 778 250 l 778 200 l 719 200 m 478 242 l 478 258 l 561 258 l 561 242 l 478 242 m 803 75 l 803 125 l 819 125 l 819 92 l 844 92 l 844 133 l 886 133 l 886 258 l 944 258 l 944 167 l 928 167 l 928 242 l 903 242 l 903 117 l 861 117 l 861 75 l 803 75 m 386 158 l 386 217 l 519 217 l 519 200 l 403 200 l 403 175 l 478 175 l 478 158 l 386 158 m 553 -8 l 553 33 l 511 33 l 511 92 l 553 92 l 553 133 l 594 133 l 594 200 l 569 200 l 569 158 l 528 158 l 528 117 l 394 117 l 394 133 l 511 133 l 511 175 l 553 175 l 553 217 l 611 217 l 611 117 l 569 117 l 569 75 l 528 75 l 528 50 l 569 50 l 569 8 l 594 8 l 594 50 l 636 50 l 636 75 l 603 75 l 603 92 l 653 92 l 653 33 l 611 33 l 611 -8 l 553 -8 m 228 75 l 228 92 l 303 92 l 303 208 l 319 208 l 319 75 l 228 75 m 94 0 l 94 175 l 278 175 l 278 117 l 186 117 l 186 133 l 261 133 l 261 158 l 111 158 l 111 0 l 94 0 m 811 158 l 811 175 l 853 175 l 853 158 l 811 158 m 678 83 l 678 133 l 736 133 l 736 83 l 719 83 l 719 117 l 694 117 l 694 83 l 678 83 m 269 -8 l 269 8 l 428 8 l 428 92 l 486 92 l 486 8 l 519 8 l 519 -8 l 469 -8 l 469 75 l 444 75 l 444 -8 l 269 -8 m 386 42 l 386 83 l 403 83 l 403 42 l 386 42 z "}}}
